<svg xmlns="http://www.w3.org/2000/svg" width="834.542" height="404.767" viewBox="0 0 834.542 404.767">
  <g id="Gruppe_256" data-name="Gruppe 256" transform="translate(0 0)" opacity="0.2">
    <path id="Pfad_174" data-name="Pfad 174" d="M278.281,266.783c-1.173-.625-1.817-1.049.057-1.1,9.755-.238,19.157-3.17,28.867-3.687,3.136-.167,3.138-.136,4.309-2.222l-42.49,2.891c1.46-2.212,3.292-1.593,4.873-1.682,9.247-.523,18.517-.913,27.618-2.749,15-3.026,27.563-9.394,33.418-24.833,1.125-2.968,3.06-5.645,4.059-8.643,4.217-12.656,14-17.669,26.191-19.427,15.357-2.215,30.679-.734,45.814,1.619,19.113,2.97,30.638,14.8,34.275,33.551,1.054,5.436,1.913,6.043,7.714,5.45,2.673-.273,5.479-.844,6.447,2.8-.638.58-1.141.059-1.68-.09-.486-.135-1.09-.605-1.326.621a63.463,63.463,0,0,0,37.031,14.308c-4.986-.955-3.757-4.625-3.884-7.706,8.533,3.923,12.242,13.086,8.592,21.482l-6.05-5.626c.224-1.461,1.994.079,2.233-1.7-13.047-3.815-25.5-9.349-38.118-14.451-3.041-.934-3.784-4.4-6.433-6.028,2.7,22.132,2.665,33.268,10.287,37.4-4.811-8.706-3.116-18.23-6.229-27.9,14.372,13.906,22.826,17.858,33.157,15.914-.647-1.443-2.077-.963-3.146-1.282-9.536-2.84-18.362-6.876-24.992-14.663,6.561,4.121,13.285,7.909,20.864,9.855,3.364.863,7.563.6,9.946,2.583,2.566,2.132.13,6.494.615,9.809a1.961,1.961,0,0,0,2.019-1.143c1.074-1.63,2.24-2.222,4.154-1.175,2.206,1.208.578,2.62.376,3.9a51.028,51.028,0,0,1-1.274,5.771c-.453,1.624-.2,2.809,1.657,2.867,5.513.173,6.693,3.637,6.719,8.293a9.872,9.872,0,0,0,1.115,4.838c4.222,7.039,6.268,14.414,4.464,22.665.524-1.8,1.049-3.606,1.806-6.209,1.173,3.39,2.5,5.853,5.82,5.678a2.261,2.261,0,0,0,2.084-2.564c-.089-3.211-.905-6.65-4.318-7.214-4.536-.749-4.966-3.7-5.385-7.089,5.441-1.424,5.441-1.424,7.087-7.377,1.344-4.863-2-9.712-6.984-9.193-3.123.326-5.172-1.063-7.753-1.812-6.21-1.8-4.069-5.209-3.122-8.756.39-1.462,1.007-2.862,1.489-4.3,3.629-10.849-.428-20.519-10.717-25.345-7.307-3.428-15.1-5.517-22.739-8.009-4.225-1.377-8.595-2.634-12.959-1.813-4.672.878-5.876-1.067-6.114-5.158-.437-7.516-2.853-14.262-8.564-19.506-9.02-8.281-19.005-14.666-31.611-15.676-9.534-.764-19.072-1.534-28.622-2.031A65.1,65.1,0,0,0,353.4,204.69c-6.874,2.461-12.124,6.689-15.259,13.464-2.868,6.2-6.078,12.231-8.974,18.415a26.215,26.215,0,0,1-12.3,12.326,59.214,59.214,0,0,1-17.606,5.928c-15.942,2.639-32.089,2.4-48.135,3.542-9.389.67-18.272,2.7-26.329,7.807-8.488,5.382-8.526,5.323-15.406-2.12-.1-.112-.216-.216-.308-.335-2.209-2.894-5.042-3.863-8.439-2.463a8.766,8.766,0,0,0-5.726,8.1c-.133,3.338,1.958,5.563,5.092,6.6,2.626.871,1.695,1.883.264,3.016a19.826,19.826,0,0,1-2.167,1.661c-1.575.926-3.287,3.031-4.863.171-1.055-1.914-4.861-3.592-.912-6.35.587-.41,1.559-1.008,1.083-2.144-2.729.918-10.337,7.4-11.58,9.794-.727,1.4-.788,2.665.724,3.508,2.368,1.32,2.861,2.81.995,5.038-1.2,1.428-.531,2.906.758,3.988,1.257,1.054,2.72,1.487,4.163.366,2.378-1.848,4.62-3.853,2.271-7.163-1.132-1.594-.756-3.138,1-2.415,3.464,1.426,5.566-.762,8.081-2.286,1.3,4.738,1.753,9.069-1.078,13.5-1.021-3.133.406-6.276-1.729-9.373-.438,3.487-1.014,6.328-1.11,9.187-.254,7.487-2.944,14.535-3.671,21.95-1.252,12.756.325,25.452.361,38.177.077,26.451,3.372,52.71,5.24,79.052.729,10.293.422,20.669,2.151,30.885,2.447,14.466,13.5,23.084,28.189,21.961,4.841-.37,9.673-.9,14.493-1.491,6.952-.85,10.353-1.942,13.957-4.364-9.927,3.322-19.884,4.238-29.87,4.448-13.846.291-23.391-8.092-24.934-21.951-1.561-14.023-1.48-28.163-2.809-42.235-1.64-17.368-1.823-34.867-3-52.285-1.879-27.733,1.427-54.539,13.13-80.021,2.021-4.4,4.179-8.658,7.928-12.7.037,4.975,2.769,6.407,7.914,6.129-3.971,2.665-6.353,5.157-8.069,8.231-6.263,11.222-1.134,22.087,11.434,24.317,5.162.915,10.219,1.468,15-1.519,1.686-1.052,3.534-.307,5.313.115a7.077,7.077,0,0,0,7.454-2.606c-1.671.2-3.2.812-4.781,1.159-.719.157-1.584.335-1.947-1.081-1.14-4.44-3.607-5.85-7.559-4.205a2.653,2.653,0,0,1-2.758.029c-.706-.4-1.576-1.308-2.287-.109a2.311,2.311,0,0,0,.256,2.585c.742.966,1.641,1.811,2.589,2.835-4.315,1.412-8.145.148-11.939-.776-7.846-1.911-11.131-7.822-8.83-15.56,3.516-11.826,22.219-19.339,32.849-13.186a21.185,21.185,0,0,1,8.427,9.236c-1.6-8.638-7.73-12.616-15.671-14.734,1.115-2.258,4.12-3.7,2.015-6.534a3,3,0,0,0-3.663-1.092c-2.657,1.039-2.378,3.4-2.533,5.708,1.521-.048,1.817-1.892,3.282-1.611.044,2.012-.139,3.563-2.772,3.736a46.628,46.628,0,0,0-13.092,3.284c.4-1.084.677-1.847,1.011-2.759-2.571.828-5.638,3.2-7.36.042-1.559-2.859,2.344-4.155,3.877-6.038-1.215-.953-2.249.668-3.294-.406a10.351,10.351,0,0,1,4.39-3.072c2.826-2.365,5.718-4.529,10.922-2.841l-10.67,3.109c.075,2.45,1.759.812,2.34.686,8.919-1.945,18.034-2.138,27.832-3.5-2.529,2.193-4.46,4.175-1.466,6.349,2.353,1.708,4.922.867,7.315-.342-2.79-1.15,1.987-5.346-2.718-5.789,3.436-.63,6.335-1.392,9.474.533,2.521,1.546,5.649.362,8.483-.1C278.469,267.99,279.654,267.516,278.281,266.783Zm193.535-12.234-8.8-3.646C471.349,248.992,471.349,248.992,471.815,254.549ZM197.888,310.793c.236-8.954.216-8.965,4.056-15.917a13.31,13.31,0,0,0,1.824-8.287c-.475-3.531.035-6.129,4.146-6.866a11.878,11.878,0,0,0,3.158-1.656C204.727,288.194,202.536,299.863,197.888,310.793Z" transform="translate(129.74 -200.835)" fill="#fafafa"/>
    <path id="Pfad_175" data-name="Pfad 175" d="M503.149,605.1a132.89,132.89,0,0,1-47.736,14.147c-41.065,3.855-77.923-6.234-108.188-35.105-24.964-23.813-36.32-53.27-31.16-87.8,5.4-36.13,26.789-61.6,57.474-79.323A130.8,130.8,0,0,1,436,399.624c24.648-.691,47.96,4.028,69.865,15.438.536.279,1.084.537,1.612.831.457.255.9.669,1.393-.272a133.476,133.476,0,0,0-68.305-18.1c-23.86.189-46.991,4.548-68.43,15.917a104.472,104.472,0,0,1,32.9-14.245c30.008-7.009,59.691-5,88.971,4.2a95.414,95.414,0,0,1,31.3,16.214,123.957,123.957,0,0,1,16.212,15.956c1.593,1.837,2.861,4.1,5.36,4.961-11.07-17.113-25.921-29.817-44.82-37.485-26.014-10.554-53.178-13.591-80.929-10.639-26.925,2.864-50.09,14.364-70.65,31.839a135.149,135.149,0,0,0-37.406,51.3c-3.129,7.412-5.12,15.156-4.891,23.339a84.346,84.346,0,0,1,12.88-34.262,4.961,4.961,0,0,1-.5,2.08c-20.624,42.609-9.572,93.453,29.969,125.874C393.267,627.616,455.857,631.514,504,605.885c.521-.277,1.35-.464,1.3-1.359C504.346,604.108,503.782,604.778,503.149,605.1Z" transform="translate(118.531 -217.672)" fill="#fafafa"/>
    <path id="Pfad_176" data-name="Pfad 176" d="M8.6,442.523a112.287,112.287,0,0,0,1.745-27.185,7.914,7.914,0,0,0-.724,1.48c-.092.752-.1,1.513-.157,2.27C6.873,455.816-1.347,490.7-22.889,521.514a173.627,173.627,0,0,0-20.03,39.25,38.076,38.076,0,0,0-2.332,8.766c-.323,2.7,2.139,5.987.038,7.8-2.166,1.865-5.472-.3-8.31-.392-22.046-.706-43.735-4.735-65.6-7.129-10.711-1.172-21.017-4.844-31.919-4.851-4.552,0-5.5-1.571-4.832-6.56,2.579-19.446,11.595-35.928,23.614-50.985a29.8,29.8,0,0,1,9.616-7.533c8.18-4.335,16.251-8.872,24.395-13.276,20.983-11.35,35.8-27.988,44.84-50.2,5.593-13.751,14.157-25.484,28.348-31.922a38.644,38.644,0,0,0,4.321-2.525c1.233-.768,2.423-1.607,3.631-2.415-14.874,5.648-27.121,14.377-34.6,28.675-1.828,3.492-3.65,7-5.265,10.588-7.617,16.938-18.946,30.6-34.9,40.354-10.5,6.423-21.438,12.041-32.334,17.73a33.929,33.929,0,0,0-11.036,8.644c-7.834,9.75-14.5,20.234-19.093,31.923a96.032,96.032,0,0,0-5.415,21.6c-.788,5.5,1.659,9.3,6.63,9.426,10.269.252,20.056,3.26,30.124,4.577,25.122,3.287,50.235,6.651,75.534,8.366,4.808.325,6.963-1.523,6.222-6.332a24.212,24.212,0,0,1,1.222-12.5A222.6,222.6,0,0,1-21.19,524.238Q-13.852,512.2-7.178,499.76C2.431,481.908,5.037,462.063,8.6,442.523Z" transform="translate(159.901 -218.397)" fill="#fafafa"/>
    <path id="Pfad_177" data-name="Pfad 177" d="M190.32,404.825c.27-2.353-1.253-4.109-3.536-3.711-5.358.934-10.824.527-16.187,1.364,4.306,1.676,8.7,1.056,13.032.837,3.878-.2,3.417,2.287,3.636,4.728.248,2.777-.905,3.237-3.45,3.1-4.791-.257-9.6-.074-14.409-.074q.021.61.042,1.22,6.948.677,13.9,1.353c1.356.131,2.776-.028,2.5,2.191-.839,6.751-1.612,13.514-2.242,20.288-.191,2.06-1.143,2.456-2.936,2.409-4.245-.109-8.5-.173-12.741-.079-3.355.075-4.928-.867-4.587-4.716a128.165,128.165,0,0,0-.779-30.688c-.364.505-.781.833-.857,1.227a183.036,183.036,0,0,0-3.182,41.248c.055,1.486.208,3.066,2.115,3.587-.877-6.865.346-8.912,5.523-8.041,4.976.837,9.991.67,14.941,1.381,1.552.222,3.91-.638,3.857,2.476-.046,2.687-1.165,3.715-3.842,3.781-4.19.1-8.372.535-12.557.827,4.815,1.706,9.685,1.626,14.5,1.571,2.588-.03,3.388.421,3.141,3.158-1.35,14.967-2.532,29.949-3.732,44.929-.106,1.325-.25,2.529-1.872,2.56-5.194.1-10.056,2.284-15.286,2.3-2.468.009-3.228-.409-2.491-3.035a36.058,36.058,0,0,0,1.09-14.737c-1.11,6.152-1.62,11.291-3.688,16.094-1.411,3.278.18,4.2,3.388,4.372,6.146.326,12.052-1.874,18.111-1.551,3.5.186,4.164-.846,4.371-4.187,1.067-17.27,1.694-34.626,4.009-51.743C192.123,434.344,188.622,419.617,190.32,404.825Z" transform="translate(131.768 -218.532)" fill="#fafafa"/>
    <path id="Pfad_178" data-name="Pfad 178" d="M739.482,475.35c-1.326-4.5-3.244-8.824-4.73-13.283-1.3-3.912-4.028-5.1-7.429-3.389-5.236,2.628-10.794,2.831-16.389,3.158-10.289.6-20.547,1.28-30.789,2.708-22.087,3.08-44.395,4.645-66.259,9.237-6.538,1.373-10.863-1-14.43-5.962-3.62-5.039-5.214-10.908-6.695-16.793a77.311,77.311,0,0,0-8.645-20.713c0,1.333-.14,1.817.021,2.16a108.8,108.8,0,0,1,9.246,27.951,23.106,23.106,0,0,0,5,10.127c3.931,5.025,8.61,7.259,15.427,6.164,29.523-4.742,59.276-7.688,89.024-10.646,8.675-.862,17.722.4,25.86-4.067,1.4-.768,2.284.155,2.76,1.454,1.72,4.7,3.4,9.411,5.141,14.1,1.164,3.13.059,4.976-3.093,5.709-4.727,1.1-9.436,2.3-14.2,3.228-20.7,4.045-41.9,4.5-61.308,8.593a49.422,49.422,0,0,0,7.591-.058c11.895-1.606,23.852-2.353,35.809-3.263a193.823,193.823,0,0,0,31.436-5.03C740.219,484.928,741.632,482.641,739.482,475.35Z" transform="translate(94.145 -221.118)" fill="#fafafa"/>
    <path id="Pfad_179" data-name="Pfad 179" d="M316.732,406.061l.048.072c0-.054.009-.108.012-.161l.012-.017-.029.044-.043.063c.7-1.334,1.325-2.718,2.12-3.993,25.535-40.882,81.139-65.737,128.636-56.277,24.276,4.835,46.614,14.509,62.56,34.94.256.328.516,1.167,1.376.591-5.881-10.1-14.5-16.915-24.329-23.053-27.69-17.3-57.279-21.712-88.746-14.612-36.811,8.306-65.369,28.259-84.25,61.293-2.318,4.057-3.337,8.937-6,12.7-7.878,11.134-6.825,23.7-6.549,36.263C300.738,436.055,306.675,420.394,316.732,406.061Z" transform="translate(119.133 -213.172)" fill="#fafafa"/>
    <path id="Pfad_180" data-name="Pfad 180" d="M383.958,388.8a130.133,130.133,0,0,0-48.4,33.774c-10.367,11.448-27.9,45.179-27.045,52.76,15.8-45.089,45.409-75.452,91.444-87.927,44.867-12.158,87.158-6.755,125.54,21.2C496.7,380.2,437.662,366.988,383.958,388.8Z" transform="translate(118.503 -216.486)" fill="#fafafa"/>
    <path id="Pfad_181" data-name="Pfad 181" d="M393.644,377.89c45.56-14.868,87.926-7.1,126.923,20.545a89.619,89.619,0,0,0-21.058-15.18c-42.488-22.036-85.254-21.137-127.859-.7-32.852,15.757-56.272,40.168-66.473,75.936-.945,3.316-1.646,6.7-2.461,10.055C315.607,420.709,348.286,392.692,393.644,377.89Z" transform="translate(119.012 -215.52)" fill="#fafafa"/>
    <path id="Pfad_182" data-name="Pfad 182" d="M50.928,361.879c6.158-2.955,12.351-5.853,18.384-9.05,9.811-5.2,20.089-6.424,30.93-4.517,17.044,3,34.17,2.909,51.287.776,8.153-1.016,8.122-1.205,6.865,6.719-.333,2.1-.667,4.2-.9,6.313-.865,7.829-2.187,15.627-1.6,23.618,4.419-26.667,11.907-52.537,19.473-78.4-5.5,12.353-11.009,24.631-15.36,37.457,2.041-20.093,6.614-39.77,7.408-60.306-2.8,5.554-2.194,11.487-3.238,17.091-2.554,13.717-6.214,27.224-7.888,41.1-.254,2.1-1.453,2.3-3.064,2.5-15.435,1.872-31.129,3.526-46.288.134-23.634-5.288-41.515,6.135-60,17.673C48.713,363.533,49.775,362.432,50.928,361.879Z" transform="translate(141.62 -208.229)" fill="#fafafa"/>
    <path id="Pfad_183" data-name="Pfad 183" d="M376.232,327.5c-27.221,8.676-63.461,42.248-64.575,59.865,18.339-31.378,43.633-53.62,80.427-59.84,35.836-6.058,68.91-.317,96.791,25.083C466.121,324.657,418.346,314.074,376.232,327.5Z" transform="translate(118.222 -211.519)" fill="#fafafa"/>
    <path id="Pfad_184" data-name="Pfad 184" d="M399.658,543.532c13.68-21.14,27.145-42.419,40.667-63.663q8.11-12.739-1.335-24.647c-1.968-2.484-4.18-4.773-6.248-7.178q-10.012-11.641-20-23.3l-.815.818c1.1,1.439,2.183,2.9,3.306,4.317,6.948,8.8,13.945,17.564,20.848,26.4,6.027,7.715,6.289,13.973,1.125,21.965-13.585,21.022-27.3,41.961-40.29,63.361-4.626,7.619-11.621,11.059-20.748,10.464-11.784-.767-23.6-1.088-35.4-1.6,11.827,1.956,23.717,2.961,35.584,4.171C386.441,555.662,394.267,551.862,399.658,543.532Z" transform="translate(115.649 -220.625)" fill="#fafafa"/>
    <path id="Pfad_185" data-name="Pfad 185" d="M411.606,581.279c18.284,10.569,31.311,8.044,41.993-8.187,13.607-20.677,28.335-40.539,43.132-60.361,5.492-7.359,5.33-13.94-.279-21.269-8.119-10.609-20-13.379-32.207-15.351,3.274,1.37,6.726,2.3,10.1,3.473,7.856,2.729,15.11,6.405,19.984,13.55,4.512,6.616,4.409,11.52-.467,17.881-2.769,3.612-5.745,7.067-8.468,10.711q-18.941,25.345-36.434,51.712c-8.044,12.1-17.431,14.27-30.925,8.848a63.559,63.559,0,0,1-9.243-4.86c-2.807-1.71-5.4-3.77-8.087-5.677A36.363,36.363,0,0,0,411.606,581.279Z" transform="translate(110.352 -225.165)" fill="#fafafa"/>
    <path id="Pfad_186" data-name="Pfad 186" d="M165.762,466.671c-5.6,5.508-11.057,11.175-19.058,15.146a35.436,35.436,0,0,0,3.249-21.829c-3.683,5.836-4.065,12.344-3.919,18.844.066,2.936-.959,4.317-3.522,5.412a137.455,137.455,0,0,1-20.259,6.8c-22.645,5.742-45.9,6.813-69.009,9.021-13.366,1.277-26.675,2.923-39.782,5.971a74.645,74.645,0,0,0,8.588-.524c23.861-2.558,47.915-2.624,71.749-5.525,17.558-2.137,34.783-5.55,50.7-13.7A53.59,53.59,0,0,0,165.762,466.671Z" transform="translate(144.578 -223.74)" fill="#fafafa"/>
    <path id="Pfad_187" data-name="Pfad 187" d="M566.09,511.463c-1.924-.359-3.837-.8-5.774-1.064-10.371-1.4-20.76-2.676-31.12-4.154-12.653-1.806-19.534-2.976-26.349,12.351a5,5,0,0,1-.51.752c-14.733,21.329-27.977,43.7-44.644,63.677-3.307,3.965-4.151,8.58-1.548,13.139,3.564,6.244,9.1,10.883,14.006,16.041-3.13-4.987-6.805-9.536-10.248-14.253-3.565-4.885-3.6-9.143.177-13.231,12.931-14.012,23.1-30.049,33.68-45.768,5.232-7.774,10.791-15.353,14.848-23.917,2.321-4.9,6.748-7.151,12.385-6.686,14.961,1.235,29.929,2.4,44.894,3.586Z" transform="translate(105.586 -227.738)" fill="#fafafa"/>
    <path id="Pfad_188" data-name="Pfad 188" d="M368.676,537.462c5.974-.708,10.027-3.662,13.269-8.463,12.312-18.235,24.591-36.495,37.179-54.537,3.435-4.923,3.349-9.836,1.207-14.614-4.547-10.144-13.114-17.289-20.211-25.541a236.053,236.053,0,0,0,14.245,19.755c3.628,4.546,5.423,13.19,2.794,16.984-13.313,19.2-26.92,38.206-39.3,58.044a11.892,11.892,0,0,1-8.079,5.364A98.836,98.836,0,0,1,338.6,536.4C348.552,539.2,358.565,538.659,368.676,537.462Z" transform="translate(115.841 -221.47)" fill="#fafafa"/>
    <path id="Pfad_189" data-name="Pfad 189" d="M677.477,508.22c-1.428-.5-2.929-.792-4.379-1.235-12.048-3.681-24.787-4.468-36.672-8.886-6.779-2.52-13.172-5.83-19.72-8.889,5.443,4.838,11.767,8.176,18.367,11.037a103.319,103.319,0,0,0,20.889,6.255,99.606,99.606,0,0,1,20.364,5.952,72.1,72.1,0,0,1-8.434-1.339c-4.066-.678-8.326-1.386-11.862,1.366-3.326,2.587-6.648,2.573-10.254,1.153-14.385-5.666-29.826-7.836-44.254-13.44,2.034,2.113,4.661,3.17,7.275,4.1,12.433,4.424,24.9,8.744,37.365,13.087,3.121,1.088,6.608,1.693,9.234-.309,4.606-3.511,9.321-2.913,14.291-1.717q2.655.639,5.32,1.237c2.723.609,4.972-.1,5.863-2.882C681.8,510.78,680.045,509.126,677.477,508.22Z" transform="translate(92.602 -226.323)" fill="#fafafa"/>
    <path id="Pfad_190" data-name="Pfad 190" d="M114.641,516.308A117.011,117.011,0,0,1,90.728,523.5c-24.506,4.646-49.387,5.7-74.183,7.476-6.192.445-12.443.067-18.666.067l.025,1.244c27.5,2.238,54.862.191,82.126-3.109,17.8-2.155,34.578-7.727,49.611-17.907a25.383,25.383,0,0,0,9.914-12.875C128.973,509.6,126.661,511.216,114.641,516.308Z" transform="translate(145.955 -227.135)" fill="#fafafa"/>
    <path id="Pfad_191" data-name="Pfad 191" d="M599.543,406.464c4.739-4.431,8.662-2.767,13.223-.841a22.461,22.461,0,0,0,4.8,1.313c17.258,3.058,33.295,10.223,50.077,14.885,2.82.783,5.105,2.432,5.8,5.767.711,3.393,3.338,4.825,6.528,4.138,4.556-.982,8.35.51,12.078,2.7,3.786,2.23,7.636,4.368,11.308,6.774,3.656,2.4,6.64,5.641,9.694,8.774-3.42-7.038-9.71-12.5-21.322-19.07-3.371-1.907-6.818-3.246-10.818-2.639-1.425.217-3.458.686-3.878-1.287-1.569-7.369-7.73-8.682-13.475-10.573A556.657,556.657,0,0,0,609.3,401.466c-3.629-.8-6.889-.972-9.418,2.406-1.48,1.977-3.7,2.435-6.055,2.619-2.821.22-5.626.644-8.439.98C590.238,407.818,595.911,409.859,599.543,406.464Z" transform="translate(94.028 -218.525)" fill="#fafafa"/>
    <path id="Pfad_192" data-name="Pfad 192" d="M213.3,354.754c.1,3.078,1.418,5.936,5.512,5.852,12.454-.257,24.893-.817,37.3-1.9,4.769-.415,6.472-4.555,3.744-8.591.34,5.282-.827,6.486-6.278,6.378-2.542-.05-5.082-.181-7.623-.275,0-.036,0-.069,0-.1l-.106.091.1.125c-1.367-.31-4.131,1.21-2.983-2.378a2.837,2.837,0,0,0-.982-3.277,1.187,1.187,0,0,0-1.635.147,2.84,2.84,0,0,0-.6,3.349c.373.887,1.534,1.986-.534,2.193-1.615.161-1.589-.6-1.149-1.942.536-1.633-.157-3.427-1.877-3.434-1.524-.006-1.749,1.817-1.53,3.244.153,1,.908,2.161-1,2.221-1.562.049-1.523-.59-1.34-1.968.245-1.849.183-3.415-2.944-2.727-2.749.6-5.823-.274-8.753-.5l-.052-.85,27.761-1.978a149.313,149.313,0,0,0-30.447-1.37C213.833,347.239,213.2,351.518,213.3,354.754Z" transform="translate(126.916 -213.742)" fill="#fafafa"/>
    <path id="Pfad_193" data-name="Pfad 193" d="M356.379,350.256c.177,5.809.813,6.172,5.771,3.71q44.272-21.981,92.882-12.97c6.23,1.153,12.262,3.1,19.565,4.915a22.043,22.043,0,0,0-2.16-1.52c-1.1-.5-2.212-.985-3.347-1.4-37.156-13.6-72.918-10.692-107.144,9.264C358.847,354.063,357.073,354.526,356.379,350.256Z" transform="translate(114.269 -212.66)" fill="#fafafa"/>
    <path id="Pfad_194" data-name="Pfad 194" d="M367.641,256.261c-6.614-1.09-13.177-.553-19.765-.991,4.449,2.317,9.53,1.043,14.121,2.462a46.041,46.041,0,0,0,21.172,1.631c17.01-2.789,34.153-2.841,51.293-3.223,5.025-.111,9.954-.075,14.609,2.426a10.383,10.383,0,0,0,8.591.954c-5.793-.012-9.77-5.08-15.212-5.557-16.5-1.444-33.038-2.113-49.489.552C384.55,255.878,376.085,257.653,367.641,256.261Z" transform="translate(115.02 -205.419)" fill="#fafafa"/>
    <path id="Pfad_195" data-name="Pfad 195" d="M81.81,417.662c13.442,2.2,27.141,2.051,40.611,4.326,6.055,1.023,12.337.494,19.593-1.341-5.806-.29-10.442-.255-15.009-.8-13.212-1.574-26.442-3.091-39.579-5.181s-26.45-3.194-39.116-7.8a21.144,21.144,0,0,0-14.454-.474c4.609-.008,9.182.463,13.353,2.388C58.218,413.866,70.032,415.737,81.81,417.662Z" transform="translate(142.776 -218.91)" fill="#fafafa"/>
    <path id="Pfad_196" data-name="Pfad 196" d="M679.031,444.847c-4.234-3.5-9-4.847-14.447-3.174-3.34,1.026-6.8,2.187-10.278,1.631-15.364-2.462-30.891-1.614-46.323-2.6-4.032-.257-8.024-1.15-12.035-1.75a43.885,43.885,0,0,0,15.171,4.5c12.35,1.5,24.873,1.019,37.179,3.12a30.451,30.451,0,0,0,16.167-1.212c5.476-2.079,10.171-.777,14.363,2.841,4.695,4.052,9.23,8.29,13.836,12.447A68.667,68.667,0,0,0,679.031,444.847Z" transform="translate(93.094 -221.881)" fill="#fafafa"/>
    <path id="Pfad_197" data-name="Pfad 197" d="M506.468,620.91c33.31-11.9,51.58-37.89,64.436-68.886C554.529,579.774,536.229,605.673,506.468,620.91Z" transform="translate(101.003 -231.875)" fill="#fafafa"/>
    <path id="Pfad_198" data-name="Pfad 198" d="M340.441,291.964c-3.642,8.184-7.053,16.38-8.888,25.251-2.911,14.075-7.3,27.833-8.862,42.254.657-1.95,1.253-3.923,1.984-5.845,7.228-19.021,10.285-39.309,17.8-58.268,1.847-4.66,4.392-6.393,9.112-6.111,3.844.23,7.713.047,11.572.047q-.022-.6-.043-1.2c-4.82-.424-9.637-.9-14.461-1.257C344.71,286.542,342.074,288.294,340.441,291.964Z" transform="translate(117.247 -208.433)" fill="#fafafa"/>
    <path id="Pfad_199" data-name="Pfad 199" d="M-70.14,461.238c-20.859-6.05-60.928,12.85-61.44,44.8C-121.787,476.1-99.045,464.119-70.14,461.238Z" transform="translate(157.398 -223.752)" fill="#fafafa"/>
    <path id="Pfad_200" data-name="Pfad 200" d="M422.478,413.743a130.788,130.788,0,0,1,43.86-2.56c7.964.956,15.716,2.936,23.964,4.436a25.427,25.427,0,0,0-7.994-4.108,95.978,95.978,0,0,0-61.264.184c-2.828.929-5.492,2.584-8.692,1.192C415.668,414.724,419.025,414.5,422.478,413.743Z" transform="translate(109.322 -219.02)" fill="#fafafa"/>
    <path id="Pfad_201" data-name="Pfad 201" d="M243.589,295.816c4.251-.036,7.948,1.594,8.886,6.138.514,2.491,2.288-.656,2.732,1.087.215.841.957.356,1.148-.288.782-2.645.046-5.106-1.149-7.428s-3.259-4.073-5.832-3.411c-2.968.762-5.944.489-8.871.977a15.956,15.956,0,0,0-9.049,4.842c-3.374,3.521-4.066,7.814-1.922,11.633s6.145,5.556,10.9,4.492c2.418-.541,6.328-1.273,6.035-3.465-.408-3.057-4.045-.952-5.591-1.214-1.88,0-3.091.04-4.3-.007-3.873-.153-5.376-2.315-4.169-5.949C233.587,299.658,238.993,295.855,243.589,295.816Z" transform="translate(125.589 -208.872)" fill="#fafafa"/>
    <path id="Pfad_202" data-name="Pfad 202" d="M252.562,408.913c1.541,25.9,3.709,51.8,7.227,77.567A260.411,260.411,0,0,0,252.562,408.913Z" transform="translate(123.445 -219.226)" fill="#fafafa"/>
    <path id="Pfad_203" data-name="Pfad 203" d="M255.576,363.285a127.338,127.338,0,0,1-24.393,2.565c-8.163.043-16.222-1.064-25.428-2.59,20.032,10.5,59.907,6.235,74.32-7.891C271.52,358.849,263.731,361.653,255.576,363.285Z" transform="translate(127.582 -214.493)" fill="#fafafa"/>
    <path id="Pfad_204" data-name="Pfad 204" d="M550.462,326.456c3.39,5.558,4.185,11.595,4.087,17.891a19.739,19.739,0,0,0,2.508,10.469,45.459,45.459,0,0,1,4.689,13.2c1.1,4.927,1.929,9.959,4.444,14.5-2.628-22.2-7.65-43.811-16.343-64.57A8.721,8.721,0,0,0,550.462,326.456Z" transform="translate(97.243 -211.186)" fill="#fafafa"/>
    <path id="Pfad_205" data-name="Pfad 205" d="M566.1,575.522c26.865-34.468,31.377-72.466,14.689-102.908C596.409,509.841,586.994,543.473,566.1,575.522Z" transform="translate(95.732 -224.856)" fill="#fafafa"/>
    <path id="Pfad_206" data-name="Pfad 206" d="M368.67,430.75c-20.334,8.99-43.779,39.044-45.084,51.694C335.964,463.331,350.318,446.047,368.67,430.75Z" transform="translate(117.167 -221.156)" fill="#fafafa"/>
    <path id="Pfad_207" data-name="Pfad 207" d="M433.34,219.52c1.221-.864,2.535-1.9,2.624-3.674-10.4,6.4-20.85,9.823-32.922,5.439-8.636-3.136-17.4-5.892-25.645-10.145,7.429,7.438,16.869,11.056,26.5,14.355C414.913,229.267,424.423,225.835,433.34,219.52Z" transform="translate(112.411 -201.746)" fill="#fafafa"/>
    <path id="Pfad_208" data-name="Pfad 208" d="M312.3,376.122c-.408-1.169-2.548-.211-2.465-1.97.975-.718,2.433.129,3.388-1.223-5.6-1.564-10.946-1.924-15.456,2.339-3.862,3.651-3.419,8.208-1.85,12.706,1.068,3.057,2.97,5.385,6.92,5.662-5.756-6.384-6.02-12.69-.957-16.553-3.465,7.724-2.31,12.968,3.117,14.152C301.107,384.105,303.13,379.918,312.3,376.122Z" transform="translate(119.714 -215.95)" fill="#fafafa"/>
    <path id="Pfad_209" data-name="Pfad 209" d="M222.629,337.815c14.562,5.637,47.529-6.23,45.117-27.493C260.13,331.734,241.775,335.236,222.629,337.815Z" transform="translate(126.091 -210.512)" fill="#fafafa"/>
    <path id="Pfad_210" data-name="Pfad 210" d="M452.868,333.123c-16.633-5.762-33.107-4.523-49.487.844C419.864,333.121,436.35,332.453,452.868,333.123Z" transform="translate(110.115 -212.192)" fill="#fafafa"/>
    <path id="Pfad_211" data-name="Pfad 211" d="M560.937,560.419c-12.646,20.324-29.225,37.021-48.532,51.153C533.607,599.329,550.192,582.69,560.937,560.419Z" transform="translate(100.478 -232.617)" fill="#fafafa"/>
    <path id="Pfad_212" data-name="Pfad 212" d="M560.145,397.954c2.632-.4,5.064-3.605,7.36-2.034s1.5,5.364,2.711,7.945c1.963,4.184-.356,6.152-3.709,7.655-1.711.767-3.823.771-5.242,3.04,3.538-.958,6.735-1.694,9.839-2.709,2.187-.716,3.6-2.342,3.331-4.809a38.791,38.791,0,0,0-3.642-13.028c-.854-1.729-2.584-3.433-4.254-2.484-5.007,2.846-10.771,4.316-15.245,8.181C554.334,399.318,557.2,398.406,560.145,397.954Z" transform="translate(97.041 -217.665)" fill="#fafafa"/>
    <path id="Pfad_213" data-name="Pfad 213" d="M302.7,306.4a8.486,8.486,0,0,0,.474,11.206c3.166,3.262,7.8,3.48,11.935.165-3.44,1.044-6.132.751-8.912-1.949,2.192-.3,3.807-.135,5.139-1.6-5.534-1.521-3.53-3.524.462-5.544l-5.367-1.151c2.5-2.817,5.47-2.576,9.124-2C310.154,302.278,305.658,302.758,302.7,306.4Z" transform="translate(119.18 -209.896)" fill="#fafafa"/>
    <path id="Pfad_214" data-name="Pfad 214" d="M518.192,314.8c2.684-3.672,5.511-6.447,11.071-4.132-3.959-3.794-7.062-4.121-10.57-1.6-6.864,4.933-10.525,14.952-8.212,24.725C511.863,326.094,514.274,320.155,518.192,314.8Z" transform="translate(100.71 -210.257)" fill="#fafafa"/>
    <path id="Pfad_215" data-name="Pfad 215" d="M-130.753,544.922c23.546,4.142,47.072,8.421,70.855,10.456C-83.519,551.614-106.98,547.154-130.753,544.922Z" transform="translate(157.325 -231.247)" fill="#fafafa"/>
    <path id="Pfad_216" data-name="Pfad 216" d="M-131.851,554.036c23.524,4.062,47.006,8.413,70.83,10.405C-84.6,560.751-108.049,556.147-131.851,554.036Z" transform="translate(157.422 -232.053)" fill="#fafafa"/>
    <path id="Pfad_217" data-name="Pfad 217" d="M-113.156,520.412c22.716,3.812,45.949,7.928,69.445,10.2C-61.04,526.271-108.246,519.547-113.156,520.412Z" transform="translate(155.769 -229.074)" fill="#fafafa"/>
    <path id="Pfad_218" data-name="Pfad 218" d="M-120.871,527.32c7.757,1.344,15.5,2.745,23.272,4.015,7.93,1.3,15.871,2.538,23.827,3.667,7.554,1.073,15.133,1.969,22.7,2.943C-74.21,533.8-97.271,529.3-120.871,527.32Z" transform="translate(156.451 -229.691)" fill="#fafafa"/>
    <path id="Pfad_219" data-name="Pfad 219" d="M-64.594,583.375c-23.077-4-46.175-7.836-69.453-10.443C-111.025,577.314-87.939,581.239-64.594,583.375Z" transform="translate(157.616 -233.723)" fill="#fafafa"/>
    <path id="Pfad_220" data-name="Pfad 220" d="M506.159,338.446c1.242-9.407-2.3-19.593,4.55-29.016C501.956,313.567,499.681,331.716,506.159,338.446Z" transform="translate(101.359 -210.433)" fill="#fafafa"/>
    <path id="Pfad_221" data-name="Pfad 221" d="M-102,512.3c21.176,4.745,42.421,8.343,63.974,9.757Z" transform="translate(154.784 -228.364)" fill="#fafafa"/>
    <path id="Pfad_222" data-name="Pfad 222" d="M-118.082,536.372c21.125,4.726,42.413,8.306,63.954,9.716Z" transform="translate(156.205 -230.492)" fill="#fafafa"/>
    <path id="Pfad_223" data-name="Pfad 223" d="M-126.131,563.3c21.169,4.728,42.5,8.334,64.142,9.762Z" transform="translate(156.916 -232.871)" fill="#fafafa"/>
    <path id="Pfad_224" data-name="Pfad 224" d="M-88.412,505.451a333.887,333.887,0,0,0,57.282,8.727Z" transform="translate(153.582 -227.759)" fill="#fafafa"/>
    <path id="Pfad_225" data-name="Pfad 225" d="M-73.554,492.344-17,499.027A276.106,276.106,0,0,0-73.554,492.344Z" transform="translate(152.269 -226.6)" fill="#fafafa"/>
    <path id="Pfad_226" data-name="Pfad 226" d="M-78.762,499.446l55.833,6.618A274.487,274.487,0,0,0-78.762,499.446Z" transform="translate(152.73 -227.228)" fill="#fafafa"/>
    <path id="Pfad_227" data-name="Pfad 227" d="M302.434,417.258c-7.291-.063-10.763,2.5-12.415,8.094-1.314,4.45.641,8.8,6.7,13.1C291.24,428.944,292.239,422.084,302.434,417.258Z" transform="translate(120.169 -219.963)" fill="#fafafa"/>
    <path id="Pfad_228" data-name="Pfad 228" d="M389.925,422.8c-3.981,1.429-7.848,3.186-12.268,3.095a15.246,15.246,0,0,0,15.285-.436c4.573-2.633,4.591-5.292-.794-8.579C394.789,420.788,392.68,421.816,389.925,422.8Z" transform="translate(112.388 -219.93)" fill="#fafafa"/>
    <path id="Pfad_229" data-name="Pfad 229" d="M533.492,340.689c-7.583,2.357-15.132.574-22.715.3C518.981,346.8,526.3,347.584,533.492,340.689Z" transform="translate(100.622 -213.196)" fill="#fafafa"/>
    <path id="Pfad_230" data-name="Pfad 230" d="M-57.946,485.3a421.654,421.654,0,0,0,48.758,5.349C-25.307,487.752-41.593,486.339-57.946,485.3Z" transform="translate(150.89 -225.978)" fill="#fafafa"/>
    <path id="Pfad_231" data-name="Pfad 231" d="M374.747,283.29c3.926-6.068,4.973-12.811,5.4-19.705C375.1,269.319,374.072,276.1,374.747,283.29Z" transform="translate(112.662 -206.381)" fill="#fafafa"/>
    <path id="Pfad_232" data-name="Pfad 232" d="M315.593,295.67c-4.2-1.328-7.28.17-9.4,4.079,7.585-3.517,11.779,1.11,15.842,6.584C322.227,300.642,319.968,297.056,315.593,295.67Z" transform="translate(118.705 -209.175)" fill="#fafafa"/>
    <path id="Pfad_233" data-name="Pfad 233" d="M371.908,262.355c-6.743,5.286-5.045,13.312-6.867,20.206C371.6,277.279,369.656,269.106,371.908,262.355Z" transform="translate(113.503 -206.272)" fill="#fafafa"/>
    <path id="Pfad_234" data-name="Pfad 234" d="M191.125,385.6c-7.337-3.786-14.965-4.5-19.5-2.052A31.9,31.9,0,0,0,191.125,385.6Z" transform="translate(130.599 -216.858)" fill="#fafafa"/>
    <path id="Pfad_235" data-name="Pfad 235" d="M-48.863,476.686l41.869,3.826A154.1,154.1,0,0,0-48.863,476.686Z" transform="translate(150.087 -225.204)" fill="#fafafa"/>
    <path id="Pfad_236" data-name="Pfad 236" d="M519.858,303.332c-.744-6.1-4.506-14.088-8.2-17.519C511.561,293.041,514.189,298.561,519.858,303.332Z" transform="translate(100.545 -208.346)" fill="#fafafa"/>
    <path id="Pfad_237" data-name="Pfad 237" d="M484.678,275.549c2.568,13.348,2.568,13.348,5.3,15.825C491.066,282.331,489.624,278.027,484.678,275.549Z" transform="translate(102.929 -207.439)" fill="#fafafa"/>
    <path id="Pfad_238" data-name="Pfad 238" d="M-37.156,458.437c11.477,1.331,23.058,1.691,34.433,3.494A96.494,96.494,0,0,0-37.156,458.437Z" transform="translate(149.052 -223.576)" fill="#fafafa"/>
    <path id="Pfad_239" data-name="Pfad 239" d="M-35.034,449.082c11.015.383,21.949,1.732,32.894,2.943A84.9,84.9,0,0,0-35.034,449.082Z" transform="translate(148.865 -222.733)" fill="#fafafa"/>
    <path id="Pfad_240" data-name="Pfad 240" d="M-40.137,468.386c12.2.521,24.33,1.863,36.433,3.509A94.66,94.66,0,0,0-40.137,468.386Z" transform="translate(149.316 -224.444)" fill="#fafafa"/>
    <path id="Pfad_241" data-name="Pfad 241" d="M530.775,337.371c2.454-2.24,3.242-5.541,2.011-9.6-2.563,4.858-5.5,8.969-11.753,10.215C525.844,339.774,528.471,339.475,530.775,337.371Z" transform="translate(99.716 -212.054)" fill="#fafafa"/>
    <path id="Pfad_242" data-name="Pfad 242" d="M491.4,322.594c-3.866,3.452-3.191,9.427,1.372,14.52C494.551,331.977,491.672,327.583,491.4,322.594Z" transform="translate(102.558 -211.597)" fill="#fafafa"/>
    <path id="Pfad_243" data-name="Pfad 243" d="M347.216,395.771c1.724-5.689,1.906-10.446-.565-16.475C344.357,385.535,344.049,390.307,347.216,395.771Z" transform="translate(115.285 -216.608)" fill="#fafafa"/>
    <path id="Pfad_244" data-name="Pfad 244" d="M531.995,376.028c.651,4.922-.448,9.692,3.431,13.571C537.842,384.347,536.751,379.71,531.995,376.028Z" transform="translate(98.747 -216.319)" fill="#fafafa"/>
    <path id="Pfad_245" data-name="Pfad 245" d="M303.446,422.773c-4.244-.314-5.891,1.593-6.341,4.3-.566,3.4.991,5.962,4.941,8.091C301.309,430.577,299.336,426.5,303.446,422.773Z" transform="translate(119.518 -220.448)" fill="#fafafa"/>
    <path id="Pfad_246" data-name="Pfad 246" d="M374.463,375.918c2.036-6.232,1.458-10.328-1.81-13.9A15.861,15.861,0,0,0,374.463,375.918Z" transform="translate(112.904 -215.082)" fill="#fafafa"/>
    <path id="Pfad_247" data-name="Pfad 247" d="M-28.288,429.579-1.476,431.8C-10.253,428.848-19.232,428.681-28.288,429.579Z" transform="translate(148.268 -221.01)" fill="#fafafa"/>
    <path id="Pfad_248" data-name="Pfad 248" d="M-30.156,439.329c9.523.233,19.01,1.6,28.566,1.923C-10.952,438.536-20.507,438.517-30.156,439.329Z" transform="translate(148.433 -221.873)" fill="#fafafa"/>
    <path id="Pfad_249" data-name="Pfad 249" d="M320.406,426.359c1.891-5.349.67-9.74-2.2-13.854C317.917,417.151,315.943,422.061,320.406,426.359Z" transform="translate(117.703 -219.543)" fill="#fafafa"/>
    <path id="Pfad_250" data-name="Pfad 250" d="M333.124,409.313c2.254-4.868.924-8.9-1.022-13.844C329.455,400.9,330.154,404.936,333.124,409.313Z" transform="translate(116.56 -218.038)" fill="#fafafa"/>
    <path id="Pfad_251" data-name="Pfad 251" d="M340,401.83c2.072-5.217,1.677-9.516-.965-14.5C337.044,392.663,336.94,397,340,401.83Z" transform="translate(115.928 -217.318)" fill="#fafafa"/>
    <path id="Pfad_252" data-name="Pfad 252" d="M357.641,386.934c1.3-5.338,1.362-9.5-1.1-14.331C354.167,377.876,354.13,382.058,357.641,386.934Z" transform="translate(114.403 -216.017)" fill="#fafafa"/>
    <path id="Pfad_253" data-name="Pfad 253" d="M384.093,370.655c1.85-4.929,1.226-8.961-1.619-13.924C380.6,362.271,380.909,366.371,384.093,370.655Z" transform="translate(112.065 -214.614)" fill="#fafafa"/>
    <path id="Pfad_254" data-name="Pfad 254" d="M407.7,362.584c1.128-4.4.152-8.233-2.234-12.645C403.139,355.988,403.814,359.415,407.7,362.584Z" transform="translate(110.049 -214.014)" fill="#fafafa"/>
    <path id="Pfad_255" data-name="Pfad 255" d="M429.977,359.9c1.661-4.848.68-8.509-3.341-12.289C425.534,352.459,426.94,356.258,429.977,359.9Z" transform="translate(108.092 -213.808)" fill="#fafafa"/>
    <path id="Pfad_256" data-name="Pfad 256" d="M365.24,380.937c1.974-4.859,1.028-8.7-1.49-13.306C361.578,372.866,362.195,376.743,365.24,380.937Z" transform="translate(113.731 -215.577)" fill="#fafafa"/>
    <path id="Pfad_257" data-name="Pfad 257" d="M417.124,361.094c2.1-5.571,1.339-9.608-2.087-12.434A13.647,13.647,0,0,0,417.124,361.094Z" transform="translate(109.141 -213.901)" fill="#fafafa"/>
    <path id="Pfad_258" data-name="Pfad 258" d="M441.485,357.557c.758-4.308-.307-8.036-3.223-11.836C436.339,350.975,437.53,355.1,441.485,357.557Z" transform="translate(107.111 -213.641)" fill="#fafafa"/>
    <path id="Pfad_259" data-name="Pfad 259" d="M351.733,315.889c-1.99-1.663-3.918-1.493-5.595.3a3.438,3.438,0,0,0-.053,4.928c1.627,1.872,3.57,1.93,5.6.409C348.121,319.089,348.13,318.361,351.733,315.889Z" transform="translate(115.268 -210.902)" fill="#fafafa"/>
    <path id="Pfad_260" data-name="Pfad 260" d="M453.473,358.955c.683-5.037-.223-8.638-4.207-11.681C448.84,353.041,449.434,354.736,453.473,358.955Z" transform="translate(106.069 -213.778)" fill="#fafafa"/>
    <path id="Pfad_261" data-name="Pfad 261" d="M507.409,373.374c.956-5.524-.738-8.286-5.777-9.538A16.1,16.1,0,0,0,507.409,373.374Z" transform="translate(101.431 -215.242)" fill="#fafafa"/>
    <path id="Pfad_262" data-name="Pfad 262" d="M396.486,365.42c1.748-5.771,1.171-8.576-2.191-11.412C393.169,358.088,393.207,361.766,396.486,365.42Z" transform="translate(110.977 -214.373)" fill="#fafafa"/>
    <path id="Pfad_263" data-name="Pfad 263" d="M475.116,360.929c.916-4.474-.031-7.754-4.122-10.745C470.69,354.876,471.268,358.323,475.116,360.929Z" transform="translate(104.145 -214.035)" fill="#fafafa"/>
    <path id="Pfad_264" data-name="Pfad 264" d="M460.132,347.1c-.851,4.978.539,8.355,4.265,11.8C464.97,353.86,464.054,350.353,460.132,347.1Z" transform="translate(105.12 -213.763)" fill="#fafafa"/>
    <path id="Pfad_265" data-name="Pfad 265" d="M-23.126,422.6.641,423.728C-7.433,421-15.277,421.707-23.126,422.6Z" transform="translate(147.812 -220.365)" fill="#fafafa"/>
    <path id="Pfad_266" data-name="Pfad 266" d="M309.165,447.935c1.823-3.461.862-6.631-.461-10.048C305.763,441.525,305.934,444.353,309.165,447.935Z" transform="translate(118.668 -221.787)" fill="#fafafa"/>
    <path id="Pfad_267" data-name="Pfad 267" d="M315.213,436.727c1.628-4.037,1.371-7.252-1.726-10.171C311.647,431.384,311.908,432.988,315.213,436.727Z" transform="translate(118.161 -220.785)" fill="#fafafa"/>
    <path id="Pfad_268" data-name="Pfad 268" d="M485.383,365.225c.732-5.193-.218-8.585-4.493-11.055C480.458,358.627,481.841,361.813,485.383,365.225Z" transform="translate(103.271 -214.388)" fill="#fafafa"/>
    <path id="Pfad_269" data-name="Pfad 269" d="M519.209,379.925c.444-4.2-.889-6.946-4.859-9.244C513.961,375.132,515.322,377.909,519.209,379.925Z" transform="translate(100.312 -215.847)" fill="#fafafa"/>
    <path id="Pfad_270" data-name="Pfad 270" d="M492.856,360.056a1.157,1.157,0,0,0-1,.51,6.681,6.681,0,0,0,.884,5.209,5.008,5.008,0,0,0,2.639,2.615,3.526,3.526,0,0,0,.722-3.674C495.615,362.78,494.825,360.962,492.856,360.056Z" transform="translate(102.313 -214.906)" fill="#fafafa"/>
    <path id="Pfad_271" data-name="Pfad 271" d="M323.946,412.6a1.729,1.729,0,0,0,1.7,1.24c.908-.1,1.137-.935,1.29-1.647.542-2.519-.089-4.774-1.948-7.2A6.983,6.983,0,0,0,323.946,412.6Z" transform="translate(117.196 -218.879)" fill="#fafafa"/>
    <path id="Pfad_272" data-name="Pfad 272" d="M263.59,313.664c1.758-.471-.472-2.348-.233-3.728-1.984-.111-4.066-2.066-6.066.518C258.913,312.479,261.078,314.339,263.59,313.664Z" transform="translate(123.027 -210.406)" fill="#fafafa"/>
    <path id="Pfad_273" data-name="Pfad 273" d="M266.136,309.708c1.278-1.661.15-3.142-.913-4.457-.9-1.119-2.409-2.176-3.51-1.36-1.739,1.291.164,2.583.786,3.784a9.676,9.676,0,0,0,1.252,1.63C264.568,309.466,265.463,310.584,266.136,309.708Z" transform="translate(122.699 -209.918)" fill="#fafafa"/>
    <path id="Pfad_274" data-name="Pfad 274" d="M264.012,309.857a.374.374,0,0,0-.042-.013l0,0a1.055,1.055,0,0,0-.028.151c.065,0,.13.011.2.01C264.1,309.957,264.054,309.908,264.012,309.857Z" transform="translate(122.439 -210.47)" fill="#fafafa"/>
    <path id="Pfad_275" data-name="Pfad 275" d="M-15.089,414.864H-.223A26.861,26.861,0,0,0-15.089,414.864Z" transform="translate(147.102 -219.659)" fill="#fafafa"/>
    <path id="Pfad_276" data-name="Pfad 276" d="M253.053,352.589c-.164,1.5.48,2.852,1.955,3.123,1.322.242,1.531-1.117,1.643-2.149a2.944,2.944,0,0,0-1.953-3.24C253.4,350.51,253.164,351.576,253.053,352.589Z" transform="translate(123.404 -214.048)" fill="#fafafa"/>
    <path id="Pfad_277" data-name="Pfad 277" d="M570.256,445.628c-.009-.078-.025-.152-.033-.232l.011-.015c-.077-.023-.142-.06-.217-.086.044.067.09.132.134.2C570.188,445.538,570.22,445.584,570.256,445.628Z" transform="translate(95.386 -222.442)" fill="#fafafa"/>
    <path id="Pfad_278" data-name="Pfad 278" d="M570.279,445.66c.57,4.713,4.312,7.613,6.517,11.386A42.425,42.425,0,0,0,570.279,445.66Z" transform="translate(95.363 -222.474)" fill="#fafafa"/>
    <path id="Pfad_279" data-name="Pfad 279" d="M258.061,352.385c-.078,1.458.526,2.887,2.079,3.063,1.331.15,1.48-1.215,1.635-2.48-.129-1.255-.577-2.725-2.124-2.9C258.387,349.932,258.114,351.382,258.061,352.385Z" transform="translate(122.959 -214.024)" fill="#fafafa"/>
    <path id="Pfad_280" data-name="Pfad 280" d="M250.225,351.3c-.442-.6-1.1-1.119-1.841-.435-2.184,2-.565,3.656.538,5.354a.4.4,0,0,1,.044.22C250.6,355.043,251.855,353.531,250.225,351.3Z" transform="translate(123.91 -214.067)" fill="#fafafa"/>
  </g>
</svg>
