<svg xmlns="http://www.w3.org/2000/svg" viewBox="0 0 230.26 176.49"><defs><style>.cls-1{fill:#50533c;}.cls-2{fill:#fbfbfa;opacity:0.2;isolation:isolate;}</style></defs><g id="Ebene_2" data-name="Ebene 2"><path class="cls-1" d="M229,148.93a8.19,8.19,0,0,1-.68-.47,20,20,0,0,1-5.09-6.21c-.74-1.42-1.45-2.66-2.18-3.82a13.85,13.85,0,0,0-5.2-4.91,25.76,25.76,0,0,1-5.64-4.6h0c-.56-.55-1.14-1.13-1.74-1.69a21,21,0,0,1,2.63-.14h0a16.59,16.59,0,0,0,2.9-.22l.15,0a10.12,10.12,0,0,0,3.09-1l.14-.07c.38-.21.8-.43.7-.94s-.61-.52-1-.55h0c-4.4-.38-7.72-2.88-10.64-5.52a9.88,9.88,0,0,1-3.59-6.4c-.22-2-1.45-3.44-2.65-4.88h0l-.48-.58a2.31,2.31,0,0,1-.36-2.89,39.58,39.58,0,0,1,4.84-7.81,34.73,34.73,0,0,0,4-6,21.85,21.85,0,0,0,2.27-6.85,20,20,0,0,0-.94-9.75,31.36,31.36,0,0,0-4.78-8.52,41.68,41.68,0,0,0-4.11-4.49l-.11-.11c-5.88-5.83-11.51-11.88-16.72-18a34.94,34.94,0,0,1-6.15-10.14,7.79,7.79,0,0,0-3-3.53,40.2,40.2,0,0,1-7.31-6.66,13.64,13.64,0,0,0-7.82-4.6,3.36,3.36,0,0,0-.63-.06,1.58,1.58,0,0,0-.53.07,44.07,44.07,0,0,0-8.09-3.29h0A10.09,10.09,0,0,0,148,11.47a52.18,52.18,0,0,0-11.4-8.41c-2.93-1.58-6.25-2-9.46-2.46l-1.8-.25a32.22,32.22,0,0,0-4.7-.35,30.65,30.65,0,0,0-10.55,1.9,16.86,16.86,0,0,1-4.89.75c-.94.05-1.9.1-2.84.24-4.61.68-10,1.54-15.4,2.68-.85.19-1.69.42-2.52.68H84.4l-.05,0a30.08,30.08,0,0,0-4.83,1.94,132.79,132.79,0,0,0-21,13,15.16,15.16,0,0,0-2.12,1.88,1.85,1.85,0,0,1-1.33.75,2,2,0,0,1-1.34-.68c-.29-.27-.56-.56-.82-.85h0c-.18-.19-.36-.39-.54-.57l-.12-.13c-.13-.16-.27-.32-.47-.32a.46.46,0,0,0-.22.06c-.31.18-.27.53-.23.86v0a38.39,38.39,0,0,1,.24,7.11c-.74-.81-1.44-1.66-2.1-2.54-1.42-1.85-2.76-3.6-5-4.54A43,43,0,0,0,46.27,27a34.92,34.92,0,0,1,2,5.72,20.63,20.63,0,0,1-2.13-2.35,10.5,10.5,0,0,0-4.46-3.78,1.5,1.5,0,0,0,.22,1.2,2.44,2.44,0,0,1,.14.28c.35.79.71,1.59,1.06,2.36a58.45,58.45,0,0,1,2.75,6.79,11,11,0,0,1,.33,6.55,5.34,5.34,0,0,0-.25,1.54,10.2,10.2,0,0,1-1.16,4.84A14,14,0,0,1,41.65,54c-.9.81-1.73,1.72-2.54,2.6l-.14.15a23.49,23.49,0,0,1-7.82,5.51A59.71,59.71,0,0,0,17.55,71l-.18.15h0c-.58.46-1.18.94-.59,1.92.24.42-.09.66-.42.89l-.26.2c-2.4,2.12-4.95,4.15-7.41,6.11h0c-1.21,1-2.46,1.95-3.68,2.95l-.6.45c-.94.67-1.92,1.36-1.63,2.91.06.29-.51.74-.92,1.07l-.07.06C-.07,89.22-.47,91.08.53,93.61A13.11,13.11,0,0,0,3,97.73,62.46,62.46,0,0,1,7.19,103a16.35,16.35,0,0,1,2.71,8.73l-.28-.37a4.18,4.18,0,0,0,.65,3.87c2.88,3.67,5.52,6.52,9.05,8.47a2,2,0,0,0,1.07.31,2,2,0,0,0,.68-.12,2.43,2.43,0,0,1,.76-.13,2.33,2.33,0,0,1,1.85,1.06,7.73,7.73,0,0,1,1.43,7.09c-.12.42-.25.85-.38,1.26v0c-.23.73-.47,1.49-.66,2.25a5.42,5.42,0,0,0,1.39,5.62,30.74,30.74,0,0,1,5.3,7c2.1,3.67,5.62,6,8.75,7.92l.66.39a18.66,18.66,0,0,1,3.21,2.24l.11.11a1,1,0,0,0,.62.37.51.51,0,0,0,.21-.06c7.85,6.43,20.69,13,26.77,15.9.45.55.92,1.08,1.41,1.6h150c0-.22.1-.45.16-.69.36-1.5.79-3,1.2-4.48a58.69,58.69,0,0,0,2-8.87,21,21,0,0,0-.19-7.16,13.16,13.16,0,0,0-3.36-6.34.6.6,0,0,1-.11-.26c0-.07-.05-.18-.1-.31a20.18,20.18,0,0,0,5,2.22l.46.11a6.72,6.72,0,0,0,1.55.28,1.09,1.09,0,0,0,1-.5C230.51,149.89,229.76,149.4,229,148.93ZM35.39,63.34Z"/></g><g id="Ebene_1" data-name="Ebene 1"><path id="Differenzmenge_1" data-name="Differenzmenge 1" class="cls-2" d="M113.06,176.47h-6.49a2.87,2.87,0,0,0,.19-2.36.71.71,0,0,0-.65.42,10.44,10.44,0,0,1-1.43,1.94h-3.93c.13-.19.24-.38.38-.6l.1-.16c.25-.39.56-.87.21-1.25a.41.41,0,0,0-.31-.14,1.66,1.66,0,0,0-.66.22l-.32.14a24.1,24.1,0,0,1-7,1.72h0l-.66,0a3.15,3.15,0,0,1-2.17-.68,6,6,0,0,1,2.66-1.08l.81-.19a19.38,19.38,0,0,0,10.38-6.31,7.62,7.62,0,0,0,1.39-7.47c-.2-.67-.44-1.43-1.32-1.69a67.2,67.2,0,0,1-2.54,8.92,9.07,9.07,0,0,1-8.1,5.64h-.63c-.47,0-1,0-1.16-.54s.29-.75.68-1h0l.23-.13a10.65,10.65,0,0,1,1-.57h0a5.59,5.59,0,0,0,2-1.41c1.87-2.37,3.64-5,3.93-8.34a24.38,24.38,0,0,0-1.07-10.49c-.56-1.59-1-2.06-2.35-2.41.18.54.38,1.07.58,1.58a17.48,17.48,0,0,1,1,3.16,17,17,0,0,1-9,18.4l-.62.32h0a8.19,8.19,0,0,0-2.09,1.34.9.9,0,0,0,.67.29l.33,0h0a1.24,1.24,0,0,1,.27,0h0a2.07,2.07,0,0,0,.35,0,2,2,0,0,1,.35,0,.43.43,0,0,1,.46.26c.18.48-.24.69-.62.87l-.19.1a15.75,15.75,0,0,1-4.15,1.61H78.32a15.74,15.74,0,0,0-2.25-.29H76l-.28,0a.51.51,0,0,0-.55.32H72.49a29.3,29.3,0,0,1-2.34-2.77c-.42-.56-.55-1-.4-1.3s.64-.5,1.43-.52l2.63,0h4.62c4.43-.06,8.46-1.72,12.34-5.08a8.25,8.25,0,0,0,3-4.73c.87-5.12.7-9.27-.54-13a5.13,5.13,0,0,0-5.11-3.85,7.49,7.49,0,0,0-1.64.18,13.64,13.64,0,0,0-3.71,1.4,33.3,33.3,0,0,0-7.44,5.42c-.1.1-.2.22-.29.32a1.73,1.73,0,0,1-1.24.8,2.26,2.26,0,0,1,0-1.21h0c0-.07,0-.15,0-.23.48-3.09,2.45-5.17,4.31-6.8,4.94-4.34,11-6.88,18.42-7.75h.13a20.38,20.38,0,0,1,2.2-.18,6.19,6.19,0,0,1,2.3.4l.16,0c.38.14.86.31.8.83s-.48.5-.85.58l-.18,0a36.94,36.94,0,0,1-4.92.73l-1.55.17-.75.07h0a6.37,6.37,0,0,0-2.47.53,1.64,1.64,0,0,0,.91.57,1.83,1.83,0,0,1,.28.1,44.24,44.24,0,0,1,7.22,3.61,24.45,24.45,0,0,1,6.06,5.32,6.25,6.25,0,0,0,3.67,2.25,8.81,8.81,0,0,1,6,4.53l0,.06c.1.18.2.36.44.36h0a3.79,3.79,0,0,0,.12-2.57,18.07,18.07,0,0,0-2.15-5.52,20.23,20.23,0,0,0-3.78-4.57c-.15-.14-.31-.27-.47-.4h0c-.24-.2-.48-.4-.7-.62a1.16,1.16,0,0,0-.24-.2c-.27-.21-.56-.43-.34-.79a.48.48,0,0,1,.48-.22,2.24,2.24,0,0,1,.51.07l.2,0a12.18,12.18,0,0,1,3.75,1.29,38.82,38.82,0,0,1,8.75,6.49,19.92,19.92,0,0,1,3.88,5,12.36,12.36,0,0,1,1.39,6.17,3.62,3.62,0,0,0,.13,1,2.19,2.19,0,0,1,0,.36c0,.27,0,.56.29.65l.17,0c.25,0,.4-.22.55-.44a1.54,1.54,0,0,1,.23-.29,3.14,3.14,0,0,0,.45-.57c.27-.4.55-.8,1-.8l.24,0a2.21,2.21,0,0,0,.66.13c.65,0,.71-.55.76-1.12h0l0-.26a27.45,27.45,0,0,0-.42-10.14l0-.12c-.08-.29-.17-.62.1-.81a.55.55,0,0,1,.3-.11,1.11,1.11,0,0,1,.65.36l0,0a6.75,6.75,0,0,1,2.37,3.79c1.07,5.45,1.44,11.7-3.91,16.66a30.36,30.36,0,0,0-3.73,4.27,27.79,27.79,0,0,0-1.6,2.4h-3.54a15.83,15.83,0,0,1,3-4.15h0a4.14,4.14,0,0,0,1.41-2.44l-.48.17-.12,0h0c-.4.13-.74.25-1.08.38l-2.71,1.09-.24.1-3,1.19h0a2,2,0,0,1-.62.17.5.5,0,0,1-.4-.19c-.24-.31,0-.58.2-.83l.12-.16,1.6-2.12h0c.88-1.16,1.79-2.35,2.63-3.55a8.7,8.7,0,0,0,1.59-5.12,8.8,8.8,0,0,0-1.64-5.1c-.08-.11-.17-.24-.25-.37h0c-.33-.51-.7-1.09-1.21-1.09a1.09,1.09,0,0,0-.26,0c-.5.17-.46.82-.42,1.45,0,.21,0,.42,0,.64s0,.64,0,1,0,.69,0,1a12.47,12.47,0,0,1-2.36,6.87l-.12.16v0c-.26.37-.54.75-1,.75l-.19,0c-.5-.11-.65-.58-.8-1a1.46,1.46,0,0,0-.07-.19,18.11,18.11,0,0,0-3.37-5.87c-2-2.23-4.58-3.2-7.12-3.92a36.48,36.48,0,0,1,3.76,7,41.18,41.18,0,0,1,2.21,7.27,1,1,0,0,0,.63-.38c.15-.15.28-.29.46-.29a.48.48,0,0,1,.23.07,1.43,1.43,0,0,1,.61,1.37c0,1.94,0,4-.06,6.12Zm103.29,0h-7.29a41.19,41.19,0,0,0,3.5-4.29,15,15,0,0,0,2.57-6.47,16.08,16.08,0,0,0-.68-6.92c0-.07,0-.14-.07-.22h0a1.68,1.68,0,0,0-1-1.35,17.85,17.85,0,0,0-.69,4c-.06.65-.12,1.32-.22,2a31.41,31.41,0,0,1-1.91,7.19,19.14,19.14,0,0,1-4,6.13h-9.5a49.79,49.79,0,0,1,5.05-7.34,21.83,21.83,0,0,0,3.36-5.42,24.43,24.43,0,0,0,1.73-6.1,22.58,22.58,0,0,0-.14-8.63,15.86,15.86,0,0,0-4.2-7.56,10.34,10.34,0,0,1-.78-1l-.11-.14,0-.05c-.19-.26-.4-.54-.17-.85a.54.54,0,0,1,.47-.22,2.34,2.34,0,0,1,.45.07,4.86,4.86,0,0,1,2.19,1.4l.15.14c1.44,1.33,2.86,2.67,4.36,4.09h0l1.93,1.83a32.11,32.11,0,0,1-.91-5.84,15.11,15.11,0,0,0-3.8-9.56l-.86-1-.23-.25h0c-1.42-1.62-2.9-3.29-4.32-5a6.38,6.38,0,0,0-.51-.53c-.55-.52-1.11-1.06-.85-1.6a.52.52,0,0,1,.53-.28,3.69,3.69,0,0,1,.88.16,3.72,3.72,0,0,0,.94.18c.18,0,.38,0,.58,0s.43.05.64.05a1.12,1.12,0,0,0,1-.47c.38-.62-.08-1.11-.53-1.58h0a3.91,3.91,0,0,1-.37-.44c-.64-.86-1.34-1.7-2-2.52-1.82-2.17-3.7-4.43-4.65-7.5a53.34,53.34,0,0,0-2.35,6.2,1,1,0,0,0,.12.69c1.42,3.27.94,6.54.27,9.3a14.46,14.46,0,0,0,.36,8.24c.83,2.38,1.89,5.53,2.72,8.8a24,24,0,0,1,.28,11A27.77,27.77,0,0,1,193.75,165l-.19.28c-.35.53-.8,1.2-1.27,1.2a.54.54,0,0,1-.25-.06c-.69-.36-.37-1.1-.09-1.76a3.89,3.89,0,0,0,.2-.52,15.48,15.48,0,0,0,.92-5.84c-.23-3.22-.91-7.32-4.16-10.4l-.06-.06c-.46-.43-1-1-1.59-1a.8.8,0,0,0-.4.11c-.44.25-.21.83,0,1.39.07.18.14.36.2.55a25,25,0,0,1-3.88,21.7,7.78,7.78,0,0,1-2.19,2.2l-.22.16h0a1.31,1.31,0,0,1-.72.34.56.56,0,0,1-.31-.09c-.38-.23-.32-.6-.25-1a2.09,2.09,0,0,0,0-.34c.05-.89.12-1.79.18-2.66h0c.11-1.63.22-3.31.26-5,.05-1.84-.71-3.41-2.54-5.26a80.38,80.38,0,0,0-.16,8.36c0,.61,0,1.31,0,2a5.59,5.59,0,0,1-.58,2.57,43.57,43.57,0,0,1-2.56,4.58H169c.38-1.4.68-2.56,1-3.66a17.17,17.17,0,0,0-.19-8.83,2.82,2.82,0,0,1-.07-.31c-.11-.48-.22-1-.87-1.17,0,.07-.07.14-.1.2h0a2.25,2.25,0,0,0-.19.45l-.06.23,0,0a15.25,15.25,0,0,0-.35,1.52A28.15,28.15,0,0,1,164,176.47h-4.41a33.78,33.78,0,0,1,2.72-7.15,21,21,0,0,0,2.29-11.11,14.12,14.12,0,0,1,0-1.84c0-.1,0-.2,0-.3,0-.34,0-.69.3-.85a.59.59,0,0,1,.23-.05,1,1,0,0,1,.66.38l.2.17a25.52,25.52,0,0,1,7.43,9.19,1.33,1.33,0,0,1,.09.21,1.5,1.5,0,0,0,1,1,95.06,95.06,0,0,0-.1-16.53A12.9,12.9,0,0,1,176.7,152l.28.35c1.88,2.26,3.76,4.54,5.59,6.79.3.37.55.55.77.55s.48-.25.67-.81a10.54,10.54,0,0,0,.53-3.48,39.4,39.4,0,0,0-.74-6.77c-.07-.37-.13-.74-.19-1.1a29.94,29.94,0,0,1-.49-8.18v-.1c.06-.6.14-1.27.77-1.44l.16,0c.34,0,.54.32.72.64a3.78,3.78,0,0,0,.22.33,37.43,37.43,0,0,0,3.26,3.75,5.36,5.36,0,0,0,3.78,1.37c-.15-.33-.29-.64-.41-.92-.26-.6-.5-1.16-.79-1.69a9.8,9.8,0,0,1-.65-6.9,17.61,17.61,0,0,1,.88-2.75l.12-.34a22.78,22.78,0,0,0,1.15-8.51v-.17h0c0-.29,0-.58-.28-.72a.56.56,0,0,0-.21-.06c-.2,0-.32.17-.44.32s-.09.12-.14.17a24.73,24.73,0,0,1-4.24,3.09l-.95.61a7.06,7.06,0,0,0-1.67,1.31c-3.22,3.67-6.46,7.68-7.58,12.8a7.78,7.78,0,0,1-2.64,4.69,9.86,9.86,0,0,1-5.2,1.79c-.52.05-1,.07-1.48.07a8.43,8.43,0,0,1-4.6-1.17,9.06,9.06,0,0,1-3.24-3.7c-1.92-3.65-4.14-7.48-7.17-12.4a59.12,59.12,0,0,1-5-10.1,80.56,80.56,0,0,1-3.24-10.78c-1.41-6.1-.41-11.38,3.07-16.14l1-1.47h0c.35-.51.71-1,1.08-1.55a39.52,39.52,0,0,0,7.67-17.78c.83-5.55,1.25-12.78-2.89-19.47a38.45,38.45,0,0,0-5-6,45.91,45.91,0,0,1-4.76-5.65,3.43,3.43,0,0,0-.25,2.07v.12a11.54,11.54,0,0,0,2.2,5,55.79,55.79,0,0,1,7.75,18.77c1.52,6.68.16,11.94-4.16,16.07-1,1-1.94,2-2.84,3h0c-.33.37-.66.75-1,1.12a23,23,0,0,0-3.77,5.72,25.53,25.53,0,0,0-2,6.56,77.72,77.72,0,0,0-.81,8.48c-.07,1.16-.14,2.35-.24,3.51a12.66,12.66,0,0,1-1.31,5.15,7.91,7.91,0,0,1-3.94,3.56c-1.16.52-2.33,1.09-3.45,1.65h0c-1.46.72-3,1.46-4.49,2.09a16.21,16.21,0,0,1-6.33,1.67,7.6,7.6,0,0,1-1.35-.1,1,1,0,0,1-.17,0h0a2.63,2.63,0,0,0-.39-.06.44.44,0,0,0-.44.29c-.15.35.12.61.36.84h0l.1.1a20.55,20.55,0,0,0,5.23,3.62l.94.5a23.74,23.74,0,0,1,3.59,2.16h0c.4.31.85.66.65,1.27s-.69.63-1.15.67c-1.25.12-2.47.21-3.7.21a13.74,13.74,0,0,1-5.27-.9,72.15,72.15,0,0,1-7.53-3.34l-.29-.17a1.94,1.94,0,0,0-.9-.37.58.58,0,0,0-.36.12c-.43.33-.18.79,0,1.19a2.31,2.31,0,0,1,.18.35,1.07,1.07,0,0,1,0,1c-.14.21-.44.32-.93.34-.17,0-.34,0-.5,0s-.4,0-.6,0H107a38.16,38.16,0,0,0-10.3,1.48,68.84,68.84,0,0,0-9.76,3.62,23.67,23.67,0,0,0-8.5,5.8,7,7,0,0,1-1.11.93l-.09.07a1.42,1.42,0,0,1-.84.31.81.81,0,0,1-.5-.14c-.47-.3-.3-.78-.16-1.18l0-.11c1.25-3.68.92-7.45.42-10.66a6.8,6.8,0,0,0-1.66-4.06c0,.34-.06.65-.1,1-.06.6-.11,1.12-.14,1.65-.1,2.21-.2,4.58-.26,6.94a15.66,15.66,0,0,1-2.17,7.26,2.09,2.09,0,0,0-.14.3c-.19.41-.39.83-.82.83s-.75-.53-.92-1l-.1-.24c-.54-1.27-1.06-2.56-1.57-3.8s-1-2.44-1.51-3.67a7.1,7.1,0,0,0-1.45-2.36,7.59,7.59,0,0,0,.61,2.38c.06.17.13.33.19.5.38,1.08.8,2.21,1.16,3.2h0c.51,1.39,1,2.83,1.54,4.25l.08.21c.17.42.38.94-.08,1.22a.67.67,0,0,1-.34.1c-.33,0-.6-.3-.84-.57h0a2,2,0,0,0-.2-.21,26.36,26.36,0,0,1-3.24-4.12c-1-1.44-1.84-3-2.67-4.5h0c-.67-1.23-1.37-2.49-2.13-3.69l-.18-.3a2,2,0,0,0-1.06-1.07,1.7,1.7,0,0,1,0,.26,1.15,1.15,0,0,0,0,.37l.2.66,0,.13a57.87,57.87,0,0,0,2.52,7.42,20.09,20.09,0,0,0,4.42,6.51A20.88,20.88,0,0,1,68.84,153c0,.08.1.15.15.24.23.32.47.67.18,1a.33.33,0,0,1-.29.13,1.17,1.17,0,0,1-.54-.19,2.41,2.41,0,0,0-.33-.15c-.22-.07-.44-.15-.63-.23a8.59,8.59,0,0,0-1.39-.43,9.83,9.83,0,0,1-5.92-3.64,28.81,28.81,0,0,1-4.37-7.43l0,0a27.11,27.11,0,0,0-2.51-4.88l-.1-.15h0c-.21-.31-.44-.67-.79-.67l-.15,0c-.48.14-.42.61-.37,1a1.8,1.8,0,0,1,0,.22,19.69,19.69,0,0,0,3,8.62,2,2,0,0,0,.24.33,1.07,1.07,0,0,1,.32,1.15l-.16,0a1.24,1.24,0,0,1-.71-.29l-.06,0a24.43,24.43,0,0,1-5.8-6.28l-.35-.49a7.22,7.22,0,0,0,1.49,3.74l0,0c.09.13.17.26.25.39,1.6,2.56,3.43,5,5.2,7.42l.85,1.16.1.13h0c.23.29.49.62.19,1a.41.41,0,0,1-.3.14,1.23,1.23,0,0,1-.5-.16l-.25-.11A10.09,10.09,0,0,1,54,154a7.81,7.81,0,0,0-2.32-.85A8.51,8.51,0,0,0,53,155.07a10.34,10.34,0,0,1,.89,1.2,3.38,3.38,0,0,1,.31,3.6,1.88,1.88,0,0,0-.18-.12c-.1-.06-.18-.1-.21-.17-1.35-3.14-4-5.05-6.54-6.9a8.43,8.43,0,0,1-2.54-2.9,8.83,8.83,0,0,1-.94-3.78c0-1.17-.06-2.36-.09-3.51v-.06c0-1.47-.07-3-.12-4.5a1.48,1.48,0,0,1,0-.21c0-.28.06-.6-.42-.75a7.05,7.05,0,0,0-1,3.18c-.11.68-.18,1.38-.24,2.06-.06.52-.1,1.06-.18,1.6a.77.77,0,0,1,0,.15c0,.37-.08.83-.55.85h0c-.48,0-.63-.55-.73-.91-.24-.86-.41-1.56-.53-2.2s-.26-1.33-.37-1.88c-.42-2.12-.86-4.3-1.08-6.49a1.19,1.19,0,0,0-.47-1,.66.66,0,0,0-.2-.06c-.21,0-.36.22-.47.4l-.35.59c-1.06,1.76-2.15,3.57-.83,5.82a5.24,5.24,0,0,1,.6,1.88,15.17,15.17,0,0,0,2.94,6.69l.18.25h0c.29.41.58.83.84,1.26a.88.88,0,0,1,.13.65.43.43,0,0,1-.43.24L40,150A3.3,3.3,0,0,1,38.33,149a20.44,20.44,0,0,1-2.9-4l-1.33-2.3c-.66-1.14-1.33-2.32-2-3.47L32,139c-.16-.3-.36-.66-.69-.66a.53.53,0,0,0-.24.06,1.19,1.19,0,0,0-.5,1.6,19.84,19.84,0,0,0,1.85,3.35l.15.22,0,.07a11.72,11.72,0,0,1,1.57,2.94,8.57,8.57,0,0,0,2.78,4c.71.62,1.45,1.25,2.11,1.8,1.15,1,2.46,2.1,3.71,3.19a6,6,0,0,1,1.68,2.09c.15.36.36.85,0,1.19a.48.48,0,0,1-.35.16,1,1,0,0,1-.62-.37l-.11-.11a18.66,18.66,0,0,0-3.21-2.24l-.66-.39c-3.13-1.91-6.65-4.25-8.75-7.92a30.74,30.74,0,0,0-5.3-7,5.42,5.42,0,0,1-1.39-5.62c.19-.76.43-1.52.66-2.25v0c.13-.41.26-.84.38-1.26a7.73,7.73,0,0,0-1.43-7.09,2.33,2.33,0,0,0-1.85-1.06,2.43,2.43,0,0,0-.76.13,2,2,0,0,1-.68.12,2,2,0,0,1-1.07-.31c-3.53-2-6.17-4.8-9-8.47a4.18,4.18,0,0,1-.65-3.87l.28.37h0l.36.48a21.33,21.33,0,0,0,3.44,4.14l.11.12c.13.13.28.29.46.29a.45.45,0,0,0,.25-.09c.23-.17.19-.46.15-.73h0s0,0,0-.06a1.5,1.5,0,0,0-.06-.29,1.4,1.4,0,0,1-.06-.41,1.46,1.46,0,0,0-.12-.5c-.12-.32-.23-.63.12-.77a.69.69,0,0,1,.24,0c.45,0,.74.52,1,.93l0,0a3,3,0,0,1,.38,1.2,2.63,2.63,0,0,0,1.16,2,16,16,0,0,0,3.59,2l.12,0a1.07,1.07,0,0,0,.38.13.42.42,0,0,0,.28-.14c.19-.23.05-.47-.08-.69h0a.35.35,0,0,1-.05-.08c-.31-.58-.63-1.16-.94-1.71-.48-.87-1-1.76-1.42-2.65l0,0a2.16,2.16,0,0,1-.2-2.1,11.57,11.57,0,0,1,3.2,4.07c1.41,3,4,4.66,6.53,6.3l.1.06a.9.9,0,0,0,.48.21.45.45,0,0,0,.2,0c.32-.16.26-.42.2-.68a1.38,1.38,0,0,1,0-.2,8.79,8.79,0,0,0-3-5.48l0,0a14.28,14.28,0,0,1-2.16-2.37.86.86,0,0,1-.18-.64.37.37,0,0,1,.4-.26.87.87,0,0,1,.32.06l.36.12a10.94,10.94,0,0,1,2,.8A46.82,46.82,0,0,1,37.49,122a2.49,2.49,0,0,1,.22.23c.23.26.5.56.81.56a.55.55,0,0,0,.34-.13c.43-.33.14-.91-.09-1.38l-.09-.18c-.26-.55-.54-1.1-.8-1.63v0c-.22-.42-.46-.91-.69-1.4l-.07-.12h0c-.2-.42-.45-.93-.15-1.19s.43-.45.42-.64-.24-.43-.47-.6a1.71,1.71,0,0,1-.26-.21c-.4-.39-.83-.77-1.25-1.14h0a19.43,19.43,0,0,1-2.59-2.62,3,3,0,0,0-.23-.27c-.33-.34-.69-.72-.32-1.16a.55.55,0,0,1,.44-.18,2.19,2.19,0,0,1,.83.23h0l.19.08a22.13,22.13,0,0,1,4.68,2.37,15.18,15.18,0,0,1,3.79,3.58,36.19,36.19,0,0,0,3.82,4.2l1.29,1.29c0,.06.1.11.15.17.34.36.77.81,1.15.81a.46.46,0,0,0,.3-.11c.41-.32.12-.74-.17-1.13a2.64,2.64,0,0,1-.34-.55,13.13,13.13,0,0,0-1.65-2.8,17.15,17.15,0,0,1-1.63-2.6,33.76,33.76,0,0,1,4.94,1.36q.88.3,1.68.54c-1.38-3.38-4.1-5.47-7-7.68h0a42.66,42.66,0,0,1-3.95-3.28,34.6,34.6,0,0,0,3.93.79h0a27.74,27.74,0,0,1,4.7,1,23.2,23.2,0,0,1,6.42,3A41.05,41.05,0,0,0,66.08,116h0c1.08.4,2.19.8,3.27,1.24a3.5,3.5,0,0,0,1.35.27,6,6,0,0,0,1-.1c-2.87-2.72-6.28-4.38-9.58-6A52,52,0,0,1,56,108.18a.76.76,0,0,1,.61-.36.84.84,0,0,1,.27,0h0l1.89.43a41.82,41.82,0,0,1,9.12,2.8l5.67,2.77,5.67,2.76a2,2,0,0,1,.25.14,1.73,1.73,0,0,0,.9.3,1.49,1.49,0,0,0,.47-.07l-1.5-1.43c-1.06-1-2.06-2-3.09-2.93a22.85,22.85,0,0,0-8.6-5.06c-1.23-.4-2.52-.8-3.65-1.15a96.93,96.93,0,0,1-10.57-3.76A13.73,13.73,0,0,1,47,97.51l-.19-.27h0c-.26-.35-.54-.71-.3-1.23h.1a2.11,2.11,0,0,1,1.32.61c3.72,3.07,8.17,4.52,12.42,5.75l.88.25a55.2,55.2,0,0,1,11,4,18.61,18.61,0,0,0,8.4,2.36c2.65.08,4.43,1.56,6,3.16s3.09,3.32,4.56,5l2.49,2.75.36.4h0a6.5,6.5,0,0,0,2.34,1.92c0-.1,0-.19,0-.27h0a1.65,1.65,0,0,0,0-.38c-.18-.47-.39-.92-.57-1.3a33.83,33.83,0,0,0-6.1-8.29,7.36,7.36,0,0,1-2.19-3.74A5.86,5.86,0,0,0,85,104.39a34.66,34.66,0,0,0-5-3.09c-.6-.32-1.21-.66-1.8-1a2.44,2.44,0,0,0-.28-.14h0A1.73,1.73,0,0,1,76.76,99c4.33.8,7.86,1.76,11,3.85a3.91,3.91,0,0,1,1.58,2.45,6.17,6.17,0,0,0,2,3.2,24.58,24.58,0,0,0,4.51,3.42L96,112a1,1,0,0,0,.53.22.84.84,0,0,0,.4-.14,10.5,10.5,0,0,0-1.38-2.86,10.47,10.47,0,0,1-1.41-3c2.84,1.53,4.76,4,6.6,6.4a35,35,0,0,0,3.78,4.37c-.21-.66-.47-1.3-.72-1.93h0c-.24-.56-.47-1.15-.67-1.73a15.5,15.5,0,0,0-5.76-8c-1.06-.77-2.06-1.65-3-2.5l0,0c-.46-.4-.69-.74-.7-1a.41.41,0,0,1,.12-.31c.88-.91.43-1.57,0-2.2a4.17,4.17,0,0,1-.38-.61,1.91,1.91,0,0,0-.16-.27c-.2-.34-.41-.68-.13-1a.53.53,0,0,1,.45-.2,1.82,1.82,0,0,1,.76.23h0l.07,0c1.36.6,2.73,1.23,4,1.84l0,0,.18.08c3.06,1.41,6.42,1.78,9.67,2.13h0a4.57,4.57,0,0,0-2.44-1.88,3.89,3.89,0,0,1-2.24-1.43,3.54,3.54,0,0,1-.2-2.58,1.76,1.76,0,0,0-.56-1.78,31.4,31.4,0,0,0-8.15-5.86C92,86.82,89,85.67,85.1,84.31l-.24-.1h0a1.23,1.23,0,0,0-.5-.16.41.41,0,0,0-.3.14c-.31.35,0,.73.16,1h0l.07.1a6.93,6.93,0,0,0,3.16,2.31c1.18.54,2.39,1.07,3.55,1.58h0c1.34.58,2.73,1.19,4.08,1.81,2.19,1,3.11,3,3.77,5l-1.63-.89a48.25,48.25,0,0,0-5.73-2.81A19.17,19.17,0,0,0,84.62,91l-1.05,0a34.88,34.88,0,0,0,3.78,2.51,3.47,3.47,0,0,1,1.91,3,1.4,1.4,0,0,1-.2,1,.39.39,0,0,1-.3.12,1.63,1.63,0,0,1-.82-.32c-1-.63-2-1.22-3-1.79a39,39,0,0,1-5.17-3.34l-1.23-1c-2.32-1.91-4.72-3.88-7.7-4.92a1.82,1.82,0,0,1-1.12-.74.57.57,0,0,1,0-.48.71.71,0,0,1,.74-.48,3.79,3.79,0,0,1,.88.16l.14,0a25.81,25.81,0,0,1,2.57.81c.87.32,1.74.67,2.59,1h0l2.13.83.18.07a2.33,2.33,0,0,0,.86.22,1.38,1.38,0,0,0,.66-.17A7.23,7.23,0,0,0,78,86c-.35-.17-.71-.35-1.05-.54-.11-.07-.24-.13-.36-.19-.49-.24-1-.49-1-1.1-.08-1.23-1-1.55-1.83-1.86a20.68,20.68,0,0,1-4.64-2.11l-.16-.1c-.35-.22-.75-.47-.59-1s.68-.55,1.15-.59h0l.62,0a10.55,10.55,0,0,1,3.3.58c.82.27,1.64.57,2.43.87h0c.6.22,1.22.45,1.84.66l.23.1h0a1.39,1.39,0,0,0,.6.17.53.53,0,0,0,.45-.23c.37-.48,0-.89-.27-1.25h0l-.1-.12a14.18,14.18,0,0,0-1.81-2c-3.7-3.16-5.68-7.45-6.06-13.14a10,10,0,0,0-.6-2.75c-.37-1.05-.52-1.64-.29-2s.84-.54,2-.72a9.73,9.73,0,0,1,1.43-.1,13,13,0,0,1,1.4.08l.29,0a5.14,5.14,0,0,0,.55.06,1.49,1.49,0,0,0,.66-.15c-1.73-2.15-3.72-3.24-5.9-3.24A9.37,9.37,0,0,0,64.22,58l-.44.4h0a14.5,14.5,0,0,1-2.3,1.82c-2.26,1.34-4.63,2.6-6.92,3.81-2.64,1.41-5.38,2.86-8,4.46a9.31,9.31,0,0,1-2,.81,39.47,39.47,0,0,0-5.26,2.15l-.23.12A2.47,2.47,0,0,1,38,72a2.35,2.35,0,0,1-.53-.09,4.74,4.74,0,0,1,1.68-1.53h0l.14-.09,1.54-1c2.25-1.42,4.58-2.89,6.72-4.54l3.05-2.38h0A113.51,113.51,0,0,1,62.32,54a6.41,6.41,0,0,0,.58-.45h0a4.78,4.78,0,0,1,.42-.34,2.22,2.22,0,0,0,1-2.31,18.89,18.89,0,0,1-.14-4.25c.34-3.7.68-7.33,1-11a5,5,0,0,1,1.43-3.45c2.7-2.52,4.6-5.71,6.17-10.35a12.39,12.39,0,0,1,6.43-7.07A52.84,52.84,0,0,1,85.7,12l1.83-.65a77.91,77.91,0,0,0,12.09-5l.28-.14a1.53,1.53,0,0,0,.86-.7,47.73,47.73,0,0,0-9.44,1.26,46.94,46.94,0,0,0-8.63,3,51.06,51.06,0,0,0-7.91,4.59,64.26,64.26,0,0,0-7.27,6,3.69,3.69,0,0,0-1.26,2.45,18.65,18.65,0,0,1-2.63,8.17,26.72,26.72,0,0,0-2.48,5.85c-.23.75-.48,1.51-.72,2.24l0,.06c-.1.33-.21.65-.32,1l-.14,0-.19,0c0-.53,0-1.06.08-1.62s.06-1.42.1-2.26c-1.37,1.42-2.65,3-2.73,5.26a6.43,6.43,0,0,1-1.15,3.44c-.06.1-.11.2-.16.3-.16.3-.31.6-.61.6l-.17,0c-.38-.13-.33-.5-.3-.87a2.68,2.68,0,0,0,0-.4,7.41,7.41,0,0,1,.06-1.33,6,6,0,0,0-.09-2.39,14.84,14.84,0,0,0-.94,2.16,8.1,8.1,0,0,1-1.5,2.86c-1.45,1.56-2.77,3.29-4,5h0c-.87,1.14-1.76,2.31-2.7,3.43C40.1,60.66,34.52,64.71,28.05,66.83c-3.48,1.14-6.24,3.58-8.48,5.82,0,0-.1.1-.15.15a.81.81,0,0,0-.38.92c.52-.14,1.05-.26,1.56-.37a10.35,10.35,0,0,0,4.94-2.08,33.34,33.34,0,0,1,3.6-2.65h0l1.22-.83a4.72,4.72,0,0,1,2.84-1h0A4.17,4.17,0,0,1,32,68.15l0,0-.17.12a34.31,34.31,0,0,0-5.28,4.94c-.05.05-.09.1-.15.15-.24.26-.53.56-.31.94a.5.5,0,0,0,.45.28,2.31,2.31,0,0,0,.52-.12l.18-.06L28.7,74l1.46-.45,1-.32h0a9,9,0,0,1,3-.64,3.16,3.16,0,0,1-1.6,1.5,76.72,76.72,0,0,0-7,4.06h0c-1.07.67-2.17,1.37-3.27,2a1.55,1.55,0,0,0-.33.3c-.24.25-.53.56-.79.56s-.46-.36-.55-1.09c0-.14-.14-.2-.37-.2a1.89,1.89,0,0,0-.53.08c-.37.11-.74.24-1.09.36h0l-.93.3a2.48,2.48,0,0,1-.72.13.62.62,0,0,1-.6-.3,1.68,1.68,0,0,0-1.48-.93,3.66,3.66,0,0,0-1.38.36,21.59,21.59,0,0,0-3.34,2A17.82,17.82,0,0,1,5.93,84a33.43,33.43,0,0,1,5.7,1.13c1.19.31,2.42.64,3.64.85a40.65,40.65,0,0,1,12.25,4.79c.84.47,1.29.93,1.4,1.44A2.2,2.2,0,0,1,28.27,94a46.45,46.45,0,0,0-4.08,6.63,5.13,5.13,0,0,1-3.43,2.76,3.79,3.79,0,0,0-2.19,1.24,2.15,2.15,0,0,1-1.78,1,4.16,4.16,0,0,1-1.51-.35,8.76,8.76,0,0,1-2.88-1.77,4,4,0,0,1-1.3-2.89,3.7,3.7,0,0,1,1.09-2.7,3.05,3.05,0,0,1,2.08-1.11c.8,0,1.64.49,2.74,1.59a5,5,0,0,0,3.16,1.73l.17,0h0a.85.85,0,0,0,.23,0A.45.45,0,0,0,21,100a2.28,2.28,0,0,0,0-2.11c-.25-.63-.72-1.35-1.33-1.45a56.79,56.79,0,0,0-9.21-.61h0c-.58,0-.94.12-1.08.35s-.08.59.19,1.09a1.68,1.68,0,0,1,.28,1.34,1.34,1.34,0,0,1-.77.76,1.24,1.24,0,0,0-.74.73,1.46,1.46,0,0,0,.39,1.18c1.11,1.58,2.35,3.09,3.54,4.55h0l.09.1.39.48a4.53,4.53,0,0,0,3.64,1.87,6.41,6.41,0,0,0,1.94-.32,50.07,50.07,0,0,0,5-1.92h0c.94-.4,1.92-.81,2.9-1.18a7.58,7.58,0,0,0,3.22-2.25A7.83,7.83,0,0,0,31,99a15.92,15.92,0,0,1,.52-2.06,1.56,1.56,0,0,1,1.05-1.24.86.86,0,0,0,.62-.37,1.15,1.15,0,0,0,0-.91,17.81,17.81,0,0,0-2.49-4.6,2.33,2.33,0,0,1-.42-2.32,2.4,2.4,0,0,1,2.16-1.16,4,4,0,0,1,.49,0,8.68,8.68,0,0,1,1.35.11,109.81,109.81,0,0,1,13.18,2.89c.93.27,1.86.62,2.75,1l.06,0,.08,0h0c.34.13.75.28.74.64s-.4.48-.73.5l-.28,0a6.41,6.41,0,0,1-1.44.15A14.14,14.14,0,0,1,44.71,91l-.7-.2-.12,0h0c-1-.28-2-.57-3-.81a1.24,1.24,0,0,0-.27,0,.52.52,0,0,0-.52.24c0,.1,0,.27.22.51a8.15,8.15,0,0,1,1.79,3.11,13.88,13.88,0,0,0,.82,1.85,19.71,19.71,0,0,0,2.39,3.14h0c.37.43.75.87,1.11,1.31l.21.26a4.93,4.93,0,0,1,1.2,2.18,32.37,32.37,0,0,1-5.24-2.85h0a31,31,0,0,0-5.22-2.83,2.77,2.77,0,0,0,.84,1.41l.22.22c.6.68,1.23,1.38,1.8,2h0c.81.9,1.65,1.83,2.46,2.75l.19.2h0c.31.32.67.68.4,1.1a.45.45,0,0,1-.39.2,1.75,1.75,0,0,1-.6-.14l-.34-.1a23,23,0,0,1-4.25-1.56l-.3-.15a2,2,0,0,0-.94-.31,1.27,1.27,0,0,0-.6.15c.37.7.74,1.4,1.11,2.13l.22.41.37.7,1,1.91a12.79,12.79,0,0,1-3.11-1.51c-.46-.27-.88-.53-1.33-.76a6.36,6.36,0,0,0-2.56-.92c-.81,0-1.48.5-2.59,1.55a13.37,13.37,0,0,1-6.89,3.42l-1.46.29h0c-.75.15-1.52.31-2.3.44s-1.46.26-2,.37a12,12,0,0,1-2.06.3c-1.29,0-1.88-.8-3.82-3.44L10,107c-.63-.84-1.24-1.71-1.84-2.55A62.4,62.4,0,0,0,3,97.73,13.11,13.11,0,0,1,.53,93.61c-1-2.53-.6-4.39,1.24-5.88l.07-.06c.41-.33,1-.78.92-1.07-.29-1.55.69-2.24,1.63-2.91l.6-.45c1.22-1,2.47-2,3.68-2.95h0c2.46-2,5-4,7.41-6.11l.26-.2c.33-.23.66-.47.42-.89-.59-1,0-1.46.59-1.92h0l.18-.15a59.71,59.71,0,0,1,13.6-8.7A23.49,23.49,0,0,0,39,56.79l.14-.15c.81-.88,1.64-1.79,2.54-2.6a14,14,0,0,0,3.12-3.9,10.2,10.2,0,0,0,1.16-4.84,5.34,5.34,0,0,1,.25-1.54,11,11,0,0,0-.33-6.55,58.45,58.45,0,0,0-2.75-6.79c-.35-.77-.71-1.57-1.06-2.36a2.44,2.44,0,0,0-.14-.28,1.5,1.5,0,0,1-.22-1.2,10.5,10.5,0,0,1,4.46,3.78,20.63,20.63,0,0,0,2.13,2.35,34.92,34.92,0,0,0-2-5.72,43,43,0,0,1-1.73-4.68c2.2.94,3.54,2.69,5,4.54.66.88,1.36,1.73,2.1,2.54a38.39,38.39,0,0,0-.24-7.11v0c0-.33-.08-.68.23-.86a.46.46,0,0,1,.22-.06c.2,0,.34.16.47.32l.12.13c.18.18.36.38.54.57h0c.26.29.53.58.82.85a2,2,0,0,0,1.34.68,1.85,1.85,0,0,0,1.33-.75,15.16,15.16,0,0,1,2.12-1.88,132.79,132.79,0,0,1,21-13A31.53,31.53,0,0,1,87,5.57c5.36-1.14,10.79-2,15.4-2.68.94-.14,1.9-.19,2.84-.24a16.86,16.86,0,0,0,4.89-.75A30.65,30.65,0,0,1,120.67,0a32.22,32.22,0,0,1,4.7.35l1.8.25c3.21.44,6.53.88,9.46,2.46A52.18,52.18,0,0,1,148,11.47a10.21,10.21,0,0,1,3.26,5.69l0,.07c.11.65.25,1.45-.39,1.92a.92.92,0,0,1-.53.19,1.87,1.87,0,0,1-1-.43,3.62,3.62,0,0,0-.41-.27c-.33-.17-.66-.36-1-.54h0c-.48-.27-1-.55-1.47-.8l-.05,0a2.32,2.32,0,0,0-1-.32.74.74,0,0,0-.57.27c-.28.35,0,.7.19,1,.08.11.15.23.22.35a.9.9,0,0,0,.14.2l0,0c2.07,2.6,3.93,5.41,5.73,8.13l0,0,1.62,2.43a2.92,2.92,0,0,0,1.19,1.17c3.23,1.41,5.87,3.73,8.43,6l.63.56A11.58,11.58,0,0,1,167,44.05a55.64,55.64,0,0,1,.7,7.4h0c0,.81.08,1.65.14,2.47.14,2.2.3,4.7,1.6,6.83A17.42,17.42,0,0,1,172,68.27a19.74,19.74,0,0,1-1,7.89c-.24.74-.48,1.48-.72,2.19a50.9,50.9,0,0,0-2.38,9A10.52,10.52,0,0,1,165,93.81a1.29,1.29,0,0,0-.21,1.82,1.07,1.07,0,0,0,.14.16c.43.55.85,1.11,1.26,1.66.73,1,1.48,2,2.29,2.94l.23.28c2.09,2.46,4.25,5,5.45,8.12a8.86,8.86,0,0,1,.58,4.93,8.08,8.08,0,0,1-2.52,4.27c-.84.79-1.68,1.62-2.49,2.42h0l-.11.11-.84.83a5.51,5.51,0,0,0-1.61,5.7,22.9,22.9,0,0,1,.58,6.75,47,47,0,0,0,.22,7.5c0,.13,0,.28,0,.43,0,.6.07,1.27.72,1.34h.07c.5,0,.74-.67.94-1.21,0-.09.07-.19.11-.28l.35-.88c1.19-3,2.42-6.09,3.55-9.16a15.78,15.78,0,0,1,6.16-7.74,6.91,6.91,0,0,0,3.4-5.77c0-2.79,1.56-4.18,3.34-5.48a15.9,15.9,0,0,0,5.93-7.09,34.55,34.55,0,0,1,7.31-11.16,30,30,0,0,0,5.67-8.7,25.82,25.82,0,0,0,1.95-10.3,3.25,3.25,0,0,0-1.86-3.07l-.1.07h0s-.07.05-.07.07a4.88,4.88,0,0,0-.12.55A36.73,36.73,0,0,1,202,83.8a42.91,42.91,0,0,1-6.36,9.43c-.52.6-1,1.22-1.55,1.82h0c-.84,1-1.71,2-2.61,3-.56.6-1.1,1.24-1.63,1.85a31.61,31.61,0,0,1-3.39,3.55,1.54,1.54,0,0,1-.88.46.58.58,0,0,1-.26-.06c-.39-.17-.36-.55-.33-.92a1.79,1.79,0,0,0,0-.23,10,10,0,0,1,3-7.27c.79-.74,1.56-1.52,2.31-2.28s1.34-1.35,2-2l.54-.51a37.59,37.59,0,0,0,4-4.32,16.11,16.11,0,0,0,3.61-11.07,7,7,0,0,0-1.22-3.87c-.44-.61-.81-.9-1.13-.9s-.65.35-.9,1.07a62.87,62.87,0,0,1-4.46,9.33c-.92,1.67-1.86,3.4-2.7,5.14a38.93,38.93,0,0,1-4.73,7.89,14,14,0,0,1-5.86,4.59,6.45,6.45,0,0,1-2,.52.9.9,0,0,1-.67-.24c-.32-.33-.42-1-.38-2.3,0-1,.06-2.1.08-3.12.12-5.71.26-11.61,2.12-17.24a5.68,5.68,0,0,0,.24-1.53,211.53,211.53,0,0,0-.72-22.52,4.65,4.65,0,0,0-1.28-2.93,47.85,47.85,0,0,1-6.19-8.63,11.11,11.11,0,0,0-4.5-4.41,7.06,7.06,0,0,1-2.68-2.29,26.08,26.08,0,0,0-5.34-5.46,18.17,18.17,0,0,1-1.74-1.66c-1.65-1.81-1.84-3.14-.78-5.29a17,17,0,0,1,.85-1.5c.26-.43.54-.87.77-1.33a1.69,1.69,0,0,1,1.6-1,3.36,3.36,0,0,1,.63.06,13.64,13.64,0,0,1,7.82,4.6,40.2,40.2,0,0,0,7.31,6.66,7.79,7.79,0,0,1,3,3.53,34.94,34.94,0,0,0,6.15,10.14c5.21,6.1,10.84,12.15,16.72,18l.11.11a41.68,41.68,0,0,1,4.11,4.49,31.36,31.36,0,0,1,4.78,8.52,20,20,0,0,1,.94,9.75,21.85,21.85,0,0,1-2.27,6.85,34.73,34.73,0,0,1-4,6,39.58,39.58,0,0,0-4.84,7.81,2.31,2.31,0,0,0,.36,2.89l.48.58h0c1.2,1.44,2.43,2.92,2.65,4.88a9.88,9.88,0,0,0,3.59,6.4c2.92,2.64,6.24,5.14,10.64,5.52h0c.4,0,.91.07,1,.55s-.32.73-.7.94l-.14.07a10.12,10.12,0,0,1-3.09,1l-.15,0a16.59,16.59,0,0,1-2.9.22h0a21,21,0,0,0-2.63.14c.6.56,1.18,1.14,1.74,1.69h0a25.76,25.76,0,0,0,5.64,4.6,13.85,13.85,0,0,1,5.2,4.91c.73,1.16,1.44,2.4,2.18,3.82a20,20,0,0,0,5.09,6.21,8.19,8.19,0,0,0,.68.47c.72.47,1.47,1,1.15,1.54a1.09,1.09,0,0,1-1,.5,6.72,6.72,0,0,1-1.55-.28l-.46-.11a20.18,20.18,0,0,1-5-2.22c0,.13.08.24.1.31a.6.6,0,0,0,.11.26,13.16,13.16,0,0,1,3.36,6.34,21,21,0,0,1,.19,7.16,58.69,58.69,0,0,1-2,8.87c-.41,1.47-.84,3-1.2,4.48-.06.24-.11.47-.16.69h-5.05a4.75,4.75,0,0,0-.48-1c-.2.34-.4.69-.61,1Zm-1.23-35.42c0,.3,0,.61,0,.88,0,.59.07,1.14.14,1.7a22.45,22.45,0,0,1-.27,5.43c0,.35-.1.77-.15,1.18a3.17,3.17,0,0,0,.6,2.38,27.86,27.86,0,0,1,3,4.8c1.32-1.88,1.62-5,.81-8.46a15.65,15.65,0,0,0-4.2-7.91ZM105.5,105.28a.51.51,0,0,0-.33.13c-.44.36-.14.89,0,1.17,1.78,3.1,3.59,6.22,5.34,9.23l1.62,2.79.38-.08c.13-.65.33-1.3.52-1.92.54-1.83,1.11-3.7.28-5.73,0-.1-.07-.21-.11-.32a1.32,1.32,0,0,0-.45-.79l-.53-.4a27.9,27.9,0,0,0-6-3.81l-.19-.09A1.28,1.28,0,0,0,105.5,105.28ZM15.74,93.12a15.66,15.66,0,0,1,6,1.1,2.55,2.55,0,0,0,1,.23c.68,0,1.16-.44,1.56-1.44.49-1.19-.32-1.52-1.1-1.83h0L23,91.11A53.87,53.87,0,0,0,9,87l-.65-.07H8.16c-1.77,0-4.17,1.84-4.51,3.46-.09.44.14.5.37.56l.18,0a24.8,24.8,0,0,0,9.67,2.18q.45,0,.9,0l1,0ZM86,75.14h0a5,5,0,0,0,2.59,3.31l1.56.84c2.11,1.14,4.29,2.32,6.46,3.44a11.52,11.52,0,0,1,5.61,5.76,14.12,14.12,0,0,0,3.08,4.22,1.56,1.56,0,0,0,1.15.55,2.17,2.17,0,0,0,.9-.22c.75-.34,1.45-.66,1.35-1.7a5.45,5.45,0,0,1,.1-1.56,4.62,4.62,0,0,0-.22-2.82,3.88,3.88,0,0,0-2.15-1.89c-.54-.23-1.46-.61-1.26-1.32.08-.27.27-.39.62-.39a3.05,3.05,0,0,1,.52,0h0a2.61,2.61,0,0,0,.48,0h0a11.1,11.1,0,0,1,5.68,1.5A15.1,15.1,0,0,0,117,86.74a1.61,1.61,0,0,0,.39,0c.14,0,.33,0,.4-.11.23-.3,0-.54-.25-.75l-.07-.07a28.17,28.17,0,0,0-3.36-2.7l-.3-.21-1.38-1h0l-.76-.57a7.55,7.55,0,0,1,4.22,1.27l1.62,1,.06,0h0c1,.65,2.07,1.32,3.12,1.94a7,7,0,0,0,3.21,1.08H124a1.08,1.08,0,0,0,1-.43A1.24,1.24,0,0,0,124.9,85,5.19,5.19,0,0,0,122.63,83c-.94-.53-1.91-1-2.84-1.53h0c-.7-.37-1.44-.75-2.15-1.14A17.69,17.69,0,0,1,116,79.2h0a.61.61,0,0,1-.25-.46.29.29,0,0,1,.31-.27h0a1,1,0,0,1,.24,0l.5.1a10.16,10.16,0,0,1,1.71.42c1.17.43,2.35.91,3.49,1.37l2.06.81.34.15h0a4.31,4.31,0,0,0,1.79.45h0a7,7,0,0,0-1.4-1.56c-.15-.14-.3-.27-.45-.42l-.06,0a11.17,11.17,0,0,1-2.68-3.35,3.46,3.46,0,0,0-2-1.76c-.36-.15-.8-.33-.73-.76s.55-.56,1-.62h.24a3.24,3.24,0,0,1,1.64.55l1.64,1,.06,0c.83.51,1.68,1,2.55,1.54A10.58,10.58,0,0,0,130.77,78h.2c.71,0,1-.33,1-1.12a6.53,6.53,0,0,0-2-4.85,20.93,20.93,0,0,0-4.28-3.27l-.11-.07a38.62,38.62,0,0,1-4.92-3.38,12.46,12.46,0,0,1-1.21-1.2h0c-.21-.24-.48-.54-.25-.87a.38.38,0,0,1,.35-.2,1.12,1.12,0,0,1,.4.1h0l.13,0a16,16,0,0,1,3.22,1.5l1.82,1.05h0a49.82,49.82,0,0,0,5.15,2.75l.31.16a1.64,1.64,0,0,0,.7.28.51.51,0,0,0,.4-.2c.33-.39,0-.79-.3-1.14h0l-.16-.2c-1.57-2.11-3.41-4.2-6.24-5.16a4.65,4.65,0,0,1-2-1.32,1.36,1.36,0,0,1-.44-1.29,1.38,1.38,0,0,1,1.09-.8,5.46,5.46,0,0,1,1.2-.14,4.1,4.1,0,0,1,1.47.25,3.23,3.23,0,0,0,1,.19,2,2,0,0,0,1.75-1,7.65,7.65,0,0,1,7.16-3.82,17.21,17.21,0,0,1,2.38.17c1,.14,2.05.2,2.83.24l.24,0,.33,0a.42.42,0,0,0,.46-.27c.16-.41-.19-.62-.5-.81h0l-.18-.11a12.45,12.45,0,0,0-6.49-2.66,38.29,38.29,0,0,1-9.86-2.21l-.08,0c-1.09-.35-2.21-.67-3.3-1h0c-.75-.21-1.6-.45-2.4-.7a3.11,3.11,0,0,0-.8-.13,2.6,2.6,0,0,0-1.87.92,8.75,8.75,0,0,1-6.22,2.65,9.26,9.26,0,0,1-4.7-1.32,19.59,19.59,0,0,1-4.25-3.72c-3.6-3.84-8.22-6.73-14.54-9.08A4,4,0,0,0,86,36.06a3.06,3.06,0,0,0-.74.09,1.5,1.5,0,0,0-1.3,1.62c0,.65.45.73.86.73h.64a15.72,15.72,0,0,1,7.35,1.86,32.42,32.42,0,0,1,6.16,4.43l.1.1a3.73,3.73,0,0,0,.26.3c.27.27.54.55.34.87a.46.46,0,0,1-.4.23A1.85,1.85,0,0,1,98.5,46l-.16-.09c-.65-.33-1.28-.71-1.9-1.07l-.81-.48a1.46,1.46,0,0,1-.28-.21.89.89,0,0,0-.52-.28.39.39,0,0,0-.18,0c-.33.18-.27.53-.2.87a2.54,2.54,0,0,1,0,.29c.25,3.06-1.36,5.17-4.31,5.64a4.59,4.59,0,0,1-.73.06,4.47,4.47,0,0,1-2.61-1.05,13.14,13.14,0,0,0,1.88.17A4.55,4.55,0,0,0,91.66,49a4.29,4.29,0,0,0,1.41-2.94c.24-1.91-.5-3.06-2.58-4a1.23,1.23,0,0,0,.39,1.22,2.42,2.42,0,0,1,.27.36c.94,1.62.82,2.94-.34,3.8a4.14,4.14,0,0,1-2.43.71,3.49,3.49,0,0,1-2.56-.89,1.73,1.73,0,0,1-.15-2.22.83.83,0,0,1,.8-.5,2.76,2.76,0,0,1,.64.1l.19,0a2.29,2.29,0,0,1,.37.12,1.7,1.7,0,0,0,.58.14.63.63,0,0,0,.5-.25c.31-.37.15-.77,0-1.14,0-.11-.09-.22-.13-.33s-.06-.19-.1-.28a1.08,1.08,0,0,1-.14-.53c.07-1.27-.74-1.52-1.62-1.61l-.36,0a1.94,1.94,0,0,0-2,1.41A5.93,5.93,0,0,0,85,48.2c.17.25.33.5.51.8l0,0,.29.46a1.76,1.76,0,0,1-.46.06,2.76,2.76,0,0,1-1.21-.37l-.25-.13A12.27,12.27,0,0,0,79.67,48h-.34a.45.45,0,0,0-.43.22c-.14.27,0,.5.2.69h0l0,.06a4.89,4.89,0,0,0,2,1.54c.23.09.47.17.7.24a7.54,7.54,0,0,1,.9.34A15.69,15.69,0,0,0,89,52.49a12.15,12.15,0,0,0,6.9-2.18,13.72,13.72,0,0,1,4.19-1.58l.19,0a2.17,2.17,0,0,1,.51-.08c.52,0,.82.3,1,1a6.31,6.31,0,0,1,.21,3,4.28,4.28,0,0,1-1.7,2.55,20,20,0,0,0-2,1.82,6.33,6.33,0,0,1-4,1.93,2.31,2.31,0,0,0-1.64.59c-.26.33-.31.83-.19,1.74a10.31,10.31,0,0,0,1.33,4.11A6.23,6.23,0,0,0,97.26,68l.07,0c.38.12.82.27.74.78a1.14,1.14,0,0,1-1.14.89c-.33,0-.64,0-.93,0a6.84,6.84,0,0,1-3.48-.84L92,68.62c-.42-.24-.86-.5-1.3-.73a2.68,2.68,0,0,0-1.24-.31,2.72,2.72,0,0,0-.69.09c-.82.21-1.25.48-1.36.82s.09.79.61,1.4a21.64,21.64,0,0,0,5.29,4.48l.3.18c.66.4,1.34.8,2,1.26l.28.18c.37.21.78.46.6.92-.08.22-.28.32-.6.32a3.07,3.07,0,0,1-.6-.07l-.1,0a10.79,10.79,0,0,0-2-.2,8.29,8.29,0,0,0-1.86.21,2,2,0,0,1-.48.06,4.43,4.43,0,0,1-2.11-.77h0l-.42-.24a5.72,5.72,0,0,1-.56-.35,3.47,3.47,0,0,0-1.69-.7Zm60.36-46.2h0c.06.46.11.92.16,1.33.28,2.44.53,4.55,2.16,6.46l.11.13c2,2.33,3.87,4.52,6.75,5.84A15.47,15.47,0,0,1,160,46.25c.51.52,1,1.06,1.59,1.56l1.86,1.69,0,0,1.07,1a.7.7,0,0,0,.28-.88v0a41.88,41.88,0,0,0-3.47-9,7.82,7.82,0,0,0-2.2-2.38,41.6,41.6,0,0,0-4.36-2.7c-.77-.43-1.56-.87-2.32-1.34a25.81,25.81,0,0,1-4.3-3.57v0c-.57-.54-1.16-1.1-1.78-1.66ZM68.47,38.78c-.51,2.75.15,5.33.79,7.83.3,1.16.6,2.36.79,3.57.86-.85,1.13-2.92.72-5.51a12.51,12.51,0,0,0-2.3-5.89Zm8.66,2.38a.63.63,0,0,0-.52.38,20.39,20.39,0,0,1-2.91,4.17,1.68,1.68,0,0,0,0,2c.29.5.62.76,1,.76a1.08,1.08,0,0,0,.81-.54A3,3,0,0,1,78,46.53h.27a2,2,0,0,0,1.25-.72l0,0,.07-.08A10.08,10.08,0,0,0,82.1,41a18.15,18.15,0,0,1,.81-2.28,4,4,0,0,1-.1-.85c0-.56,0-1-.61-1.12a1.33,1.33,0,0,0-.28,0c-.72,0-1.06.7-1.31,1.35a13.64,13.64,0,0,0-1,4c0,.07,0,.14,0,.21a1.88,1.88,0,0,1-.26,1l-.15.21c-.33.5-.71,1.06-1.21,1.06a.64.64,0,0,1-.2,0,.48.48,0,0,1-.3-.22,1.16,1.16,0,0,1,.07-.8,2.15,2.15,0,0,0,.13-.61c0-.14,0-.29,0-.44a3.25,3.25,0,0,0,0-.54.69.69,0,0,0-.44-.67l-.18,0ZM86.72,29.4a14.17,14.17,0,0,1,3.66.45,6.86,6.86,0,0,1,4.29,2.82,57.1,57.1,0,0,0,5.15,6.45c1.31,1.49,2.67,3,3.88,4.65a5.21,5.21,0,0,0,5.53,2.42,7.35,7.35,0,0,1,1.24-.13h.32c.2,0,.4,0,.58,0a4.88,4.88,0,0,0,4.76-2.88A1.89,1.89,0,0,1,117.88,42a2.69,2.69,0,0,1,1.15.26l1.54.68h0c.64.28,1.3.58,2,.85L123,44a4.14,4.14,0,0,0,1.85.51,2.36,2.36,0,0,0,.38,0l-.34-.58v0c-.24-.41-.46-.77-.65-1.14l-.13-.21c-.17-.25-.35-.51-.13-.81a.53.53,0,0,1,.48-.22,1.47,1.47,0,0,1,.36,0h0l.2,0,.3,0h0a2,2,0,0,0,.48.06,1.22,1.22,0,0,0,.5-.11c0-.05,0-.09,0-.13a.31.31,0,0,0,0-.25c-.57-.64-.89-1-.82-1.23s.46-.39,1.29-.68c.34-.11.52-.24.53-.38s-.21-.36-.45-.52l-1.42-.91h0c-.7-.44-1.42-.9-2.13-1.38l0,0c-.4-.27-1-.65-.67-1.2a.53.53,0,0,1,.53-.27,3.06,3.06,0,0,1,.54.07l.24,0a12.75,12.75,0,0,1,3.1,1c2.5,1.07,4.59,1.93,6.57,2.7l.44.19a3.36,3.36,0,0,0,1.23.4.59.59,0,0,0,.54-.29c.38-.64-.27-1.13-.85-1.57a4.06,4.06,0,0,1-.43-.35c-1.15-1-2.35-2.08-3.5-3.08-1-.83-1.95-1.68-2.9-2.54-.1-.09-.23-.18-.36-.28-.48-.35-1-.75-.69-1.32a.85.85,0,0,1,.8-.37,5.91,5.91,0,0,1,.94.13l.26.05a9.65,9.65,0,0,1,4.15,2.29l0,0,.7.57a10.38,10.38,0,0,0,3.7,2.25c-.38-.86-.72-1.77-1-2.65-1.06-2.81-2.15-5.72-5-7.6-.94-.61-1.84-1.31-2.71-2l-.49-.37-.13-.09h0c-.27-.19-.58-.41-.41-.78a.41.41,0,0,1,.4-.25,1.46,1.46,0,0,1,.46.1l.16,0a12.64,12.64,0,0,1,6.48,3.62,22.93,22.93,0,0,0,2.34,2.28c-.43-1.31-.78-2.66-1.11-4a36.51,36.51,0,0,0-2.07-6.43,7,7,0,0,0-3.06-3.26A73.79,73.79,0,0,1,120.9,6a4.48,4.48,0,0,0-2.82-1,6.32,6.32,0,0,0-1.06.09,34.91,34.91,0,0,0-11.84,4.61c-.55.32-.83.63-.89,1a1.63,1.63,0,0,0,.54,1.26c.22.26.46.51.71.76a7.71,7.71,0,0,1,1.6,2.08,9.89,9.89,0,0,1-2.86-1.07h0c-.4-.2-.78-.38-1.17-.55l-.48-.21a4.85,4.85,0,0,0-2-.57l-.37,0h0c-.36,0-.78.11-.91.48s.19.6.48.76l.12.07c.81.48,1.65,1,2.4,1.39h0c.9.52,1.84,1.06,2.75,1.6h0A7.35,7.35,0,0,1,107.63,19a18.55,18.55,0,0,1-4.13-.67h0a27.19,27.19,0,0,0-3.11-.63,40,40,0,0,0,3.75,3.5,27,27,0,0,1,4.37,4.31l-3.94-1.7c-5.53-2.42-11.24-4.93-17.5-6.27a3.25,3.25,0,0,0,1.6,1.23h0l.28.12a15.35,15.35,0,0,1,5.21,3.85,22.08,22.08,0,0,0,5.57,4.22l.31.19c1.32.8,2.66,1.6,4,2.37h0l3.59,2.14c.39.24.77.52,1.17.81h0l.61.44a1.35,1.35,0,0,1-.45.11,1.11,1.11,0,0,1-.53-.17l-.12-.06-2.08-1-.06,0c-2.83-1.33-5.77-2.72-8.64-4.11a14.07,14.07,0,0,1-5.08-3.8A2.81,2.81,0,0,0,91.33,23a19.85,19.85,0,0,0-7.2-1.61H83.6a1.19,1.19,0,0,0-1.24.92,23.49,23.49,0,0,0-1.13,9.49,2.07,2.07,0,0,0,.08.42,2.17,2.17,0,0,1,.08.3c.19.68.4,1.45,1.11,1.45h.14c.9-.11.81-.94.73-1.68,0-.12,0-.22,0-.32a2.51,2.51,0,0,1,.43-1.86,2.32,2.32,0,0,1,1.68-.65c.43,0,.86,0,1.27,0Zm-9.49-6.1a13,13,0,0,0-4,3.7,29,29,0,0,0-2.72,4.83,15.84,15.84,0,0,1,1.89-.58,8.56,8.56,0,0,0,3.34-1.43,2.76,2.76,0,0,0,.74-2.35,8,8,0,0,1,.78-4.16Zm116,153.17h-2.86c1.44-1.68,2.66-3.23,3.73-4.74a2.42,2.42,0,0,1,0,2.28l-.13.36c-.22.69-.47,1.4-.74,2.1Zm-54.44,0H127.4c1.26-1.7,2.64-3.29,3.94-4.75.72-.81,1.46-1.62,2.18-2.4l0,0c.88-1,1.8-1.94,2.67-3a11.39,11.39,0,0,0,2.85-6.57,16.65,16.65,0,0,0-1.1-7,19.69,19.69,0,0,0-5.41-7.89c-1.53-1.4-3-2.87-4.48-4.3l-.53-.53-.19-.15c-.21-.16-.46-.34-.33-.71,5.74.61,14.62,8,16.67,13.94a17.91,17.91,0,0,1,.51,1.77,31.76,31.76,0,0,1,.41,9.73c0,.11,0,.22,0,.33h0a2.18,2.18,0,0,0,.4,1.88c2.53-4.88,3.5-10.24,3-16.86a24,24,0,0,1,2.15,9.66,15.76,15.76,0,0,1-3.23,9.31,31.25,31.25,0,0,1-7.62,7.16,5.92,5.92,0,0,0-.48.35Zm-64.24-73.1c-1.47,0-5.84-2.6-6.4-3.81a.88.88,0,0,1-.08-.76c.15-.31.6-.41,1-.5l.06,0a2.88,2.88,0,0,1,.59-.06c2.11,0,5.24,2,5.78,3.7a1.21,1.21,0,0,1,0,1.08,1.05,1.05,0,0,1-.88.37ZM62.08,98.69a2.82,2.82,0,0,1-.4,0c-2.47-.73-4.6-2.6-6.36-4.32a.39.39,0,0,1-.16-.4.53.53,0,0,1,.48-.22.44.44,0,0,1,.16,0,14,14,0,0,1,6.94,3.63.75.75,0,0,1,.24.9c-.15.3-.4.42-.9.42Zm6.47-2.81a1.47,1.47,0,0,1-.54-.16,27.38,27.38,0,0,1-6-3.78h0c-.18-.13-.39-.3-.26-.57s.33-.24.58-.24h.25a9.38,9.38,0,0,1,6.2,3.72c.21.27.41.59.11.89a.51.51,0,0,1-.38.16Zm9.16,0h-.09l-.13,0h0l-.37-.09a51,51,0,0,1-10.53-4.79l-.06,0c-.3-.17-.7-.41-.53-.81a.51.51,0,0,1,.52-.33,3.32,3.32,0,0,1,.44.06l.17,0a31.09,31.09,0,0,1,9.61,3.24,5.7,5.7,0,0,1,1.7,1.26l.06.07c.23.27.47.55.27.93a1.06,1.06,0,0,1-1.05.5ZM34.29,84.49a3.7,3.7,0,0,1-.8-.09l-.16,0c-.66-.14-1.41-.3-1.61-1s.45-1.12,1-1.44h0l.2-.12a13.16,13.16,0,0,1,7.27-2.45,11.76,11.76,0,0,1,2,.19A27.23,27.23,0,0,1,52,83.07h-.54a45.61,45.61,0,0,0-6.06-.43A26.82,26.82,0,0,0,36,84.16a5,5,0,0,1-1.71.33Zm-6.61-3.18a1.1,1.1,0,0,1-1.1-.62c-.33-.69.23-1.06.73-1.39h0l.2-.14a30.72,30.72,0,0,1,5.88-3.07,18,18,0,0,1,5.37-1.56.85.85,0,0,0,.23,0h.32a.56.56,0,0,1,.62.35.44.44,0,0,1,0,.32c-.11.23-.47.36-.68.43a21.58,21.58,0,0,0-4.54,2.44c-.65.41-1.31.84-2,1.23l-.07,0a14.24,14.24,0,0,1-4.18,1.85,3.55,3.55,0,0,1-.79.09ZM37.93,65.14a.35.35,0,0,1-.24-.1.59.59,0,0,1-.06-.67,6.43,6.43,0,0,1,1.64-2.29c2-1.89,4.08-3.73,6.1-5.51h0c2.58-2.28,5.25-4.63,7.73-7.1a2.47,2.47,0,0,1,1.7-.88h.12a.7.7,0,0,1-.28.8l-.12.11c-5.25,5.4-10,10.08-14.61,14.29a11.53,11.53,0,0,1-1.31,1l-.28.19a.77.77,0,0,1-.4.18Z"/></g></svg>