<svg xmlns="http://www.w3.org/2000/svg" width="592.51" height="610.726" viewBox="0 0 592.51 610.726">
  <g id="Gruppe_384" data-name="Gruppe 384" transform="translate(0 610.726) rotate(-90)">
    <path id="Pfad_3457" data-name="Pfad 3457" d="M0,.128C.033.107.059.078.092.056.094.036.1.021.1,0Z" transform="translate(431.802 20.738)" fill="#50533c"/>
    <path id="Pfad_3458" data-name="Pfad 3458" d="M585.321,445.808c-1.554.33-3.3.991-4.228-1.891,1.485-1.025,3.792,1.7,4.146-1.477a4.528,4.528,0,0,0-3.177-4.75c.061,2.108,1.779,2.664,1.657,4.687-4.209-.567-3.042-5.3-3.821-8.893,1.2,3.709,4.868-3.61,5.154,3.627,1.163-2.49,3.179-3.837.554-5.912-.727-.574-.632-1.9-.394-2.933.222-.961.047-1.435-.709-1.468-1.15-.051-.929.726-.6,1.674.3.876.358,1.911-.375,2.386-.886.574-1.542-.311-1.988-1.179a37.428,37.428,0,0,1-3.249-9.962c2.11.475,3.306,2.06,4.544,3.571,1.308,1.6,2.715,2.74,3.767-.235.771-2.178,1.507-1.091,2.319-.25a37.336,37.336,0,0,1,6.335,9.807c1.268-6.306-2.91-7.6-4.988-10.454-4.625-6.361-11.818-7.112-17.75-3.048-2.658,1.821-5.773,1.863-9.181,1.194,1.24-2.358,2.9-1.694,4.183-2.3.372-.177,1.571-.09.995-.889-1.406-1.949-.28-2.265.717-2.212,5.965.317,11.89-2.2,17.867-.414.884.264,2.513.283,2.034-.965-1.464-3.814-.127-8.076-1.557-11.741.755-.4,1.623.563,2.432-.813-2.444-1.449-.492-3.606-.355-5.583-7.6.6-14.888-1.443-22.278-2.224a22.819,22.819,0,0,1,7.5-.821c4.32.036,8.64.126,12.96.123.968,0,2.831-.7,1.962-1.778-1.962-2.426-1.006-6.428-4.193-8.68,2.4-.148,5.271.637,2.527-3.1a2.457,2.457,0,0,1,.012-2.526c1.179-2.4-.279-2.414-1.36-2.619-2.475-.468-4.99-.643-7.435-1.3-3.52-.939-6.993-2.195-10.9-3.45a3.547,3.547,0,0,1,4.11-.961c5.027,1.26,9.97-.04,14.936-.663,1.242-.156,2.666-.21,2.526-2.658-.352-6.153-1.4-12.386-4.782-16.515-2.135-2.609-1.515-2.925.433-3.848-1.79-2.184-4.337-1.356-6.552-4.587,2.717,0,4.584.042,6.449-.02.766-.024,1.9-.1.635-1.565-1.115-1.291-.213-1.812.46-2.206a22.3,22.3,0,0,1,2.96-1.245c-2.119-3.491-5.68-3.026-8.367-6.263,1.291-.306,2.021-.514,2.759-.647,1.7-.308,3.948,1.1,4.861-1.821,1.068-3.419-2.572-2.041-2.9-4.348.956-1.917,2.755-.087,4.138-1.614-4.126-3.107-9.02-1.7-12.742-5.129,3.393.357,6.726,1.04,10.066,1.633.858.152,1.635,2.884,2.643.085.854-2.369.048-3.749-1.372-4.768-.935-.671-2.23-.662-2.4-2.667,2.2-1.134,4.651.686,7.394-1.339-4.944-3.014-10.074-3.2-14.492-6.815,1.936-1.312,3.632.48,5.515-.675-4.228-2.187-9-1.767-12.647-6.646,2.806-.1,5.031-2.394,7.521.073,1.152,1.141,1.732-.353,1.26-1.656-1.755-4.848.827-3.35,2.445-2.971,1.9.445,3.753,1.2,5.638,1.763,1.666.5,3.352,1.326,5.609-.093-5.336-4.672-11.965-3.342-16.938-9.129,2.849-1.008,5.068,1.148,7.635.778-2.55-2.3-6.133-1.263-7.851-6.33,5.853,2.642,11.089,5.191,16.744,5.84-6.614-1.988-12.525-5.894-18.267-11.183,4.827-4.474,10.2-1.453,15.844-2.329-4.13-3.215-8.609-3.426-12.4-6.965,2.3-1.716,4.258-.383,6.359-.936-1.968-2.383-5.089-1.967-6.683-5.93,4.035,1.171,7.294,3.187,10.912,2.975-6.215-4.414-13.354-6.2-19.34-12.144,3.19.054,3.19.054,3.321-1.163.321-2.994.921-3.3,2.852-1.439,2.658,2.557,3.331,2.8,5.828,2.077-5.431-2.544-5.439-2.55-2.057-9.447.313-.64.875-1.3.283-1.908-2.948-3.012.233-3.5,1.154-4.667a17.39,17.39,0,0,1,3.2-2.573c-1.6-.912-2.849-1.648-3.672-3.195-.572-1.075-1.175-1.86-2.23-.887-.8.733-1.589,2.05-2.607.453a1.886,1.886,0,0,1-.329-1.191c.6-1.4,1.837-.8,2.7-1.349,2.8-1.775,6.109-.619,9.464-2.591-2.22-.933-4.046,1.009-5.832-.914.555-.461.8-.8,1.081-.868.556-.124,1.135-.051,1.7-.136,1.892-.287,2.708-1.57,1.634-2.189a3.141,3.141,0,0,0-4.168.778c-.817,1.006-2.4-.659-2.649,1.694-.1.953-1.158.97-1.315.589-1.487-3.594-4.441-1.657-7-3.4,1.208-.315,1.98-.782,2.692-.656,3.1.547,5.27-.487,6.392-4.855.542-2.112,1.76-.918,2.1.507.643,2.712,1.932,2.453,3.489,1.841,1.631-.641,3.283-1.2,4.938-1.723,1.743-.549,3.153-.844,2.744-4.362-.277-2.38-2-.981-2.232-2.7,1.359-1.845,4.063-1.227,5.021-4.584-3.675,3.868-5.019-6.11-8.641-2.1-.069-.121-.2-.239-.2-.362-.065-3.925-2.972-3.737-4.57-5.238-2.581-2.424-1.414-3.476.465-4.68.6-.386,1.4-.309,1.938-.783,1.943-1.716,4.653-2.076,5.859-5.386-1.966-1.142-4.076.464-6.025-1.251,2.113-2.591,5.531,1.142,7.295-4.153-4.531,2.677-5.95-2-8.317-4.209.745-1.881,4.756-.36,2.514-4.154-2.087-3.533.056-3.8,1.418-4.48,1.9-.947,4.455.092,5.413-3.53.171-.645.817-.406,1.195-.065a9.707,9.707,0,0,1,3.36,6.9c.067,2.711-2.006,3.215-3.749,3.622-2.181.509-4.4,1-5.681,3.993,2.622-1.277,5.394-1.716,7.991-2.86,2.725-1.2,3.664-3.995,2.262-7.564-1.3-3.313-.372-4.39,2.126-4.3a14.057,14.057,0,0,0,2.5-.468c-2.909-2.195-6.932-.169-7.913-5.617a11.662,11.662,0,0,0,1.9-.876c.677-.459,1.635-.241,2.067-1.515a19.958,19.958,0,0,0-2.391-2.957c-1.276-1.073-1.489,2.426-2.94,1.566.044-1.86,2.27-3.417-.044-5.444-.893-.783.018-2.9,1.124-3.634a10.478,10.478,0,0,1,3.23-1.379c2.117-.537.06-3.79,1.761-4.726.145-.08-1.122-1.03-1.816-1.338-2.153-.958-4.338-1.791-6.477-2.8-.92-.434-2.248-.648-2.341-2.213-.074-1.242.989-1.973,1.775-2.522,1.472-1.031,2.383-1.892.856-4.185-.912-1.37.038-2.761.884-3.891.948-1.266,2.476-1.526,3.226-3.3a6.744,6.744,0,0,0-1.009-.382c-1.421-.282-3.158.136-3.765-2.219-.3-1.179.407-2.293,1.023-3.2,1.389-2.051,2.435-.244,3.534.623,1.034.815,1.892.685,1.864-1.055-.057-3.526-2.157-6.4-1.784-10.273.129-1.339-1.965-.742-2.988-1.258a2.311,2.311,0,0,1-1.344-2.336,2.524,2.524,0,0,1,.525-1.547c.845-.673,1.535.159,2.11.841a22.762,22.762,0,0,1,2.871,3.833c1.182,2.2,2.439,2.272,4.286.931-2.424-.854-4.169-2.085-3.679-5.622.1-.749.059-1.119-.538-1.245-1.57-.333-2.638-1.03-1.756-3.587.916-2.654,2.374-1.087,4.383-.327-2.484-3.65-1.077-4.407,1.068-4.367-1.256-3.625-4.362-4.843-5.176-9.231l5.09,1.862c-2.514-3.663.166-11.522-6.315-12.07,2.775-2.98,4.789.452,7.334.4-1.752-2.6-.508-4.243,1.348-6.745l-4.314,2.19c.905-1.242-2.05-3.155.408-4,.695-.24,1.776.512,1.97-.986.183-1.414-.787-2.073-1.535-2.72-1.163-1.005-2.495-1.979-3.833-1.19-1.938,1.144,1.149,3.073-.746,5.1-1.592-5.755-6.09-5.2-9.286-7.894.855,2.046,2.011,3.731,2.835,5.665a2.981,2.981,0,0,1-1.509,4.194c-.768.364-2.446.611-2.167-.786,1.056-5.293-2.1-4.591-4.08-5.533-.6-.287-1.285-.689-.871-1.392,2.083-3.536-.482-2.556-1.5-2.668-1.724-.189-3.469-.052-6.225-.052,4.321,2.184,6.829,5.634,10.1,8.22-1.872,1.428-3.173-1.406-4.6.1.347,1.326,2.261.5,2.071,2.337-.13,1.261-1.4,1.6-1.926,1-2.359-2.649-5.016-.405-7.445-1.1-1.965-.561-1.9,1.016-1.67,2.963-2.383-1.261-1.077-4.327-1.94-6.13a2.761,2.761,0,0,0-.915,2.582c.012,3.436.388,7.519-3.551,3.212-.469-.513-.807-.226-1.152.2-.484.6-.8,2.414-1.658.955a2.745,2.745,0,0,1,.589-3.806,5.381,5.381,0,0,0,2.133-4.063c-1.608-.384-3.034-.485-4.189.6-1.313,1.232-2.411,1.415-3.554-.181a5.086,5.086,0,0,0-.318,1.127c-.04.761.013,1.59.757,1.706.786.123,1.587.077,2.376.173.517.063.838.515.683,1.21-.083.375-.5.989-.587.94-1.694-.975-3.313.64-4.937.242s-1.182-3.292-2.522-4.165c1.132-1.2-.81-3.931.733-4.194,1.969-.336,2.724-2.638,4.257-3.323,1.082-.484,1.722-.913,1.155-2.417-.682-1.813-1.324-.474-2.124.051-2.575,1.689-7.612.7-9.2-1.633,2.662-1.851,6.322,1.543,8.864-2.941-2.285,0-4.207,0-6.129,0-.693,0-1.5,1.4-2.048-.111a4.039,4.039,0,0,1,.428-3.012c.621-1.323,1.6-2.857,2.676-1.368,1.555,2.141,2.387.462,3.679-.188-1.148-2.258-2.826-1.834-4.144-2.519-1.076-.56-2.2-.98-2.583-2.632-.82-3.539-1.876-3.972-4.554-1.792,3.58.736,3.556.719,1.756,5.079a9.63,9.63,0,0,0-.9,3.357c-.042,2.781-.788,3.51-2.716,2.333-.918-.56-2.007-.629-2.924-1.192-1.5-.92-2.435-1.926-.26-3.617,1.947-1.513,2.07-4.935,2.322-7.167.212-1.879-2.628-.871-4.1-.975-2.933-.208-5.933,1.046-8.972-.489,1.041-1.77,2.624-.442,3.539-1.8-1.172-2.835-2.95-.058-4.185-.5-.109-5.352,2.98-4.437,5.194-5.132.815-.256,1.764-1.516,2.458-.446.671,1.037.175,2.594.1,3.935-.048.914-1.225,1.257-.72,2.493,4.362-1.944-1.212-8.362,3.353-10.244-2.346-1.277-6.057-.513-3.864-5.724,1.242-.012-.067,2.867,1.469,2.127.977-.47.86-1.935.2-2.6-1.292-1.306-.038-2.87-.177-4.263-5.043,1.213-5.257,1.778-4.926,7.37.135,2.276.5,6.06-3.055,3.813-.851-.536-3.923,4.008-3.734,5.353.417,2.977.42,3.156-2.006,3.225-1.365.039-1.567,1.437-2.276,2.294-1.229,1.485-3.305,1.358-3.163-.5.16-2.091-1.21-3.6-.634-5.981,2.2,2.571,3.718.252,5.429-.784-1.957-1.98-4.49-.786-6.671-2.293,2.976-1.552,5.961-3.1,9.025-3.465,2.45-.287,3.771-1.283,4.349-4.365.2-1.089,1.192-2.048.319-3.233a1.269,1.269,0,0,0-1.236-.4c-1.2.345-.969,1.764-1.114,2.915-.162,1.3.6,3.406-1.3,3.351-2.281-.065-4.66.4-6.8-1.133.424-1.99,2.411-.768,2.531-2.741-.413-1.258-2.032-.1-2.031-1.9,0-.574.785-1.334-.319-1.395-.547-.03-.888.006-1.083,1.1-.358,2-2.46,3.5-.761,6.088.235.358-.366,2.126-1.084,1.082-2.547-3.708-5.839-2.363-8.883-2.651-1.389-.131-2.851.473-4.193-.669.8-2.76,2.9-1.548,4.11-2.866-3.533-1.091-7.16-1-7.369.566-.619,4.638-4.009,3.775-5.92,5.722-1.393,1.419-3.637,1.286-6-.817,3.135-.234,1.46-3.361,2.456-4.853A11.166,11.166,0,0,1,481.828,0a2.33,2.33,0,0,0-.667.9c-.884,4.254-3.208,3-5.248,2.335-2.935-.953-5.676-4.042-8.822-.058-.957,1.213-3.118.573-4.567,1.326-1.6.833-3.1,3.861-1.917,4.822,1.239,1.005,2.565,4.339,4.937,1.937-1.824,3.46-7,4.7-10.608,2.653a16.68,16.68,0,0,1-.572,11.956c2.237.73,4.239-1.507,6.449-.333-1.506,2.451-4.1,1.094-5.32,2.651-3.871,4.934-2.8-.594-3.6-3.147-2.961,7.648-2.751,1.227-3.353-1.729-.607,1.186-.88,1.837-1.237,2.393-.557.865-1.146,2.546-2.065,1.613-1.229-1.246.04-2.209.682-3.213.933-1.46,1.634-3.128,3.182-3.767,1.011-.418,1.236-1.744.9-3.014-.174-.653-.617-1.654-.955-1.667-.931-.034-1.2,1.2-1.494,2.153-.508,1.649-1.537,1.925-2.507,1.31a4.7,4.7,0,0,0-3.952-.487c-1.133.28-2.405.678-3.389-1.178,2.413-1.477,4.649-2.807,6.856-4.22.662-.425,1.687-.83,1.114-2.241-.422-1.04-1.107-.566-1.761-.124-1.112.75-2.266,1.221-3.684-.531,6.1-3.85,12.594-2.975,18.6-5.2a109.491,109.491,0,0,0-12.083.976,20.006,20.006,0,0,1-6.912-.943c-1.975-.48-2.592,5.1-4.94,6.346-1.732.92-2.664,1.6-1.617,4.467a4.167,4.167,0,0,1-1.378,4.808c-.2,2.293-1.992,2.654-2.875,4.123-.9,1.492-1.5,2.813.44,3.733,1.4.667,3.772-.8,4.124,1.814.347,2.568-2.716,1.643-3.365,3.7-1.236,3.921-1.205-1.626-2.265-.227-.018,3.169-2.031,5.171-3.28,8.436-.884-3.056.482-5.138.616-7.265-1.385-.455-1.2,1.919-2.412,1.663-1.254-4.394-.33-7.807,3.6-10.315-6.344-.039-8.686.642-11.6,3.118.742,1.005,2.409,1.463,1.831,3.3-.7,2.214-1.234-.884-1.981-.389a1.125,1.125,0,0,0-.5.546c-1,3.784-3.4,2.081-5.255,2.287-2.762.31-3.21-1.036-1.6-4.085,2.268-4.3,2.256-5.491.6-9.121-1.081,1.174-.98,2.586-.5,4.065.526,1.625-.465,2.13-1.191,2.705-.6.477-1.18-.011-1.3-.824a28.038,28.038,0,0,1-.7-6.552c.154-1.686,1.815-1.335,2.913-1.523a2.331,2.331,0,0,0,.986-.313c1.746-1.242,3.6-4.281,5.353-2.727s.4,5.272.637,8.116c1.881-.6,2.266-2.351,1.76-4.178-1.421-5.132,1.671-5.795,3.862-7.791,2.147-1.957,3.568-.623,5.2.778.5.426,1.231,1.822,1.58.628,1.4-4.769,4.688-5,8.161-6.058a4.01,4.01,0,0,0-3.653-.8c-2.186.335-1.3-1.5-1.087-2.813-1.93.1-2.189,4.706-3.669,3.2-1.9-1.931-1.923-.069-2.85.951-1.715,1.887-4.822,2.138-5.384.2-1.005-3.47-1.285-1.689-1.852-.167-.784,2.1-1.534,2.148-2.833.651-2.3-2.65-4.846-2.038-7.185,1.516.993.335,1.713-.569,2.548-.871.987-.357,2.407-1.929,2.85.244.421,2.064-1.317,1.989-2.37,2.186-3.813.712-7.1,4.949-11.311,2.971-2.554,3.993-6.513,2.654-9.687,4.757,1.292-7.327-2.682-13.56-8.251-13.52,1.393,3.008,4.771,3.341,6.136,6.973-1.071.538-1.351-.265-1.8-.623-.6-.486-1.11-2.008-1.959-.791-.994,1.425.415,1.614.858,2.25,1.2,1.72,1.806,3.11.14,5.277-1.4,1.819.371,4.4.008,6.844-.19,1.276,1.234-.283,1.942-.429.8-.165.627.866.57,1.609-.325,4.256-2.729,1.175-4.015,2.023-1.64,1.079-2.274.25-1.53-1.8,1.247-3.43-1-2.307-2.218-2.747.482-.693.782-1.121,1.079-1.552.946-1.372,2.965-2.386,2.2-4.517-.773-2.163-2.649-.894-4.036-.542-4.62,1.174-9.206,2.609-13.846,3.6a20.453,20.453,0,0,1-6.456.046c-2.121-.232-2.589-2.228-1.928-4.591a11.887,11.887,0,0,1,1.625-2.833c.4-.661,1.175-1.192.618-2.227a1.941,1.941,0,0,0-1.109-.926c-.98-.24-1.169.887-1.131,1.712.1,2.15-1.143,2.552-2.106,3.591-1.162,1.252-4.824.251-2.842,4.826.046.107-.307.445-.364.716-1.24,5.922-4.144,8.477-8.841,7.636,1.3-3.5,5.169-1.73,6.358-5.851-3.569,2.417-2.906-2.213-4.052-3.92,2.492-2.929-.86-7.39,1.544-10.422.372-.469-.03-1.482-.634-1.792-.726-.372-1.062.356-1.193,1.09-.26,1.463-.393,2.965-.624,4.439-.164,1.052-.8,2.7-1.334,2.15-2.677-2.741-2.155,1.466-3.174,2.253-2.014,1.552-.516,4.98-2.248,6.693.214-2.493-4.275-3.116-1.3-6.477-.243-.278-.654-.843-.7-.792-1.515,1.577-4.666-.531-5,3.959.385-.073.772.005.985-.214.709-.73,1.609-2.05,2.209-.522.577,1.469-.826,1.89-1.618,2.219-1.825.757-2.619,2.761-2.637,4.815-.044,5.157-2.455,7.42-6.128,9.776,1.163-2.895.066-6.1,3.1-6.935,1-.276.879-2.9,1.056-4.5.1-.875-.592-1.174-1.133-1.427-.483-.225-5.957,5.24-5.709,5.7,2.813,5.211,1.036,6.427-2.859,6.032-.331-.034-.721.642-1.27-.143.072-.41.031-1.234.287-1.458,2.72-2.376,2.572-5.525,1.571-9.037a5.011,5.011,0,0,1,.112-2.067c3.736-.19,1.2-3.87,1.852-5.722.415-1.176.43-2.151-.594-2.422-.719-.19-1.224.684-1.466,1.575-.925,3.408-3.34,6.583-.784,10.544a4.164,4.164,0,0,1-.278,3.55c-1.227-2.976-2.3-5.727-3.492-8.383-.382-.852-1.092-1.917-1.9-.7-.69,1.048.217,1.453.712,2,1.73,1.923,1.6,4.024.654,7.089-1.588-3.7-1.588-3.7-5.58-4.806.033-1.864,3.415-.008,2.078-3.061-.822-1.876-.044-3.949-.924-5.612-.144-.273-.616-.495-.829-.382a1.352,1.352,0,0,0-.539,1c.94,4.224-2.2,6.216-2.678,9.715-4.1-3.423,1.941-5.52.349-8.572-2.249,4.057-3.029,4.385-7,3.355-2.374-.616-4.524-.84-5.586,3.238-.51,1.963-1.644,4.316-3.828,3.313a11.281,11.281,0,0,0-6.069-.665c-2.457.251-3.243-1.009-3.048-4.127.087-1.4.614-3.064-.388-4.279-.539-.654-7.705,2.023-8.2,2.962a1.705,1.705,0,0,0-.095.4c.142,1.264,1.887.235,1.677,2.163-3.085,1.55-5.9.07-8.944-.85,1.189-2.486,4.341,1.02,4.481-3.737-5.491,1.132-10.881,1.794-16.3.42-.878-.223-2.724-.72-2.722,1.321,0,3.64-2.477,2.538-3.548,3.139-1.133.635-.834-2.131-.91-3.523-.041-.767-.065-1.519-.8-1.693-2.619,5.98-2.625,5.992-7.715,1.872a5.859,5.859,0,0,0-3.912-1.326c-1.629.025-2.662-1.279-3.11-2.934-.463-1.712,1.855-.613,1.84-3.056a6.917,6.917,0,0,1-5.222.72c-.916-.236-1.273.265-1.562,1.607-.641,2.973-.142,7.893-4.578,5.777-.321-.153-1.034.575-1.352,1.115-.476.809-1.208.876-1.286.156-.3-2.742-3.376-2.092-3.37-5.2,0-.827-.985-1.17-1.695-1.1-.385.038-.472.52-.308.98,1,2.782-.823,2.369-1.71,2.336a82.65,82.65,0,0,0-23.263,2.231c-1.554.388-2.972-1.824-4.533-.07-2.9,3.256-6.14-.386-9.185.673-.606.211-.852-.743-.809-1.6.047-.943-.478-1.531-1.036-1.335-2.72.955-5.959-1.58-8.3,2.355-.5.839-1.9.905-2.9,1.018-6.915.774-13.272,4.929-20.219,5.719-2.24.256-4.3,2.616-6.543,3.65-5.865,2.708-12.164,3.6-17.757,7.492-.565.392-1.43,1.256-1.868.506-1.7-2.908-2.995.1-3.528.923-1.845,2.846-5.021,1.127-6.752,3.936-.111.18-1.195-.306-1.19-.444.121-3.6-1.917-1.443-2.922-1.964-.4-.208-.926-.2-.759-1.542,2.591-.972,5.88-.188,8.028-3.644-.685-.42-1.827-.779-1.835-1.177C102.468,34.21,99.7,36.213,98,35.7a13.3,13.3,0,0,0-2.718-.236c-1.337-.114-2.138-.9-2.009-2.851.063-.947.27-2.135.941-2.2,1.528-.154,1.013,1.951,1.545,2.944.119.222.36.328.7.625a4.333,4.333,0,0,1,1.958-2.863c1.177-.739.943-2.664,0-2.576-5.665.527-3.656-3.923-3.019-7.6a4.011,4.011,0,0,0-.243-1.278c-2.81.107-.991,4.81-3.159,5.591-.1.035.969,1.746-.237,1.961-1,.178-1.121-1.07-1.239-2.2-.407-3.887-.667-4.075-4.307-3.383a9.661,9.661,0,0,1,2.953,5.363l-3.939.315c1.976,3.368,4.847,2.318,7.106,3.673-.637.79-1.506,1.815-1.483,1.851,2.4,3.819-.7,2.228-1.446,2.4a6.99,6.99,0,0,1-3.386-.094c-1.6-.44-3.023-.649-2.6-4.219.3-2.528.654-6.994-4.253-7.526,2.144,1.809,1.954,3.7,2.1,5.479-1.04,1.018-2.742-.76-3.6,1.494.454.159.776.292,1.105.382,1.03.285,2.766-.111,2.587,1.813-.171,1.84-1.823,1.206-2.9,1.042-1.11-.168-2.1-1.214-3.3-.827a1.591,1.591,0,0,0-1.214,1.384c-.084.973.609,1.1,1.163,1.205,2.881.566,6.282-1.409,8.392,3.011a1.928,1.928,0,0,0,.539-.439c1.363-2,2.658-.364,4.043-.032,1.47.353,2.784,1.8,4.629.287.991-.811,2.411,1.367,2.625,3.3.187,1.691-.13,3.9-1.709,3.678-4.031-.563-2.673,1.982-1.812,4.618a8.563,8.563,0,0,1,.188,3.086c-.1,1.333-.287,3.045-1.505,3.1-1.135.048-.912-1.759-1.291-2.767a8.926,8.926,0,0,1-.319-6.255,9.606,9.606,0,0,0-.4-6.441c-1.45,3.079-3.233,3.949-5.653,2.2.94,3.466.939,3.479,3.717,3.611.68.033.63.689.679,1.245a2.3,2.3,0,0,1-.637,1.976c-.817.723-1.478.085-2.167-.506-2.349-2.014-4.85-3.389-7.727-2.858-1.026.189-1.18-.8-1.181-1.629,0-4.723-1.77-6.393-5.154-5.523a2.587,2.587,0,0,1-1.35-.165,2.717,2.717,0,0,1-2.216-2.9c.125-2.055,1.507-1.478,2.421-1.242,2.569.663,3.154-1.276,2.654-3.859-.306-1.581.274-4.1-2.949-3.364-2.765.633-5.809-2.868-8.132-6.12-2.018-2.824-4.708-1.882-5.7,2.289,3.338-5.448,4.6.123,6.763.964-.506,1.871-2.119-.154-2.513,1.9,1.973,1.927,4.125,2.719,6.769,1.775-.043,3.578-5.3,5.835-.54,9.893-2.711.209-4.875.633-6.694-.615C56.2,35.744,56.3,35.5,52.6,37.041c3.777,1.032,5.727,4.892,9.358,6.842-.845-1.937-2.308-1.338-2.322-2.982.8-.836,1.754-.56,2.633-.769,3.315-.79,6.363,2.7,9.877.8,1.07-.578,1.7,2.221,1.779,3.789.094,1.934-1.182,1.307-2.014,1.261-1.291-.071-3.023-1.583-3.756.214-.992,2.431-1.935,1.091-3.022.767a19.9,19.9,0,0,0-7.794-.674c-.83.085-1.412.914-1.807,1.884-.276.677-.008,1.368.442,1.337,2.717-.195,3.087,4.611,6.008,4.165-1.351,1.71-2.7.323-3.818,1.129.523,2.414,2.372,2.568,3.412,3.678.436,2.135-2.457-.5-1.736,2.852.942,4.385,2.65.622,3.934,1.05a8.568,8.568,0,0,1-2.826,6.854c-1.141,1.144-.712-2.706-2.05-3.248-.479-.194-.864-.8-1.313-1.235a4.994,4.994,0,0,0-.4.889c-.229,1.169.7,3.108-.833,3.363s-1.666-1.041-.887-2.566c-.234-.2-.461-.543-.7-.564-1.7-.146-6.289,6.705-5.673,8.818,1.039,3.563-1.044,4.7-2.526,4.917-1.452.215-3.023-1.8-2.846-4.134.312-4.13,1.03-8.205,1.579-12.3.314,2.489.335,4.929,2.81,6.206-.135-2.747,2.005-5.362-1.03-7.4-.963-.645.413-3.214-1.96-4.477-2.182-1.161-5.663-2.088-6.35-6.663a1.254,1.254,0,0,0-1.387-1.028l-.035.032A22.916,22.916,0,0,1,37.4,62.209c-.282,1.179-.942,1.636-1.863,1.377-.5-.14-1-.728-.645-1.174,2.267-2.9.074-6.412,1.06-9.5-1.191.692-.888,2.838-2.235,3.136-.572-1.1.718-2.282-.162-3.373-2.591,2.514.717,7.61-2.428,9.835,2.232,3.41-1.207,3.265-1.586,6.231-.779-6.051-.729-5.741-4.14-4.764a5.439,5.439,0,0,0-2.681,1.793c-1.155,1.238-2.824,1.533-3.766.12-1.87-2.8-3.588-.615-5.162.034-1.6.66-1.1,3.031-.993,4.785.4,6.926,2.617,13.339,3.1,20.3.592,8.462.771,17.337,6.745,23.165.66.644,1.395,2.271-.207,2.565-4.387.8-4.362,5.124-4.078,9.2.242,3.447-.223,5.278-3.261,4.626,1.017,1.925,3.163.678,3.7,3.61,1.09,5.893,3.656,10.658,7.586,13.993.585.5,1.688.353,1.522,2.026-3.257,1.2-6.544,2.372-9.812,3.63-1.513.583-3.517.622-4.278,2.411-.883,2.074,1.307,3.057,2.028,4.528,3.1,6.333,6.114,13.046,12.691,13.929,1.7.228,2.586,1.323,1.386,3.623-1.076,2.062-1.034,3.525,1.022,4.345.632.252,1.929,1.337,1.036,2.016-3.377,2.566-.082,3.638.64,4.567a10.783,10.783,0,0,0,6.3,4.024c2.356.556,4.5,2.661,6.745,4.084l-.456,1.3c-6.074-4.128-14.335-1.5-18.5-11.783-.723.8-1.444,1.535-2.1,2.352-2.791,3.456-2.77,4.219.646,6.813a21.884,21.884,0,0,0,5.6,3.235c3.871,1.4,6.982,6.062,11.507,4.74.355-.1,1.124.662,1.253,1.21.2.872-.52,1.079-1.03,1.428-.316.216-1.927-.431-.744,1.215,2.507,3.493.8,7-.308,9.949a44.4,44.4,0,0,0-3,11.925c-.318,3.881-1.717,4.143-3.981,4.1a60.537,60.537,0,0,0-17.283,2.139c-3.781,1.048-4.286,2.274-2.7,6.714a14.881,14.881,0,0,1-.6,12.021c-1.1,2.3-1.705,4.606-.407,7.146.991,1.939,0,2.94-1.043,4.047-1.833,1.94-3.994,3.446-5.483,6.988,4.858-2.6,9.6-2.19,14.252-3.745-.279,2.553-1.567,2.987-2.786,3.138-2.011.251-3.67,1.468-5.335,2.788A24.468,24.468,0,0,0,6.71,282.9c-.514.967-2.409.637-1.786,2.538.489,1.492,1.79.746,2.765.447.645-.2,1.419-.783,1.8.3.445,1.256-.289,1.831-1.06,2.358a7.033,7.033,0,0,0-2.894,3.48c1.533.412,2.1-2.051,3.627-1.452-1.022,5.515-5.307,8.043-6.5,13.307,2.271-3.184,6.014-2.7,8.05-6.218.419-.723,1.378-.584,1.829.208.706,1.24-.55,1.245-.808,1.888-.972,2.422-2.87,2.163-4.44,2.8-1.389.559-3.041.531-3.12,3.225.843,1.115,2.307-.445,3.157,1.64A26.145,26.145,0,0,0,3.38,309.4c-1.193.849-2.549,2.162-1.937,4.223.5,1.683,1.988.9,3.046.8,1.006-.1,1.988-.691,2.993-.772,1.724-.14,3.563-.387,4.81,2.824-1.612,0-2.843-.026-4.074.01-.771.023-2.065-.235-2.087.858-.078,3.97-3.181,3.763-4.48,6.037-.439.768-1.506,1.138-.69,2.134,2,2.441,1.591,4.148-.588,5.727-.434.314-.407.971-.285,1.612.706,3.679.433,7.437.423,11.165-.005,1.943,1.03,4.044.145,5.751-1.564,3.016-.016,4.4,1.41,5.9C4.379,358.1,6.7,360.527,9.1,362.819c2.708,2.593,3.8,5.96,2.923,10.24-.652,3.19-.089,5.6,2.015,7.425a2.608,2.608,0,0,1,.875,3c-1.335-1.074-2.241.384-3.289,1.147-.663.482-2.174.375-1.887,1.227.338,1,.654,2.468,1.3,3.05.863.773,1.969-.01,2.87-.647.209-.148.772-.274.307-1.2-.923-1.843-.679-2.482.433-1.995,3.475,1.523,7.136,1.48,10.626,2.692.179.063.254.652.4,1.052-4.116.438-4.116.438-6.64,4.264,1.239.293,3.416.976,3.532.154.658-4.66,2.753-1.336,4.029-1.394,1.5-.068,3.339,2.732,3.862,2.433,2.579-1.475,1.122,1.513,1.622,2.167-1.839,1.056-1.275,2.189-.131,3.5.327.375.271,1.279-.276,1.456-1.945.627-3.958,1.758-6.258-.44.972-.775,1.449-1.12,1.9-1.521.52-.465,1.016-.978,1.608-1.553a11.024,11.024,0,0,0-8.674-.246c1.782.218,2.047,4.519,4.707,2.375-1.841,2.157-7.353,2.483-7.374.855-.088-6.43-2.731-2.035-4.3-2.372,1.515,1.18,3.522,1.817,2.419,4.871-.7,1.947-3.334.255-3.68,3.413-1.436-1.636-1.354-4.614-3.515-4.862,1.3,6.517,1.3,6.517,6,5.934a8.131,8.131,0,0,1,1.019-.121,121.4,121.4,0,0,1,17.924,1.882c-.561,6.141-3.2.744-4.554,2.238-.417,1.291,1.97,2.449.179,3.7-1.109.777-3.058,1.3-3.434-.12-1.335-5.049-2.507-1.155-3.733-.051-1.077-2.5-1.363-5.937-4.289-5.982-.524,2.135,1.59,2.089,1.473,3.674-1.444.714-3.055-.585-3.9,2.583-.83,3.113.892,2.644,1.659,3.685a3.079,3.079,0,0,1,.637,1.977c-1.393,3.544.637,3.568,2.258,4.2a1.382,1.382,0,0,1,.875,1.972c-1.637.956-3.5-.687-5.372.59.864,1.6,1.979,1.233,2.9,1.484.583.159,1.478.79,1.317,1.1-2.33,4.523,1.4,2.672,2.127,3.155a8.129,8.129,0,0,0,5,.956c1.083-.055,2.454-.373,3.008,1.835-2.252.772-4.256.163-6.247-.366-2.7-.717-4.305.358-3.33,4.236.824,3.274-.532,2.92-1.984,2.689-.781-.124-1.526-.6-2.306-.771-.645-.141-1.331-1.021-2.2.027,2.383,2.788,5.216,4.156,7.951,3.572,4.514-.965,8.2,1.572,12.11,3.463,1.2.582,2.8.74,1.758,3.564-.421,1.142,1.274,2.084,1.361,1.831,1.232-3.562,2.5.008,3.7-.131,1.266-.146,3.318,1.847,3.079-2.22-.081-1.374.928-1.483,1.762-1.437,3.057.168,1.773-3.464,1.927-4.945.157-1.513-1.67-2.479-3.186-1.584-1.309.773-2.948,1.3-3.861-.042-2.266-3.324-4.733-5.417-8.235-4.81-.324.055-.89-.494-1.045-.943-.376-1.087.641-.892.887-1.409.922-1.938,2.318-1.719,3.652-1.364a40.932,40.932,0,0,1,5.946,1.973c1.885.827,5.115,2.151,5.551,1.842,3.4-2.421,6.44.558,9.587.319.5-.037,1.157.124,1.128,1.211-.093,3.612.055,3.753,2.806,2.7a28.679,28.679,0,0,1,2.933-1.112c.862-.224,1.69.221,1.823,1.459.154,1.424-.782,1.635-1.575,1.785-.983.188-1.979-.676-3.1.094.379,2.066,3.129,2.922,1.93,5.932-3.361-3.137-3.361-3.137-5.465-2.832,2.31,2.355,2.31,2.355.185,4.874-2.776,3.29-3.007,3.319-8.516,1.079-.374.851.146,1.362.438,1.943.421.836,1.279,1.6.579,2.719a1.426,1.426,0,0,1-2.224.233c-3.358-2.643-7.192-2.583-10.832-3.635-1.185-.343-2.746-.342-3.335-1.937-1.038-2.813-2.93-3.024-4.821-3.524-1.666-.44-3.474-.567-4.939-1.561-1.893-1.284-2.364-.287-2.74,1.843a7.042,7.042,0,0,0,.618,5.1c.655,1.146,1.072,3.654.06,4.094-1.145.5-1.964.219-1.855,2.369a3.784,3.784,0,0,0,2.26,3.524,24.893,24.893,0,0,1,3.466,1.755c.822.639.942,1.993.625,3.257-.189.756-.682.871-1.086.534-3.47-2.906-7.011.371-10.629-.436,4.059,6.894,9.6,11.29,14.253,17.03a7.173,7.173,0,0,1-2.424-.614c-1.751-.469-4.231-2.787-5.129-.078-1.371,4.138,1.988,2.967,3.494,3.8a2.408,2.408,0,0,1,1.471,2.244c-.076,1.755-1.166,1.006-1.835.922-2.277-.286-3.7,2.721-5.918,2.642-.14-.005-.48.912-.41,1.013.36.521.915,1.389,1.238,1.281,3.674-1.235,4.711,4.366,7.612,5.092.553.139.869.988.813,1.8-.061.877-.506,1.381-1.168,1.2-2.484-.681-4,2.042-6.165,2.613a11.1,11.1,0,0,0,5.514,6.331c-1.481,1.817-3.085.074-4.623,1.3,3.085,1.744-.942,4.855,1.341,6.746-1.556-1.16-7.112-1.863-10.644-1.213,1.527,1.381,4.061.385,4.62,3.6-1.394.957-2.765-.768-3.987.451.359,1.1,1.962.415,1.708,1.8-.464,2.53-2.564.91-3.869,2.293,1.349,1.448,1.305,3.454,1.526,5.123-1.484,1.324-3.339-.525-4.572,1.966,1.026-.306,1.773-.8,2.461-.685,2.412.415,2.718,1.439,1.223,3.891-.608,1,.132,1.183.415,1.656.428.719,1.687,1.493.513,2.342-1.55,1.117-1.168,3.211-2.193,4.715,2.491-.092,5.166.872,4.012-4.475-.317-1.467.935-3.322,2.194-4.267a.808.808,0,0,1,.889.279c.3,1.268-.319,2.272-.694,3.34,2.158,2.369,2.383,5.618,2.4,9.016.008,1.551-1.437,3.7,0,4.472,1.455.781,2.456-1.611,3.465-2.957a6.39,6.39,0,0,0,1.187-2.183c1.134-4.541,3.917-6.919,6.767-9.141,1.763-1.376,3.918-3.049,2.82,3.853,1.963-4.333,4.548-3.422,6.378-4.914.46-.375,1.169-.622.88-1.582s-.873-1.329-1.624-.651a5.877,5.877,0,0,1-.88.686c-.834.5-2.017,1.237-2.469.063-.562-1.457.639-2.5,1.517-3.047,1.3-.814,3.249-.719,4-1.98,2.309-3.878,2.408-.763,2.594,1.287.272,2.992,1.189,4.257,3.543,3.466-1.9-5.593-1.83-5.251,2.453-6.7,1.905-.644,2.224.42,3.014,1.917,1.378,2.608-.607,1.584-1.172,2.137a1.458,1.458,0,0,0,.194,2.449,4.513,4.513,0,0,0,2.956.72c5.733-1.23,11.967,2.216,17.259-3.263.806-.835,1.713.061,2.583.349.7.232,1.326-1.3,1.247-1.3-1.863.01-1.99-5.545-4.864-1.93.557-2.44.839-4.185,2.737-3.988,1.277.132,1.256.779,1.514,2.359.408,2.5,3.57,1.057,4.428,4.011.165.567,1.495-.9,2.162-1.657,2.233-2.537,4.66-4.29,8.717-4.139-3.27,3.487-7.342,4.1-8.1,9.35-1.148-.514-1.665-.144-.731,1.242.686,1.018.932,3.333,2.794,1.831,3.058-2.469,5.949-1.058,8.474,1.555,1.287,1.333,2.076,2.163,3.674.527,1.163-1.191,3.751.207,4.242-1.942a14.764,14.764,0,0,1,3.221-6.476c.446-.537-.073-2.1.984-1.938.885.133,1.231,1.241,1.507,2.238.234.846.373,1.737.568,2.6.422,1.88,1.386,1.719,2.42,1.063,1.389-.88,1.013-1.478-.122-2.306-.856-.624-.443-1.4.241-2.025,1.023-.934,1.892-2.322,3.008-2.88,1.135-.567,2.317-5.837,3.806-.272.218.816.912.08,1.393-.349,2.074-1.846,4.511-1.83,6.85-1.958,1.631-.089,2.979,1.419,3.115,3.495.149,2.258-1.5,2.643-2.853,2.965-.484.115-1.245-1.04-1.423.041-.433,2.63-1.146,5.765.366,7.8,1.194,1.6,2.892.421,3.962-1.355-.671-1.319-2.475.494-2.391-1.745a1.217,1.217,0,0,1,1.918-1.059c2.855,2.522,1.981-1.926,3.443-3.446l1.963,4.7c.892-2.235-1.114-6.715,2.338-4.1.995-2.484,3.214-4.145,2.709-7.65-.272-1.882-.983-4.19.134-5.691,2.864-3.852-.333-6.582-.827-9.762a1.128,1.128,0,0,0-2.012-.606c-.693.719-1.273,2.467-.386,2.943,2.245,1.205,1.425,3.723.783,4.663-1.559,2.286,1.069,6.811-2.568,7.8-.467.128.158,1.189.651,1.609.851.725,2.089.014,2.852,1.467-1.671,2.746-3.954,2.457-6.2,2.206-.781-.087-1.468-1.4-.947-1.775,2.2-1.6-.447-6.34,2.766-7.088a.682.682,0,0,0,.127-1.252c-2.1-1.231.6-3.093-.261-4.473-3.889,1.476-3.889,1.476-6.917,5.142-.819-1.657-.2-3.311.252-4.675.929-2.8-1.526-6.97,1.194-8.426,2.166-1.16,4.945-.15,7.427-.453,2.683-.326,4.126,1.574,5.521,4.192,1.569,2.943.808,6.459,1.29,10.354,3.276-6.522.678-14.824,5.237-19.849-2.062,3.917-2.71,7.316,1.292,9.754,1.229.749.6,2.023.509,3.113-.137,1.645-.856,3.575-.433,4.867,1.732,5.281.179,6.461-3.519,5.881a2.219,2.219,0,0,0-2.495,1.851,2.1,2.1,0,0,0,.652,1.939,1.647,1.647,0,0,0,2.766.082c1.74-1.713,3.337-1.574,4.427,1.075,1.157-1.145.829-3.119,2-3.875a8.971,8.971,0,0,1,1.215,5.507c-.149,1.916.178,4.225,1.765,4.154,1.9-.086,1.281-2.728,1.281-4.347,0-2.073-.867-5.656-.385-5.973,2.978-1.96,2.114-5.813,3.057-10.468.657,5.379,2.914,3.967,5.122,3.843-1.165,1.362-1.986,2.177-2.662,3.165a1.632,1.632,0,0,0,.162,2c.515.585,1.056.6,1.47-.124,2.347-4.127,4.481-3.209,6.987,0,1.414,1.809,2.6.967,2.621-1.26.042-4.185,3.244-7.037,6.065-5.536,1.62.862,1.526,2.17,1.047,3.965-.644,2.412-1.52,1.513-2.555.571-.6-.55-1.41-1.8-2.044-.713-.912,1.571.955,1.72,1.078,2.484.329,2.054,2.245,4.142.886,6.1-1.37,1.973-1.775-1.446-2.875-1.7a2.793,2.793,0,0,0-.766.082c.371,3.278-.77,4.489-3.133,3.733-1.023-.328-2.275-.331-2.535-2.567l3.221-.777c-1.658-1.3-2.993-1.271-3.962-.248-1.712,1.805-1.827-1.627-3.043-1.32-.716,2.239-.843,4.869-2.853,6.324-1.063.77-.858,2.8.477,3,2.4.362,3.7,2.862,5.3,4.521,1.086,1.128,2,.577,2.978.584-.237,2.048-.425,3.665-.611,5.269,1.683.929,4.689-1.6,4.453,3.353-.011.232.454.556.732.752,4.287,3.038,4.292,3.078.81,6.611a11.5,11.5,0,0,0,.459,1.748c5.031-5.611,7.95-14.112,15.527-16.29-3.22-1.728-4.509,1.7-6.416,1.263-2.136-.495-4.012-.551-5.425,2.161a1.207,1.207,0,0,1-1.885.358c-.731-.61-.519-1.622-.229-2.441.7-1.988,1.007-3.816-.124-5.825a2.37,2.37,0,0,1,.585-2.774c.714-.469,1.12.692,1.58,1.307.613.819,1.1,1.939,2.493,1.6-1.8-3.786-.374-6.508,1.612-9.053,1.05-1.347,2.151-2.53,1.576-5.006-.844-3.642-.706-3.664,2.113-4.49.332-.1.609-.76.832-1.227,1.681-3.521,1.047-5.765-2.119-6.355-2.029-.379-3.335-1.31-4.066-4.3,1.26-.029,2.791,2.788,3.373-.751.124-.755,1.107.107,1.377,1.058.255.9.124,2.2,1.668,2.317.136-2.454.38-4.92.383-7.386,0-3.191,1.26-5.178,3.456-4.717,2.116.444-.265,3.1.69,4.554.776,0,1.76-.362,2.477.066,2.372,1.415,4.162,1.093,5.284-2.288.447-1.347,1.159-.9,1.524-.125,1.505,3.2,3.538,4.519,6.349,3.627.514-.162,1.195-.285.971,1.382-2.1-.584-3.625.9-5.108,2.751a2.07,2.07,0,0,1-3.157.268c-3.412-2.511-4.872.573-6.191,3.95-.1.265-.123.584-.218.856-.441,1.262-1.1,2-2.142,1.164a3.139,3.139,0,0,1-1.229-3.726c1.058-3,.978-4.461-1.218-8.227,1.257,6.155-1.8,11.884,1.88,16.583-.111,1.611-2.561.46-1.914,2.326,2.152,6.205.087,11.988-.92,18.584,1.515-1.671,4.411-2.255,3.3-4.179-1.51-2.62-.343-3.788.527-4.758,1.306-1.454,1.972.858,2.533,1.822.822,1.414,3.129,2.569,1.741,4.785-1.026,1.636-1.369,3.707-2.637,4.994,1.247,1.249,2.149-1.4,3.464.071-3.132,2.624.754,6.867-1.374,9.89-.071.1.236,1.005.433,1.053a10.838,10.838,0,0,1,5.72,2.94.684.684,0,0,0,1.1-.547c.471-3.541,2.536-2.323,4.041-2.266,3.163.12,6.129.224,8.535-3.441,1.01-1.537,2.72-2.946,5.053-1.5-4.567,3.977-7.366,9.343-10.194,14.928,2.595-2.086,5.5-1.834,8.223-2.661,2.7-.818,5.567-2.37,5.919-6.491.34-3.98,2.446-5.544,4.51-7.581q-1.164,3.247-2.326,6.5c4.636-6.129,4.636-6.129,6.507-4.587-1.612,1.426-3.633,2.377-3.575,5.893,1.782-3.185,3.712-5.312,6.741-3.235.362.248,1.288-.132,1.562-.614,1.188-2.086,2.818-1.539,4.357-1.533,2.729.011,5.46-.013,8.184.164,1.681.11,3.5-.179,5.047,1.4-1.009,1.861-3.874,1.845-2.894,4.509.788,2.139,3.019,2.12,5,1.906-.83-2.57-1.33-4.889.76-6.491.59-.452,1.842.033,1.564.375-2.31,2.857,2.437,5.662-1.141,8.708,2.518-.625,3.378-2.131,4.462-3.162.733-.7,1.468-1.526,2.463-1.291,2.328.55,2.325.571,2.64-2.266-1.268-.7-2.888.615-4-1.03.292-1.132.953-1.035,1.429-1.368.566-.4,1.341-.672,1.03-1.925-3.024-.462-3.031-.454-5.4-4.188a1.034,1.034,0,0,0-1.524-.421,1.539,1.539,0,0,0-.92,2c.488,2.291-.454,2.043-1.675,1.7-1.548-.436-3.156-.48-4.722-.828-1.725-.384-3.919-1.14-4.094-3.414-.355-4.64-2.4-5.605-5.65-5.292,1.972-3.688,5.486-4.685,5.908-9.1.343-3.577,2.082-5.652,4.029-7.885,2.138-2.451,4.378-3.35,6.784-1.928,3.089,1.828,7.338.77,9.077,6.131a2.206,2.206,0,0,0,.29-.114c.452-.746.1-1.409-.138-2.066-1.1-2.985.214-5.034,1.741-6.624,1.624-1.689,2.807.344,3.71,1.72,1.663,2.536,3.476,2.99,5.784,1.872.808-.391,1.823-1.208,3.125.184-2.783,3.128-5.285,6.316-6.821,10.7-.748-1.7.255-3.877-1.3-4.226-1.233-.277-.776,1.848-1.312,2.694-1.346,2.126-3.5,2.344-4.462.619-2.443-4.4-5.957-2.622-8.957-3.647-.8-.274-1.281.364-1.286,1.489-.009,2.1-.468,4.361.319,6.231.442,1.052,1.439.071,2.08-.494,2.415-2.128,2.585-.049,2.652,2.408a12.813,12.813,0,0,1-1.031,4.227c-.381,1.279-.571,2.948.391,3.732s1.575-.763,2.175-1.55a8.719,8.719,0,0,0,1.651-7.527c-.235-.99.207-1.378.816-1.554,1.771-.513,3.556-1.339,5.307-.21-.815,2.152-5.146,2.908-.852,5.98.484.345.236,1.3-.086,1.58-2.472,2.116-2.016,4.354-.553,7.134.594,1.128.181,3.012-.461,4.319-1.941,3.942-.156,4.088,2.129,3.808a23.12,23.12,0,0,0,2.377-.241c1.951-.445,2.012-2.6,2.1-4.533.1-2.258-1.321-2-2.393-2.267-.707-.178-1.535.5-2.276-.59.743-1.908,2.511-3.012,2.7-5.512-1.218.17-1.784,2.006-2.919,1.244-.45-.3-.394-1-.125-1.577.609-1.295,1.238-2.746,2.531-2.676a19.575,19.575,0,0,1,3.667.873c1.746.45,3.485,1.5,5.3.145-2.538-1.092-5.272-1.21-7.437-3.163-.048-1.834,1.878-.881,1.648-2.609-.311-2.344-1.919.282-2.631-1.1.9-1.544,2.1-2.275,3.322-2.173,2.34.2,3.433-.557,3.577-4.1.122-3,2.211-4.846,4.057-6.3,1.988-1.568,1.489,1.842,2.429,2.513.714.511,1.276.158,1.921-.179.758-.394,1.391-1.782,2.471-.6-.585,3.14-2.85,2.776-4.514,3.521.59,1.972,2.394-.3,2.816,1.8-.737,1.33-1.861.788-2.813,1.054-.852.237-2.1.073-2.051,1.713.053,1.683,1.275,1.352,2.137,1.359,2.3.02,4.861-2.782,6.8,1.29.214.45.848-.68,1.235-1.194,3.676-4.893,9.168-4.675,13.31-8.293.506-.441,1.449-1.079,1.867-.24.97,1.947,1.112.508,1.737-.361,1.3-1.809.5-4.807,2.37-6.634.607,3.271,3.273,4.737,3.339,8.315a.9.9,0,0,0,1.411.655c.841-.615,1.749-1.409,2.034.562.212,1.469-.377,3.04-1.5,3.059-3.331.057-4.577,4.833-7.623,5.568-1.271.306-.982,2.178-.684,3.466.181.782.861,1.261,1.3.431,1.023-1.919,2.746-2.016,4.112-3.015.541-.4.3-2.063,1.277-1.4a2.4,2.4,0,0,1,.515,1.573,1.786,1.786,0,0,1-1.235,1.862c-1.045.372-2.293.19-2.943,1.811.324,1.328,1.642-.313,1.934,1.45A68.137,68.137,0,0,1,308.329,553c-3.762.859-4.257,3.855-5.012,7.69,7.69-2.332,15.271,1.121,23.385-.721-3.663-2.388-7.309-.648-10.392-3.128,1.19-2.08,2.92-1.835,4.148-2.311,3.305-1.281,5.76-4.578,9.095-5.727,6.8-2.342,13.148-6.159,20.676-5.469,3.624.333,8.152-1.679,12.249-3.745-.682-.477-1.528-.707-1.636-1.214-.267-1.258.745-1.3,1.314-1.5,3.5-1.253,7.248-1.213,9.93-5.617,1.33-2.184,6.479-1.686,8.156.076-.76-2.776.452-3.508,1.919-3.639,2.488-.222,5.239-1.117,7.4-.036,1.563.783,2.349,4.307,3.643,6.938-2.864.153-4.2-1.5-4.129-6.324a48.862,48.862,0,0,1-1.735,5.292c-.465.954-1.468,1.463-.489,2.892.835,1.219,1.455,1.17,2.613.483,2.818-1.67,4.092-.647,4.278,3.369.129,2.792.682,4.948,2.783,6.233a53.275,53.275,0,0,0,1.729-5.314c.466-2.122,1.7-3.052,2.918-4.121.515-.45.8-.813.082-1.628-1.344-1.532,0-2.315.743-3.014a1.545,1.545,0,0,1,2.713.511c1.661,3.626,4.067,4.765,7.1,4.375.734-.094,1.769-.466,2.039.89.306,1.531-.776,2.055-1.56,2.523-1.045.625-2.5,1.035-2.635,2.567-.431,5.029-3.427,4.153-5.763,4.694-.691.16-1.472-.539-2.228-.67a5.357,5.357,0,0,0-6.576,5.208c-.247,5.842-1.534,9.562-6.752,8.666,5.1,2.392,8.4-.176,10.592-5.884.843-2.2,1.774-2.747,3.766-2.191,2.954.824,6.156,1.562,9.161-1.25-2.533-3.059-5.211,1.252-8.079-1.017,3.245-2.009,6.189-1.927,9.086-2.074,1.637-.082,3.2-.016,3.764-2.744.165-.806.634-1.73,1.474-1.4.673.265.525,1.211.62,1.919.168,1.254.62,3.666,1.5,2.16,1.636-2.79,1.912-.345,2.458.6,2.426,4.185,4.753,8.471,7.136,12.7.787,1.4,1.845,1.937,2.943.789.688-.72,2.332-.917,1.635-2.79-1.657-4.447,1.008-3.52,2.6-3.8,1.335-.238,3.162.7,2.255-2.892-.355-1.408.9-2.286,1.962-2.565.854-.224,1.764-.682,2.587.281.067,1.3-1.474.866-1.287,2.511,2.084-.518,2.089,1.71,2.823,3.515.91,2.238.158,4.219.089,7.547,1.222-3.19,1.9-5.89,4.056-2.365.555.908,2.9,1.461,3.542-1.459.162-.735.433-1.318,1.182-1.175,3.714.71,4.067-3.707,5.577-6.441a85.676,85.676,0,0,0-8.354,6.438c-.814.662-1.686,2.131-2.66-.359-.7-1.8-.837-3.817.359-3.828,3.651-.031,3.271-5.109,5.47-6.891,1-.808,1.852-2.508,2.039-5.049a7.621,7.621,0,0,0-3.706,4.056c-.552,1.434-2.207,2.2-2.387,1.286-.6-3.065-3.3-6.722-2.864-7.781,1.45-3.506,1.514-8.546,4.984-10.754.6,3.951-.242,7.357-.3,10.807-.016,1-.244,2.345.891,2.492,1.015.13,1.328-1,1.393-2.108.171-2.918,0-6.268,3.319-2.814.766.8,1.608-.062,2.205-1.008,3.111.581,3.772,3.2,3.274,6.865-.141,1.04-.439,3.221.2,2.963,2.948-1.2,1.556,1.737,1.6,2.837.11,2.722-.26,5.505.753,8.375,1.361-2.789,1.361-2.789.516-5.76-.882-3.1.624-7.806,2.915-9.331,1.492-.993,2.078-.421,2.1,1.73.018,1.828-1.242,3.578-.5,5.235,1.44.9,1.735-3.017,2.956-.782,1.152,2.109,1.466,5.953,4.346,2.514a2.633,2.633,0,0,1,.285.754c.158,2.948,1.388,1.015,2.11.736,1.082-.418,1.662-1.148,1.1-3-.592-1.948-.194-4.115,1.245-5.155,1.738-1.254,2.226-3.235,2.623-5.477.243-1.372.238-3.086,1.809-3.133.993,2.228-.677,4.66.4,7.259.38-1.146.665-2.581.877-2.562,3.56.314,2.356-3.419,2.807-5.7a13,13,0,0,0,.216-2.242c.028-1.348,1.432-2.982-.747-3.848-2.323-.923-.44,3.007-2.164,2.665-1.682-1.845-.985-5.6-3.952-7.587,5.55-.311,7.353-6.1,10.639-9.647.536,5.883-2.256,7.776-4.96,9.938,1.928-.849,3.644-1.872,4.986,1.184a22.955,22.955,0,0,1,8.225-16.108c1.142-1.023.643-1.813.33-2.982a2.233,2.233,0,0,1,1.317-2.711.879.879,0,0,1,1.348.793c.369,3.276.663,6.611-.731,9.617-.458.987-2.2.4-1.916,2.515.307,2.286,2.184-.4,2.646,1.438-2.754,2.951-2.828,3.159-2.914,8.42.626-.442,1.287-1.308,1.7-1.136,1.885.778,1.03-3.9,2.589-2.464,1.684,1.549-.837,3.433-.379,5.188.512,1.967-.5,1.765-1.307,2.1-.527.218-1.744-.637-1.5.762.97,5.58-1.7,4.209-3.962,4-1.041-.1-2.291-1.81-3.056-.2a5.325,5.325,0,0,0,.405,4.964c.8-.41,1.015-4.752,2.283-.606.69,2.254.848,2.964,2.158.323.709-1.429,2.572-1.5,3.133,1.173,1.949-.13,9.4-5.223,10.795-7.436.1-.153.013-.508.013-.765-2.622.229-5.214-.521-7.979.441.537-3.409,1.728-6.318,1.3-9.249-.712-4.892.453-5.813,3.63-3.868,1,.611,1.775.24,2.2-1.122.725-2.305.741-2.4,2.243-1.519,1.435.845,2.752,2.068,4.211,2.813.841.43,1.831.1,2.347-1.184.25-.623.089-1.389-.321-1.548-1.93-.742-3.194-3.921-5.723-2.572-1.466.781-2.924.008-4.224-1.011-.7-.549-1.468-1.507-.442-2.393.94-.811,1.96-1.5,1.255-3.049-.848-1.865-1.73.073-2.594.373-.694.241-1.587-.718-2.2.777,2.11,1.857,2.423,4.923,3.362,8.386-3.639-1.411-4.469-6.048-4.618-8.389-.264-4.145,4.395-2.76,6.187-5.582-3.866-.828-4.771-2.7-2.29-5.394a71.137,71.137,0,0,0,5.141-6.1c.407-.556,1.283-.559,1.293.431.038,3.4,1.213.87,1.824.629.772-.3,1.372-1.526,2.429-.8a8.131,8.131,0,0,1-.207,1.418c-1.888,5.234-1.509,10.872-1.663,16.411-.026.935.171,1.893,1.025,2.011a.979.979,0,0,0,.993-1.337c-1-2.774,1.073-3.484,2.3-5.559-3.465.779-2.607-2.611-3.021-4.457a7.85,7.85,0,0,1,1.423-5.8.747.747,0,0,1,.893-.18c1.988,1.937,2.271.295,2.382-1.9.063-1.243.845-1.187,1.513-1.311,3.571-.662,4.565,1.463,3.444,7.613,1.765-1.012,3.467-1.958,5.151-2.962,1.285-.766,2.439-2.715,4-1.205,1.339,1.293,1.107,3.316.493,5.361,1.764-.293,3-.743,3.575-2.651-.592-.767-1.7.393-2.027-1.215,3.1-3.388,7-.862,10.929-2.46-2.636-1.833-5.238-1.993-7.252-3.9-1.261-1.192-2.144-2.172-.211-3.992,2-1.883,4.178-3.688,4.026-7.945-.08-2.216,1.282-1.951,2.321-.513,1.074,1.487,1.216,3.918,3.087,5.152.049-3.843,2.211-4.25,4.179-4.529,2.443-.347,3.972-1.885,5.059-4.939-3.063.529-3.063.529-5.012-3.6-3.54-7.507-3.54-7.5,3.075-8.667.626-.111,1.527.137,1.624-1.07.089-1.1-.709-1.448-1.356-1.663-2.428-.806-4.868-1.547-7.607-2.408,1.484-1.8,2.928-.442,3.772-.894,1.79-.96,5,2.7,5.455-2.756.07-.825.833-.959,1.41-.8.76.2,1.208.775.955,1.929-.161.734-.308,1.762.436,1.808,1.681.106.786-3.382,2.589-3.49.536-.032.022-.65-.2-.765-.816-.435-2.052-.6-1.472-2.283.452-1.31,1.6-1.487,2.667-1.6.825-.091,1.853.529,2.491-1.114a16.123,16.123,0,0,0-8.7-.9c-.684.1-1.734,1.155-1.986-.391a1.645,1.645,0,0,1,1.743-2.066c1.139-.018,2.706,1.2,2.862-1.8.024-.457.984-.651,1.159-.164,1.491,4.165,2.613-.551,4.189.307-1.368-2.895-5.294-.773-4.488-5.784-1.814.906-1.64,3.551-3.019,4.493-1.571-4.944-1.138-6.132,2.428-6.622,1.581-.217,3.233.074,4.755-.411,2.971-.951,4.165,1.186,4.984,4.352,1.086,4.2-2.248,2.429-3.2,3.817.761,2.291,7.413,2.159,1.466,6.663-.116.088-.107.572-.084.861.162,2.032-.629,3.034-2.149,2.782-.3-.05-.628.2-1.195.4.663.917,2.579,1.45,1.838,1.857-2.647,1.45-1.049,4.618-2.818,7.188,3.472-1.562,6.157-2.038,8.874-.3-.083-2.407-2.286-2.048-2.129-4.148,2.11-.69,5.141-.632,5.454-3.521.252-2.327.713-1.493,1.435-1.295,1.967.536,3.32,2.614,5.4,4.431-.5-2.48-.976-4.146-1.146-5.866C590.335,446.94,588.5,445.133,585.321,445.808ZM69.543,29.6c.616-.034,1.3-.814,1.374.578-.047,2-.926,2.779-2.147,2.972-.716.113-1.7.491-1.58-1.284C67.322,29.938,68.321,29.671,69.543,29.6ZM12.775,312.416c-1.584,1.049-2.6-.893-4.059-2.054,1.457-1.661,2.6-2.712,3.828-.807C13.041,310.324,13.41,312,12.775,312.416Zm5.982-35.356c-.182,1.055-.6,2.088-1.49,2.234-2.053.335-4.114,1.02-6.8.462,2.433-3.22,5.163-2.975,7.563-3.843C18.583,275.715,18.862,276.457,18.757,277.06ZM31.4,442.08c.408-.905.891-.434,1.351.138,1.214,1.511,3.192-.116,4.63,2.269a8.812,8.812,0,0,1-5.263-.362A1.378,1.378,0,0,1,31.4,442.08Zm-8.813-22.7a9.936,9.936,0,0,1,7.712,1.384C26.909,422.145,24.67,421.423,22.586,419.379Zm18.17-231.624c2.6-1.638,5.174-.113,7.712.13.831.08.115,1.467-.049,2.235-.312,1.467-1.108,1.417-1.853.783A19.152,19.152,0,0,0,40.756,187.755Zm2.386,212.887c-.877,1.307-1.845.792-2.7.946-.551.1-1.129.077-1.281,1.046-.117.741,1.761,1.691.046,2.082-1.168.266-1.731-1.175-1.468-2.787a2.93,2.93,0,0,0-1.214-3.284c-.99-.655-.93-1.616-.1-2.421.779-.758,2.182-1.194,2.2.262C38.662,400.791,41.222,399.974,43.142,400.642ZM21.295,300c1.943-1.569,3.585-.4,5.184.372,2.545,1.229,4.836,2.423,7.834,1.582,2.475-.694,4.275,2.593,5.83,5.493C32.4,310.34,28.219,299.556,21.295,300Zm5.108,28.37a2.407,2.407,0,0,1-1.241-2.39,1.464,1.464,0,0,1,1.392-1.4,4.607,4.607,0,0,1,.972.756c2.176,2.609,4.6,2.219,6.956.785,2.649-1.612,4.066.413,5.288,2.872a4.665,4.665,0,0,1-.347,4.23c-.508.956-1.349,1.575-2.047.884C34.1,330.87,29.931,330.712,26.4,328.374ZM47.624,436.11c-.864-.135-1.58-.686-1.189-2.058.293-1.029.912-1.942,1.8-1.116,1.011.943,2.482.5,3.451,2.352C50.258,436.611,48.924,436.312,47.624,436.11Zm9.293-15.966c-.154.687-.5,1.838-.982,1.509-1.164-.8-2.479-1.542-3.1-3.253-.319-.878.109-1.446.775-1.523.7-.081,1.348-.195,1.9-1.562-1.38-.512-2.851.074-4.1-.906-1.379-1.083-1.135-2.928-1.5-4.552-1.393,3.445,1.374,5.889,1.226,9.605-1.7-1.581-3.3-2.5-3.886-5.228-.635.943-1.181,1.672-1.656,2.476-1.064,1.8-.7,2.774,1.013,2.678,2.336-.131,4.157,2.357,6.544,2.119.867-.086,1.284,1.088,1.3,2.269a6.281,6.281,0,0,1-.975,4.176c-.17.208-.6.035-.918.037.365-3.814-2.4-1.88-3.223-3.4-1.18,1.969,1.423,3.462-.35,4.822-1.225.939-2.539,1.388-3.777-.122-.08-1.378.786-1.178,1.352-1.459.432-.214.888-.438.861-1.179a1.281,1.281,0,0,0-1.172-1.319,28.363,28.363,0,0,1-3.039-.472c-1.137-.375-2-1.322-.866-2.857,2.108-2.865.04-3.486-1.3-4.368a4.118,4.118,0,0,0-1.98-.325c-1.9-.15-4.2-.807-4.253-3.375-.046-2.366,2.288-2.6,4.035-2.721-.272-1.125-1.769-1.024-1.486-2.439.223-1.118,1.139-.587,1.739-.838,1.667-.694,2.961-2.657,5.151-.681,1.01.912,1.441-2.595,2.509-3.672,1.941,4.133,3.675,4.731,6.207,1.658,1.6-1.941,1.921-.244,2.355,1.01C56.853,410.663,58.034,415.189,56.918,420.145ZM23.239,536.453c-.07.935-.649,1.4-1.185,1-1.351-1-2.616-.041-4.264.149.772-2.947,3.8-4.128,5.227-2.383A2.105,2.105,0,0,1,23.239,536.453Zm.108-25.617a1.063,1.063,0,0,1,1.34-1.261c-.057,3.341,3.179.615,3.508,3.121.2,1.539-1.189,1.494-2.061,1.416C24.615,513.973,23.552,512.912,23.346,510.836Zm5.177,10.223c-.649.38-1.376-.108-1.788-.807-.637-1.081-.012-1.7.708-1.7,1.559,0,.774-2.732,2.072-2.935a1.1,1.1,0,0,1,.862,1.129C30.29,518.563,29.888,520.261,28.523,521.058Zm11.552-46.735c-.542.716-1.376,1.082-1.852.6-1.777-1.815-4.116-1.459-6.3-3.079,1.178-1.071,2.043-1.978,2.989-2.7,2.08-1.575,4.4-.361,5.261,2.675A2.61,2.61,0,0,1,40.075,474.324Zm29.108,47.488c-1.14-.111-1.627-1.489-1.739-2.907-.106-1.338.3-1.634,1.111-.671.655,1.627,2.285-3.16,2.538.584C71.2,520.338,70.614,521.952,69.182,521.811ZM60.993,50.1c2.066-.991,3.652-.72,4.883,1.236a2.214,2.214,0,0,1-.768,3.276c-1.828,1.167-.527-.9-.761-1.408C63.656,51.7,62.258,51.56,60.993,50.1ZM63.1,68.422a2.407,2.407,0,0,1,2.1-2.453A3.93,3.93,0,0,1,69.373,67.2c.688.736,1.7,1.465,1.472,2.795-.3,1.713-1.507.641-2.424.943-1-.218-2.129-.4-3.233-.721C64.334,69.967,63.123,69.954,63.1,68.422Zm9.068,461.9c-2.353.186-4.218.709-4.222,4.762,0,1.756-.872,3.774-2.432,3.7-1.853-.09-1.837-2.646-2.415-4.716-2.016,2.405-3.393,6.371-7.147,4.724,1.324-2.071,3.363-4.461-1.007-5.017,2.243-.792,3.459-3.526,5.773-2.666.723.269,1.146-.3,1.5-1.285.858-2.364.931-2.317,3.678-.008-1.614-3.37-.329-4.908.858-5.68,1.045-.679,1.61,1.315,1.992,2.381.815,2.275,1.809,1.492,3.016.8,1.008-.576,2.576-1.338,2.923.5C75.107,530.024,73.367,530.224,72.172,530.318Zm2.587-11.386c-1.353-.643-2.027-2.675-2.187-4.682-.059-.73.527-1.867.886-1.341.871,1.271,2.486,1.4,3.046,3.2C75.628,517.035,76.218,519.624,74.759,518.932ZM79.629,66.14c-2.7.774-2.876-2.257-3.077-3.545-.226-1.45,2.19-2.414,2.664-2.236,1.687.635,3.946,2.035,3.826,4.428C82.934,66.966,80.438,65.211,79.629,66.14Zm6.834-8.722c-.328.939-1.181.741-1.774.372-1.25-.778-2.431-3.951-3.669.158-.2.678-.977-.382-1.114-1.019-.439-2.032-.622-4.075.8-6.1.841,3.026,3,3.394,4.736,4.635C85.992,55.859,86.832,56.361,86.463,57.418Zm12.178,1.471c.337.353-.71,1.3-1.281,1.717-.656.481-1.291-.169-1.376-.751-.652-4.505-3.118-8.342-2.953-14.152,1.821,2.882,6.635,2.872,2.481,8.031,1.705,1.523,2.339-.82,3.717-1.248C99.233,54.686,96.325,56.459,98.641,58.889Zm23.516,463.484c.477,1.281,1.015,3.306-.106,4.14-1.278.951-2.933.026-4.228-.621-1.928-.964-.122-2.04.288-2.949.4-.891,1.219-1.735.114-2.559-.74-.553-1.238.305-1.641,1.07-1.014,1.922-1.406,3.755.186,5.58.656.752,1.629,1.772.97,3-.618,1.153-1.369-.157-2.052-.517-.407-.215-.943-.538-1.277-.354-1.02.564-1.915,1.109-2.408-.84-.464-1.833-.27-3.215,1.255-3.995a2.273,2.273,0,0,0,1.191-2.025c-2.248.937-3.246-2.951-5.517-2.439-.523.118.423-1.621.36-2.69-.063-1.1.811-2.1,1.633-1.3,3.572,3.469,7.741,1.4,11.764,2.656C123.245,519.745,121.564,520.778,122.157,522.372ZM126.065,42c2.342-1.455,4.189-.732,6.007.548C130.069,44.153,128.239,43.477,126.065,42Zm20.649-5.04c-.774-.32-2.039-.706-1.381-2.39.538-1.377,1.364-1.813,2.4-.334,1.073,1.532,2.623,2.127,4.066,1.42,2.856-1.4,4.788,2.447,7.429,2.028.184-.029.425.573.672.928-1.066,1.987-2.727,3.089-4.151,2.286A79.5,79.5,0,0,0,146.714,36.962Zm8.356,492.046c-.151.743-.308,1.53-1.017,1.5-.733-.03-.923-.889-.893-1.616.1-2.43-.2-3.656-2.448-2.7-.561.238-2.4-1.865-2.4-2.9,0-2.089,1.67-1.274,2.611-1.438C154.383,521.98,155.939,524.737,155.069,529.008Zm-3.579-10.645c-1.135-.327-2.816-.193-2.9-2.3a3.753,3.753,0,0,1,2.528-3.757,8.753,8.753,0,0,0,2.8-1.813c.4,3.41-1.384,4.207-3.683,4.977,2.381,1.455,4.082,2.495,4.69-1.542,1.064,1.175.579,2.991,2.7,3.553C154.946,518.682,153.218,518.861,151.49,518.363ZM165.963,44.177c-2.79.836-5.712.9-8.583,1.268,1.127-2.553,2.782-2,4.253-2.327a13.147,13.147,0,0,1,4.008-.585c1.133.113,2.628-3.221,3.193-.049C169.22,44.659,166.879,43.9,165.963,44.177Zm13.1,476c-2-.549-3.281,3.322-5.437,1.6-.931-.745-.137-1.5.07-2.247a4.915,4.915,0,0,0-.126-3.678c-.882,4.589-.882,4.589-4.619,4.819.488-1.671.63-3.9,1.5-4.655.917-.8,1.273-3.514,2.35-2.56,2.164,1.916,5.272,1.994,6.516,5.68A2.083,2.083,0,0,1,179.061,520.18ZM201.108,35.724c-1.69-1.01-3.14-1.8-4.533-2.744a2.2,2.2,0,0,1-.947-2.2c.193-1.235,1.025-1.02,1.647-.909,1.979.356,4-1.312,7.04.933C201.151,31.1,200.889,33.221,201.108,35.724Zm39.249,465.947c.465-1.76,2.194-1.9,3.616-1.487.712.208.927,1.466.439,1.547-2.943.487-3.36,6.05-7.047,5.62C238.11,505.018,239.753,503.961,240.357,501.671ZM234.7,470.337c1.122.324,1.12,1.687,1.165,2.862.113,3.037-1.217,3.917-3.538,3.639-.65-.255-2.145.825-2.267-1.656C230,474,233.7,470.048,234.7,470.337Zm-.639,11.931c-.078.511-.354,1.282-.64,1.37-1.18.366-.966-1.272-1.425-1.974-.5-.768-.985-1.556-1.661-2.628a2.175,2.175,0,0,1,3.068.007C234.327,479.762,234.241,481.081,234.059,482.268ZM218.653,28.961c.93-.862,1.713.172,2.546.364.766.177,1.515.486,2.931.956-2.248,1.253-3.3,2.389-2.145,5.345.556,1.428-4.105,3.308-5.667,1.981C219.956,34.087,220.283,32.892,218.653,28.961Zm-6.8,466.261c.347-2.147.506-4.9,2.443-5.286,1.077-.216,2.035,1.642,2.514,3.509-.592,2.329-3.258.835-3.9,3.394C212.826,497.191,211.682,496.282,211.853,495.223Zm4.823,1.553c-.568,2.231-1.728,3.331-1.939,5.2-.128,1.126-1.052,2.215-2.019,1.28-1.043-1.01-.273-2.141.355-2.992A9.956,9.956,0,0,1,216.676,496.776Zm-20.018,27.7c.171-3.252,3.216-2.342,4.942-3.415.658-.409,1.21.465,1.319,1.5-1.841.212.977,5.422-2.51,3.933C199.133,525.929,196.528,526.935,196.658,524.473Zm9.89,18.935a31.228,31.228,0,0,0-3.486,1.671c-1.018.675-1.474,2.626-3.324,2.613.816-3.708,3.346-5.057,5.292-8.416-1.626.967-2.469,1.565-3.361,1.973-.945.431-1.633.235-.861-1.314.338-.68.8-1.366-.066-1.612-1.109-.317-2.87-.122-1.068-2.247.9-1.064,1.685-4.766,3.743-1.788,1.258,1.822,1.954-.054,2.873-.456.746-.327,1.341-1.969,2.266-.348C209.665,535.431,208.245,542.56,206.548,543.408Zm5.575-5.747c-2.022-.287-1.524-3.221-1.9-5.119.31-1.695.018-4.221,2.036-3.824,1.721.34,2.638,2.28,2.59,4.655C214.8,535.713,213.914,537.916,212.122,537.661Zm.813-11.652a6.211,6.211,0,0,0-4.617-.351c-.229,1.736,1.232,1.154,1.382,2.267-.768,1.735-3.186.75-3.5,3.489-.018.158-.628.42-.805.281a2.427,2.427,0,0,1-.679-2.34c.282-2.163,1.831-3.374,2.381-5.225-.752-1.548-2.063,1.506-2.553-.782-.32-1.49.571-2.042,1.309-2.784a14.089,14.089,0,0,0,1.268-2.1c.358-.541.723-1.3,1.386-.913.682.4.491,1.235.366,1.958-.636,3.686.9,4.2,3.081,3.7,1.62-.372,3.231-.786,4.848-.086C215.642,524.351,215.285,527.346,212.936,526.009Zm4.039-3c-.117-.9-1.12-1.812-.2-2.615a2.967,2.967,0,0,1,4.137-.038C220.154,523.083,218.4,522.584,216.974,523.007Zm3.824,13.14c.783-3.149.961-5.511,2.862-6.3.6-.251,1.189.5,1.118,1.251C224.532,533.69,222.832,534.43,220.8,536.147Zm4.5-34c-1.219-.6-.291-3.792.272-4.1,2.258-1.243,2.953-4.948,5.444-5.634-.134-2.01-2.169-.463-2.563-2.624,2-.681,3.79-.131,5.906.645-1.4,2.455-1.524,6.258-5.892,4.9,1.871,2.6,2.943,4.384,1.656,6.1S226.7,502.831,225.3,502.146Zm6.062,8.029c.953.965,3-.576,4.593,1.723l-9.683,1.625C228.261,511.543,227.695,506.462,231.362,510.175Zm-4,10.59c.826-2.3,4.434-.832,3.1-5.178-.128-.417,1.5-.808,2.409-.807,1.4,0,1.3,1.774,1.88,2.727.873,1.429-.253,1.819-.833,2.228C231.849,521.2,229.835,523.889,227.36,520.766Zm4.451,11.064c-.809-.082-2.023.034-1.777-1.738a1.94,1.94,0,0,1,2.022-1.868c1.017.059,1.628.8,1.842,2.127C233.655,531.99,232.672,531.917,231.812,531.83Zm12.286,8.488c-.811,3.736-7.621,5.263-9.807,2.424a2.027,2.027,0,0,1-.015-2.721,6.381,6.381,0,0,1,1.386-1.289c1.775-1.26,3.757-.763,5.591-1.183,1.641-.376,2.19-4.126,5.186-4.106A27.454,27.454,0,0,0,244.1,540.318Zm2.509-19.661c-2.076,1.261-2.952,3.305-2.851,6.311.018.544-.611,1.242-2.252.764.085.031-.529-1.074-1.742.029-.891.811-1.093-.815-.907-1.909.746-4.4,3.846-5.38,6.2-7.422.524-.456,1.071.047,1.449.666C246.8,519.589,247.013,520.41,246.607,520.657Zm.132-6.538c-.231,1.332-.993,1.415-1.861,1.145a4.533,4.533,0,0,0-3-.2c-2.168.79-2.074.754-2.279-2.007-.051-.7-.962-1.281-1.868-2.4,2.323-.146,3.715.968,5.216,1.486.59.2,1.27,1.138,1.771.063.358-.768.11-2.515,1.355-1.389A3.687,3.687,0,0,1,246.74,514.119Zm.207-29.015c-.22-1.808,1.6-1.7,2.614-1.981,1.881-.516,3.807-.741,5.709-1.126,1.539-.311,2.482.759,3.251,2.082-.062,1.155-.388,1.733-1.088,1.462-2.535-.98-4.881.18-7.3.907C248.965,486.8,247.173,486.957,246.947,485.1Zm15.495,35.453a3.713,3.713,0,0,1-3.328,3.764c-1.53.121-2.1-1.481-2.136-3.315-.043-2.489,1.252-2.875,2.763-2.917C260.934,518.35,262.566,518.442,262.442,520.557Zm.282-10.887c-.617.414-1.216.9-1.87.2a1.091,1.091,0,0,1-.249-.761c.3-1.137,1.1-.7,1.711-.862.315-.085.7-.066.486-1.046-2.019-.573-3.785.3-4.428,3.006-.71,2.989,2.026,1.472,2.651,2.917-1.563,2.218-4.735,1.878-4.88-.755-.208-3.761-1.626-3.233-3.393-2.692a9.041,9.041,0,0,1-1,.262c-2.4.444-3.471-.466-2.2-3.8.752-1.977,1.833-3.759,1.685-6.23-.055-.9.312-2.771,1.122-1.984.605.588,3.128-.088,1.873,3.08-.388.978,1.735,2.324.483,4.368,2.918-2.047,6.283-2.275,8.843-6.714.155,1.589.044,2.443.314,2.908C266.091,505.4,265.8,507.6,262.723,509.67Zm4.028-15.519c.424,1.8-1.107,1.2-1.92.971-2.283-.639-4.509-1.9-6.962-.52.23-7.052,5.045-1.157,6.149-4.79-2.3-1.371-2.2-2.742.449-3.215.856-.152,1.724-.17,2.787-.268C267.444,488.951,266.087,491.335,266.751,494.152Zm4.8-30.45c-1.365.382-.691-1.954-.873-2.928.04-2.588.411-4.708,2.648-4.968,1-.116,1.567.4,1.155,1.832C273.819,459.956,273.663,463.111,271.553,463.7Zm5.078,61.944c-.982-.06-2.226.107-2.217-1.868.008-1.579.488-3.026,1.845-3.28a8.442,8.442,0,0,1,5.033.532C280.361,524.105,278.975,525.787,276.631,525.645Zm-.1-8.661c-.882-.144-2.061.223-2.679-1.119-.7-1.519.316-2.507.957-3.458a9.163,9.163,0,0,0,1.562-4.366c.212-2.079,1.413-3.279,2.838-3.176,1.9.138.558,1.91.61,3.009.012.267.624.411.756.752C283.037,514.962,282.057,517.027,276.535,516.984Zm12.795,8.353c-1.5.35-2.94,2.534-4.406,1.237-1.768-1.565,2.158-3.516.156-5.685-.255-.276.762-.981,1.253-.67,1.868,1.188,4.189,1.348,5.5,4.321C290.963,524.822,290.155,525.145,289.33,525.337Zm2.376-13.094a28.2,28.2,0,0,1-2.918.766c-1.391-1.155-2.791-3.433-5-2.041-.148.093-.711-1.186-.338-1.41,1.287-.771,1.311-3.936,3.128-3.271,2.017.739,3.528,2.978,5.654,3.733C293.013,510.3,292.7,511.863,291.706,512.243Zm-.454-42.643c-1.421-.54-3.951-.8-3.931-2.545.03-2.515,2.62-1.081,3.586-2.059,1.468-.34,2.03.4,1.955,1.895C292.794,468.256,292.531,470.086,291.252,469.6Zm20.677,31.44c-1.844,1.345-3.964.858-5.214,3.651-1.2,2.667-3.687.835-5.922,1.142C304.734,500.633,307.387,499.492,311.929,501.04ZM295.964,26.556c.9-.2,2.97,1.21,3.142-1.818,1.7.814,1.541,2.957,1.895,4.405a5.042,5.042,0,0,1-.351,2.273c-1.716-1.995-4.151.382-5.652-1.492C294.111,28.816,293.625,27.076,295.964,26.556Zm15.227,501.634c-2.106,3.964-5.808,2.808-8.671,4.405-2.383-4.272-2.908,1.159-4.41,1.529-.522.129-.951.826-1.471,1.1-1.021.526-2.476,1.669-3.02-.008-.615-1.9,1.043-2.152,2.077-2.627.591-.27,1.5.536,1.509-1.464.025-4.08,1.626-6.724,4.876-7.193.667-.1,1.507-.215,1.247-1.513-.2-1.01-.92-.548-1.437-.45-1.011.194-2.022.405-3.022.676-1.825.495-2.811-.323-2.944-2.923s.9-3.307,2.628-3.651c1.022-.2,3.62,2.52,2.848-2.27-.159-.989,1.264-.882,2.023-.741s1.273.7.994,1.855c-.234.97-.533,1.912-.952,3.391,1.914-.738,2.589-2.38,3.663-4.073.726,1.893,1.011,3.515-.281,4.8a5.64,5.64,0,0,0-1.852,4.813,8.269,8.269,0,0,0,3.446-4.783c.515-1.585,1.483-1.772,2.544-1.464,1.368.4.937,1.682.7,2.861-.138.692-.608,1.712-.022,2.076C315.738,525.059,312.045,526.584,311.192,528.191ZM369.166,26.34a2.564,2.564,0,0,1,1.636-2.558c1.279-.283.937,1.358,1.024,2.215.261,2.567,1.019,5.175.053,7.976C369.337,32.054,369.12,29.219,369.166,26.34Zm-9.382,1.45c1.7-.478,3.061-3.036,5.072-1.583.526.381,1.424.331,1.27,1.665-.334,2.9-1.882,1.706-3.384,1.194.638,2.86,3.858,4.277,1.522,7.794-2.21-1.659-2.692-5.757-5.189-7.071a.6.6,0,0,1-.214-.32C359.154,28.874,359.4,27.9,359.784,27.79ZM355.9,482.727c1.486,3.615.338,5.963-1.578,8.084C355.04,488.373,354.033,485.389,355.9,482.727ZM351.924,32.975c.54-1.632,1.238-3.505,2.712-3.8.8-.159.837,1.216.562,2.049-.6,1.832-1.025,3.876-2.527,4.916A2.881,2.881,0,0,1,351.924,32.975Zm-1.148,469.538c1.2.02,1.934,1.493,1.858,3.179-.066,1.457-.8,2.732-1.82,2.848-1.69.193-.824-1.855-1.153-2.908C349.946,504.5,349.257,502.487,350.775,502.513ZM343.868,508c1.056.081.622,1.865,1.526,2.187,1.021-1.091.655-2.144.031-3.383-1.385-2.746.186-3.664,1.728-4.388.573-.269,1.354.8,1,1.077-2.342,1.834-.433,4.258-.669,6.337-.125,1.1-.45,2.083-1.434,2.16-.866.067-1.9.843-2.555-.315A3.492,3.492,0,0,1,343.868,508Zm-4.5-.474a3.749,3.749,0,0,1,2.129,3.163c.137,1.112-.555,2.287-1.356,2.1-1.324-.306-1.636-2.22-2.067-3.6C337.816,508.37,338.649,507.737,339.368,507.528Zm-10.651,5.336a4.481,4.481,0,0,0,3.113-1.511c.741-.756,1.477-.346,1.86.617.027.908-.208,1.5-.7,1.485-1.448-.046-2.224,1.2-3.05,2.467-.51.782-1.191.908-1.763.111a3.976,3.976,0,0,1-.881-1.829C327.211,512.983,328.05,512.893,328.717,512.864Zm11.605,11.656c-.111.483-.869.705-.977,1.186-1.245,5.566-4.3,6.175-8.212,4.774,1.883,3.655,5.006,3.293,7.184,5.868-3.743-.33-6.728,1.633-9.559,4.4a3.586,3.586,0,0,1-3.643.563c-.525-.162-1.4-.483-1.008-1.317.9-1.9,1.487-3.638.562-5.834-.884-2.1-2.817-1.658-4.323-3.369,3.9-2.461,7.651-4.268,10.067-9.105.407-.816,3.27-1.611,4.965.55,1.855,2.365,3.594,2.556,3.414-1.837-.155-3.791,2.689-2.29,3.736-4.081.675-1.155,1.719.509,1.993,1.375,1.252,3.957,3.323-.193,5.2,1.216a10.594,10.594,0,0,0-3.268,4.586c-.386.929-1.066,1.71-1.973,1.2-1.091-.608-.671-1.628-.276-2.606.343-.848.512-1.751-.224-2.381a2.414,2.414,0,0,0-2.627-.316c-.378.151-.993.9-.464,1.246C344.291,522.889,340.606,523.29,340.322,524.52Zm9.767,8.112c-1.029,1.334-2.053-.929-2.909.924-.507,1.1-1.627.474-2.306-.485a1.785,1.785,0,0,1-.293-1.968c.6-1.162,1.524-1.077,2.414-.984C348.288,530.251,349.282,531.063,350.089,532.632Zm-2.009,4.945c-.9,2.767-1.85,5.534-4.627,4.173a2.464,2.464,0,0,1-1.15-1.446c-.235-.952.454-1.194,1.017-1.331,1.6-.391,2.9-1.619,4.3-2.6,1.015-.715,1.928-1.88,2.767.842.6,1.948,2.386.76,3.65.166,1.81-.851,3.618-1.828,5.38.348C355.582,540.88,349.869,540.914,348.08,537.577Zm4.618-10.707c2.041.229,3.281,1.418,3.14,3.891a2.69,2.69,0,0,1-2.936,2.86,2.081,2.081,0,0,1-1.142-.751c-.073-.075.12-.961.261-1C355.066,531.068,352.539,528.849,352.7,526.869Zm8.67-10.163c-.451-.121-.766-.156-.925-.9-.446-2.09-.557-2.006-2-1.534-1.159.378-2.405,3.762-3.674-.088-.175-.529-1.364.314-1.446,1.67-.107,1.765-1.078,1.7-2.011,1.4-.643-.207-1.4-.474-1.43-1.6a2.5,2.5,0,0,1,1.437-2.288c1.311-.852,2.739-2.209,4.161-1.251,1.5,1.013,2.077-.3,3.177-.943,2.11-1.24,4.561-1.361,6.825-2.883.538,2.509-1.1,3.946-.423,5.842,2.256-.215,2.116-3.215,3.225-4.725.621-.845,1.348-2.063,2.282-1.262,1.048.9-.111,1.81-.369,2.654C368.941,514.872,364.761,517.622,361.368,516.707Zm10.156,10.859c-1.116-.818-.424-1.571.078-2.432,1.341-2.3,4.1-.764,5.336-3.62.266-.615.677.652.764,1.184C377.54,524.666,372.692,528.42,371.524,527.565Zm17.215-2.619c-2.1,2.317-2.985-.656-4.244-1.926-.783,1.9-1.7,3.319-3.545,2.038-1.346-.933-1.482-2.62-1.462-4.258a2.377,2.377,0,0,1,2.014-2.573c1.074-.185,2.312-1.425,2.636,1.511.158,1.442,1.455,1.188,2.576.754a44.773,44.773,0,0,1,5.83-1.481l.3.8C391.481,521.53,390.183,523.356,388.739,524.946Zm13.884-495.8c-2.765,2.725-2.768,2.719-1.168,6.746-3.092,2.876-4.632-1.8-7.473-2.16,1.944-1.564,5.7-.133,3.564-5.507-.407-1.023,1.606-1.674,2.686-1.919a2.114,2.114,0,0,1,2.7,1.252A1.417,1.417,0,0,1,402.623,29.146Zm4.831,503.78c-1.365.267-1.68-1.1-1.78-2.524-.126-1.79.427-2.888,1.877-2.849a2.028,2.028,0,0,1,2.263,2.018C409.469,531.245,408.836,532.655,407.454,532.926Zm5.453,14.23a1.778,1.778,0,0,1-1.583-2.294c.211-1.126.74-2.418,1.784-2.246,1.073.177,1.625,1.413,1.92,2.761C414.658,546.73,413.8,547.293,412.907,547.156Zm5.023-508.188c-.205.723-.815.587-1.079.088-.439-.833-.989-2.581-.527-2.757,2.5-.948,1.337-3.886,2.2-6.9C420.091,33.573,418.7,36.241,417.929,38.967Zm10.718,3.8c-.628-.016-1.56.112-1.62-1.035a1.261,1.261,0,0,1,1.7-1.427c2.228,1.091,4.007-.105,5.942-1.453C433.586,42.77,431.125,42.834,428.647,42.769Zm14.074,498.982c.061,3.122-2.544,5.938-4.728,5.232a1.81,1.81,0,0,1-1.463-2.046c.1-1.336.336-2.776,1.469-3.21.815-.312,1.769.1,2.306-1.263.416-1.06.416-3.234,1.714-2.607C443.213,538.433,442.476,540.523,442.721,541.751ZM438.346,27.762c-1.35-5.494,3.16-4.737,4.335-8.778C444.463,26.345,438.733,23.956,438.346,27.762Zm50.376-1.417c-.389,2.944-1.858,4.57-3.984,5.256-.773.249-1.438-.256-1.209-1.4.54-2.693,1.588-4.994,3.76-5.771C488.224,24.094,488.7,25.02,488.722,26.346Zm-16.774-8.861c1.992-.426,3.778-.556,5.217-3.283,1.11-2.1,3.46-1.963,5.735-1.2-1.174,2.022-2.956.6-4.032,2.756,2.067-.263,3.762-.592,4.127,3.182.25,2.569,2.826.123,4.2,1.45-.111.28-.218.88-.377.906-4.914.8-9.827,1.64-14.756,2.254-1.732.216-2.736-1.377-2.932-3.567C468.862,16.942,470.779,17.735,471.948,17.485Zm-5.405,47.773c2.067-2.711,3.458-4.743,5.834-3.052.685.488,1.608.8,1.7,1.993.115,1.513-1.185,1.085-1.629,1.756-1.247,1.885-1.044,5.061-3.279,6.366C468.473,69.933,471.78,65.463,466.542,65.258ZM466.8,45.4a11.628,11.628,0,0,1,1.935-5.751,8.018,8.018,0,0,0,1.2-4.485c.023-5.021,1.673-6.91,5.1-5.162,1.47.749,2.433,2.236,3.849.136.241-.357.872.164,1.034.788.2.778-.362,1.027-.7,1.286a11.52,11.52,0,0,0-4.253,7.745,5.162,5.162,0,0,1-.414,1.147C470.785,38.822,470.226,46,466.8,45.4Zm-6.906-23.634c-.589.575-1.469,1.582-1.846-.093A1.619,1.619,0,0,1,459.68,19.5c2.356.375,4.577.506,6.434-1.887.377.972,1.714-.39,1.791,1.3.055,1.205-.349,2.111-1.235,2.327-1.542.377-3.107.586-4.2.783C461.248,22.654,460.778,20.9,459.892,21.769ZM446.366,35.281c.8-1.142,1.554-.832,2.3.131,1.62,2.1-.211,3.379-.864,5.152C448.224,38.345,444.369,38.147,446.366,35.281ZM453.3,56.9c-.62-.031-1.393,2.393-1.949,3.785-.691,1.734-1.553,2.449-3.169,1.381,1.56-2.316,3.6-4.27,3.307-8.2-1.27,1.288-1.24,3.757-3.234,4a8.311,8.311,0,0,1,3.325-5.951c.987-.687,2.209.344,2.454,1.631C454.185,54.355,457.139,57.1,453.3,56.9Zm2.022-9.89c.012.061-.7,2.409-1.614.821-.441-.769-2.189-1.391-.757-3.035,1.046-1.2,1.539-2.865,2.312-4.574C456.976,42.807,454.884,44.854,455.32,47.014Zm1.058-12.925c-.9,2.305-2.008,4.241-4.313,2.158-.483-.437-1.422-.063-1.328-1.409A1.869,1.869,0,0,1,452.044,33c1.2-.336,2.424-.289,3.617-1.037,1.258-.789,3.051-2.087,4.013-.143.858,1.73-.337,3.629-1.5,5.279C457.055,36.391,457.693,34.482,456.377,34.089Zm1.913,10.04c1.677-1.187-.9-2.626.385-3.9,4.492,3.729,6.593-3.648,10.435-4.124-2.033,1.575-1.294,7.089-5.4,5.808-1.119-.349-2.864,1.386-3.6,3.571-.354,1.048-1.213,2.121-2.185,1.182A1.628,1.628,0,0,1,458.29,44.129Zm6.386,486.728c-1.856.98-2.559,4.9-4.47,6.768.016-.027.035-.053.051-.081-2.169-.32-1.8-1.948-.533-2.878,1.5-1.1,2.636-1.755,1.512-4.372-.635-1.476,1.156-1.938,1.175-3.45-2.3,0-3.167,2.779-4.692,4.17,1.225-6.459,6.1-5.14,9.122-7.811C467.771,526.635,468.025,529.09,464.676,530.858Zm2.839,8.98c-.59-1.684-2.806-1.537-2.624-4.028.068-.919.957-2.038,1.234-1.71,1.028,1.217,1.076,3.423,2.853,4.25Zm11.336,4.464c-.325,1.591-.879,3.127-2.772,2.963.428-2.085.9-3.79,1.1-5.549.131-1.194.515-2.973-1.526-1.873-1.461.787-1.464-1.5-1.733-2.727-.394-1.8-.271-4.192-2.628-2.7-.608.386-1.445.2-1.052-1.276,1.156-4.338-1.459-.517-1.918-1.672a15.979,15.979,0,0,1,.821-1.8c.763-1.256,1.232-3.3,2.614-3.254,1.859.066.487,2.41,1.066,3.561,1.2,2.381,2.042,5.056,4.788,2.361,2.1-2.061,3.035,1.609,4.493,2.49,1.118.675-.126,2.9-.819,3.717A12.187,12.187,0,0,0,478.851,544.3Zm-.988-21.3c.359-1.749,4.172-4.16,5.287-3.258.318.257.449.922.555,1.156-.121,1.407-4.067,5.153-4.819,4.876C477.774,525.371,477.59,524.335,477.863,523.007Zm7.924,6.893c1.773,4.382-.593,11.413-5.054,15.066C482.333,539.3,484.819,535.329,485.787,529.9Zm3.281-490.881c-3.977,2.236-8.523,2.525-11.712.35,2.276-.276,3.268-5.237,5.987-1.552.12.163,1.257-1.037,1.939-1.557,1.066-.812,2.107-1.9,3.447-1.267.935.442,2.146.8,2.271,2.319C491.146,39.063,489.818,38.6,489.068,39.019Zm2.982-22.2c.214-.41.078-1.142.059-.7-.156-2.879,3.122-6.085,4.267-5.145.981.8.7,1.731-.3,2.217-1.337.645-2.07.9-.329,2.644,1.068,1.072.134,3.419-.545,4.923-.651,1.442-1.622.453-2.4-.006C491.33,19.892,491.129,18.579,492.051,16.818Zm7.367,482c-.225.593-.853,1.423-1.2,1.344-2.424-.551-3.943,1.037-5.151,4.311-.126-4.376,3.372-8.114,5.664-6.941A1.14,1.14,0,0,1,499.418,498.816ZM502.2,29.445c-1.672.705-3.218.062-4.866-1.958,2,.078,3.334-3.3,5.1-.415C502.877,27.8,502.846,29.173,502.2,29.445Zm-3.9-16.594a2.318,2.318,0,0,1-.13-1.658c.922-2.558,2.753-1.376,4.218-1.647,1.567-.289,3.155-.371,4.726-.619,1.543-.244,2.669.274,3.114,2.992-2.794-.95-5.092.3-7.447.938C501.291,13.258,499.758,14.507,498.3,12.851Zm4.64,6.031c2.289-3.279,5-3.075,7.763-2.285.592.169,1.432.488,1.169,1.716-.174.817-.963,1.21-1.37.923C508.051,17.514,505.442,19.241,502.943,18.882Zm1.225,11.035c.726-1.347,1.305-2.4,1.865-3.466.611-1.168,1.507-1.61,2.31-.756,1.138,1.213.022,2.108-.569,2.839C506.864,29.661,505.822,30.554,504.169,29.917Zm6.449,356.923c-1.072-.121-2.376-.045-2.439-1.763-.083-2.238,1.437-1.911,2.485-1.88,1.176.034,3.132-.319,3.155,1.442C513.847,386.761,511.789,386.356,510.618,386.84Zm48.714-324.8a1.284,1.284,0,0,1,.868-.122c.506.274.522.982.364,1.538-.781,2.736-.905,5.8-2.3,8.76-1.32-2.53,1.223-6.612-2.639-7.065C557.012,63.125,559.476,65.706,559.332,62.044ZM548.474,44.631c.089-.236.924-.249,1.243.006.69.553.261,1.441-.052,1.933-1.56,2.456-3.382,4.292-6.466,3.946C545,48.067,547.422,47.4,548.474,44.631Zm-.2,103.425c.072,2.333-1.1,2.644-2.574,2.525-.593-.409-2.166.6-1.832-1.361.357-2.1,2.454-1.682,3.54-3.047C547.807,145.671,548.249,147.222,548.275,148.056ZM543,172.98c.565-2.237,2.343-1.837,3.713-2.166.761-.182,2.072-.025,1.784,1.117-.608,2.415-2.7,1.3-3.831,2.146C543.812,174.039,542.73,174.061,543,172.98Zm-4.651,306.178c1.646.993,2.561-2.1,4.1-1.339a2.14,2.14,0,0,1,.736,2.634c-.589,1.73-1.346,3.359-2.033,5.031h0c.128-1.967-.875-2.84-1.952-3.729A2.289,2.289,0,0,1,538.352,479.158Zm-1.075.448c.17,1.187-.557,1.545-1.3,1.144-1.262-.684-3.154-.422-3.358-2.891-.1-1.175,1.028-1.3,1.821-1.366C535.984,476.579,537,477.652,537.277,479.606Zm-2.1-454.826c.046-.26,1.481,1.347,1.695,2.684.181,1.137-.042,2.45-1.118,1.987-1.417-.609-2.506.273-3.847,1.165C531.406,26.492,534.712,27.361,535.172,24.78Zm-8.753,11.526c-1.671-1.291-3.255-2.233-3.348-5.667-.082-3.027,1.322-1.1,2.028-1.887,1.393,1.708,4.833-.706,4.7,3.844C529.739,34.431,527.01,34.11,526.419,36.306ZM527.5,488.951c2.424-1.153,4.815-.747,7.2.076C532.305,490.526,529.9,489.7,527.5,488.951Zm11.895-3.629a8.028,8.028,0,0,1-.663,1.693c-.507.778-.9.076-1.39-.31-1.241-.979-2.273-2.868-4.125-1.277-.809.7-1.064-1.116-1.579-1.753a1.487,1.487,0,0,1,.081-1.955c1.019-1.074,1.132,1.136,1.349.939,2.334-2.121,3.589,2.138,5.594,1.571C539.242,484.067,539.5,484.178,539.4,485.323Zm7.1-.372c-.618.286-1.655.729-1.691,1.207-.319,4.215-2.76,2.491-4.277,3.228-.794-1.822.939-2.483.622-3.9,1.079-.785,2.155-1.581,3.238-2.36.835-.6,2.381.286,2.544-1.5.188-2.042-1.635-1.643-2.52-2.753,1-2.626,3.133-2.538,4.8-3.479.688-.389.985.237,1.105,1.107C550.717,479.408,548.646,483.954,546.5,484.95Zm.78-33.832c1.87-.3,2.69-3.929,5.02-2.794a2.736,2.736,0,0,0,.789.107c.908-.316,2.521,1.291,2.752-1.581.045-.557.369-.784.65-.5a1.839,1.839,0,0,1,.34,1.173,4.258,4.258,0,0,1-2.185,3.7,6,6,0,0,1-2.952.836C550.208,452.011,548.361,454.45,547.276,451.119Zm9.838,17.871c.582-.938,1.674.415,2.211,1.345.712,1.236-.115,1.874-.772,2.472-2.439,2.219-6,1-8.027-3.214C552.9,471.356,555.021,472.362,557.114,468.99Zm1.523-284.937c-3.917-.662-6.962-4.883-11.1-4.808-.729.014-1.432-1.069-1.378-2.233.051-1.1.878-1.1,1.518-1.388,3.338-1.522,6.352-.5,10.083,2.166l-2.93,1.27c.852,2.792,2.585,1.922,4.091,1.956a1.73,1.73,0,0,1,1.794,2.071C560.6,185.139,559.406,184.183,558.637,184.053Zm21.386,12.523c1.548.566,2.941,3.589,3.66,5.9.574,1.846-1.965,3.322-3.739,2.011-3.131-2.314-6.073-5.288-10.181-4.088C572.992,197.414,576.4,195.25,580.023,196.576ZM576.609,64.919c.826.313,2.439-.633,2.256,1.422a2.733,2.733,0,0,1-2.839,2.547,2.473,2.473,0,0,1-2.179-1.829c-.573-1.444-1.3-1.5-2.183-.641-1.844,1.782-2.692-.39-4.753-1.948C570.895,64.072,573.779,63.847,576.609,64.919ZM561.673,167.4c.148-.784.654-1.356,1.24-1.256a23.377,23.377,0,0,1,10.342,4.67c-4.583,1.24-7.667-2.221-11.193-2.422C561.911,168.385,561.619,167.685,561.673,167.4Z" transform="translate(0 0)" fill="#50533c"/>
    <path id="Pfad_3459" data-name="Pfad 3459" d="M20.942,25.727c-1.76-.605-5.048.109-1.187-3.632a3.265,3.265,0,0,0,.609-1.577c.98-5.311,1.994-10.614,2.845-15.963.242-1.519.56-3.685-.9-4.388C20.7-.612,20.323,1.5,19.79,2.968a3.35,3.35,0,0,1-1.664,2.418c-.147-1.645-.053-3.978-1.844-3.31a24.927,24.927,0,0,1-5.57,1.232c-3.548.469-3.35,4.441-4.636,7.432C4.308,14.855,5.969,15.326,8,16.182c.955.4,2.267-.326,2.86,1.911l-3.212.979c.261,4.819,4.728,2.277,5.672,6.2-.582.109-1.132.455-1.406.224-2.3-1.939-4.089-.68-5.854,1.388C4.648,28.54,3.376,30.506,1.027,29.6.155,29.262-.492,31.212.5,31.442c2.137.495.626,2.768,1.162,3.459,2.43.288,5.091-4.783,6.664,1.366.766-.407,2.755.615,2.136-1.155-.958-2.743.589-1.765,1.122-1.786a2.522,2.522,0,0,1,2.23,1.777c1.141,2.524-2.407,1.6-1.6,3.985,2.115-.372,4.138-.582,6.115,1.328,1.1,1.058,2.991,1.565,4.153.112.959-1.2.871-3.129.157-4.935-.618-1.564-.07-3.215.448-4.761C24.073,27.9,22.838,26.379,20.942,25.727Z" transform="translate(564.457 463.888)" fill="#50533c"/>
    <path id="Pfad_3460" data-name="Pfad 3460" d="M8.2,14.789c.628-2.252,1.03-4.614,1.631-6.88.235-.885.5-2.351,1.6-1.413.737.628,1.478,1.49.355,2.822-1.465,1.737-1.144,4.544-2.057,6.716-.676,1.607.432,1.927,1.511,1.468,1.328-.565,1.15-2.016,1.123-3.347-.04-2.034-.674-4.554,2.16-3.766.483.134,1-.608,1.066-1.487a1.224,1.224,0,0,0-1-1.467c-2.453-.7-2.588-2.464-1.247-4.863.436-.779.827-1.6.05-2.283-.623-.545-1.311-.282-1.841.454C10.618,2.055,9.678,3.5,8.345,3.984,3.805,5.635,2.718,10.126,2.63,15.612c-.048,2.982-.1,5.891-2.086,8.2-1.466,1.7.436,2.343,1.027,3.349.9-.015,1.043-.989,1.32-1.755.434-1.2.407-3.133,1.418-3.437C7.31,21.06,7.415,17.619,8.2,14.789Zm-2.851,4.6c-.547.475-.909-.352-.986-.782C3.849,15.7,2.915,12.7,5.16,8.926,5.32,12.711,4.96,15.5,6,18,6.1,18.244,5.679,19.108,5.353,19.389Z" transform="translate(536.782 501.105)" fill="#50533c"/>
    <path id="Pfad_3461" data-name="Pfad 3461" d="M11.609,0a24.1,24.1,0,0,0-.11,3.917c.289,1.711-.368,2.2-1.4,2.322-1,.121-2.6.39-2.63-1.077C7.348-.328,5.5,1.635,3.574,3.247c-.235.2-.776.266-.91.073C1.895,2.2,1.105,1.31.25,3.024a3.723,3.723,0,0,0,.182,3.02c.615,1.487,1.713,1.638,2.647,1.012C4.851,5.87,5.6,6.622,6.013,8.991,6.2,10.1,6.527,11.345,7.62,11.6,8.4,10.619,7.348,8.891,8.7,7.885c.5,1.551,1.68,2.677.542,4.682a2.88,2.88,0,0,0-.038,2.942c.7.995,1.455.049,2.165-.285,2.256-1.062,3.163-2.846,1.679-5.794-.433-.86-1.236-1.593.011-2.415,1.726-1.137,5.959.831,6.742,3.71.669,2.455,2.162,5.729-1.826,7.283,5.8,2.211,2.585-5.733,4.912-6.416C20.7,5.314,14.608,6.061,11.609,0Z" transform="translate(547.192 530.513)" fill="#50533c"/>
    <path id="Pfad_3462" data-name="Pfad 3462" d="M10.561,10.4a1.373,1.373,0,0,1-.587-2.058c.295-.654,1.1-1.194.061-2.071C7.693,4.3,5.415,2.181,2.974,0c-.51,2.6.451,4.156,1.268,5.734,1.341,2.589.9,4-1.5,3.819C-.191,9.338-.288,11.419.262,14.829c2.077-2.339,5.506-.4,6.133-5.011,3.182,4.052,6.888,6.735,10.035,10.465C14.938,16.409,13.789,12.246,10.561,10.4Z" transform="translate(154.13 545.279)" fill="#50533c"/>
    <path id="Pfad_3463" data-name="Pfad 3463" d="M1.793,3.966c-.937.841-3.429,5.9-.157,10.161C.526,9.767,2.792,8.612,4.309,6.952c.97-1.061,2.023-3.308,3.3-2.21,1.062.913.128,3.074-.25,4.61A8.413,8.413,0,0,0,8.467,16.1C7.192,10.142,12.5,11.459,12.4,7.3,10.953,7.6,10.223,10.5,8.371,9.363c.324-1.706,1.707-1.431,2.362-2.428.338-.516.953-.79.663-1.815-.54-1.913-.494-1.921.353-2.545.727-.536,1.794-.43,2.149-2.189C9.4-.814,5.221.892,1.793,3.966Z" transform="translate(520.331 524.944)" fill="#50533c"/>
    <path id="Pfad_3464" data-name="Pfad 3464" d="M9.068,18.2a10.327,10.327,0,0,0-2.257-.97c-4.052-1.373-5-2.581-3.839-7.768A10.177,10.177,0,0,0,.753,0C1.37,2.358.6,4.852,1,6.99,1.52,9.751-.177,11.625.015,13.866c.5,5.813,3.8,8.919,8.288,8.323.727-.1,1.4-.209,1.578-1.273A2.576,2.576,0,0,0,9.068,18.2Z" transform="translate(374.194 539.466)" fill="#50533c"/>
    <path id="Pfad_3465" data-name="Pfad 3465" d="M7.278,3.444c-.04-1.138.3-2.47-.749-3.2a1.016,1.016,0,0,0-1.555.27A3.544,3.544,0,0,0,4.8,3.887c1.215,2.335.768,3.071-1.187,3.956-1.346.609-1,2.925-.338,4.35.9,1.956,1.052-1.643,2-.556.566,3.688-.481,5.6-3.487,5.568C1.078,17.2-.066,17.34,0,18.685c.076,1.461,1.363,1.962,2.072,1.529,2-1.219,6.167,1.2,5.248-5.273-.164-1.149.9-1.017,1.509-1.295s.916-.759.353-1.61C7.553,9.572,7.386,6.521,7.278,3.444Z" transform="translate(575.835 528.026)" fill="#50533c"/>
    <path id="Pfad_3466" data-name="Pfad 3466" d="M9.611.168C7.267,1.007,4.9.415,2.533.133,1.694.033.669-.406.21,1.157c-1,3.408,1.756,9.318,4.615,9.919.7.148,1.5.256,1.713-.806A1.712,1.712,0,0,0,5.27,8.109C4.69,7.953,4.1,9.286,3.206,7.517a18.511,18.511,0,0,1,6.835-3.3c1.088-.338,1.7-.66,1.381-2.258C11.178.745,10.929-.3,9.611.168Z" transform="translate(556.584 552.195)" fill="#50533c"/>
    <path id="Pfad_3467" data-name="Pfad 3467" d="M5.735,8.553C8.026,6.76,8.906,3.65,8.5.32,8.481.188,8.171.121,7.955,0c-.493,1.482-.944,2.994-1.5,4.438-.3.77-.536,1.233-1.5.584C2.362,3.264.063,5.408.471,9.2c.193,1.8-.229,3.22-.471,5.512,1.939-2.143,3.668.389,5.9.114C5.124,12.548,3.171,10.562,5.735,8.553Z" transform="translate(594.929 451.142)" fill="#50533c"/>
    <path id="Pfad_3468" data-name="Pfad 3468" d="M9.789,0c-3,1.636-5.394,4.215-8.556,4.742a1.358,1.358,0,0,0-1,2.147,15.809,15.809,0,0,0,5.487,6.492c1.262.77,2.11-.65,2.779-1.852A4,4,0,0,0,8.554,7.72c-.906-1.68-1.015.912-1.72.719-.414-.114-.957.1-1.25-.181-.6-.585-.24-1.407.1-1.95C7.022,4.172,8.416,2.1,9.789,0Z" transform="translate(199.32 578.91)" fill="#50533c"/>
    <path id="Pfad_3469" data-name="Pfad 3469" d="M7.231,0C6.607,2,4.9,3.5,6.406,6.063c1.828,3.117,1.1,5.423-1.833,6.361-1.637.525-3.315.862-4.572,3.724a54.866,54.866,0,0,1,8.664-2.167c1.382-.183,2.26-1.324,1.513-4.242C9.323,6.4,6.657,4.082,7.231,0Z" transform="translate(280.066 546.834)" fill="#50533c"/>
    <path id="Pfad_3470" data-name="Pfad 3470" d="M4.415,14.65C3.944,11.826,2.464,8.622,6.46,9.178,6,7.481,8.5,5.449,6.9,4.654,4.928,3.67,5.921,1.375,5.052,0,3.741,1.36,4.123,3.4,3.414,4.945,2.455,7.039.01,7.522,0,10.1-.012,13.481,3.442,11.855,4.415,14.65Z" transform="translate(537.53 1.009)" fill="#50533c"/>
    <path id="Pfad_3471" data-name="Pfad 3471" d="M0,14.357c1.569-1.434,1.55-2.754,1.928-3.8.366-1.016.567-2.59,1.779-2.1.91.369.7,1.72.759,2.739.156,2.774-.9,5.144-1.514,7.7,2.741-3.053,2.567-8.066,4.611-11.64C8.388,5.813,6.58,5.475,5.9,5.5c-3.186.115-2.57-1.39-1.061-3.642.244-.363.1-1.179.081-1.857C1.631,3.5,1.438,8.725,0,14.357Z" transform="translate(501.001 541.84)" fill="#50533c"/>
    <path id="Pfad_3472" data-name="Pfad 3472" d="M0,.243C.035.21.061.175.093.142L.087.134C.078.086.065.046.056,0,.039,0,.016.008,0,.009,0,.083,0,.163,0,.243Z" transform="translate(505.92 541.597)" fill="#50533c"/>
    <path id="Pfad_3473" data-name="Pfad 3473" d="M13.4.376c-.736-1.029-1.094.338-1.611.707C8.113,3.71,4.576,6.827,0,7.153c.932,2.454,2.182,4.476,4.16,2.712a89.723,89.723,0,0,1,8.63-6.993A1.677,1.677,0,0,0,13.4.376Z" transform="translate(194.001 571.314)" fill="#50533c"/>
    <path id="Pfad_3474" data-name="Pfad 3474" d="M2.128,6.433c1.956-1.484,4.095-1.54,6.24-1.714,1.293-.1,2.441-.621,2.984-3C8.037,3.149,8.042,3.145,6.581.4,6.472.2,6.2-.045,6.056.007,3.989.783,1.348.155.489,3.953.306,4.764-.337,5.581.227,6.4.759,7.168,1.573,6.854,2.128,6.433Z" transform="translate(363.62 12.442)" fill="#50533c"/>
    <path id="Pfad_3475" data-name="Pfad 3475" d="M10.469,4.053C8.426,4.142,9.86.3,7.145.019,4.1-.3,2.745,3.617,0,2.973,3.409,5.133,6.874,4.624,10.469,4.053Z" transform="translate(185.906 16.165)" fill="#50533c"/>
    <path id="Pfad_3476" data-name="Pfad 3476" d="M8.864,1.068C6.438,2.627,4.172,4.643,1.477,5.416c-.747.214-1.765.555-1.4,1.906.349,1.293,1.353.714,2.068.449C5.955,6.352,9.312,3.824,12.855.151A4.523,4.523,0,0,0,8.864,1.068Z" transform="translate(523.912 516.465)" fill="#50533c"/>
    <path id="Pfad_3477" data-name="Pfad 3477" d="M1.632,11.19C2.457,6.308,4.86,4.967,8.361,5.854,6.069,3.749,2.723,5.065,1.281,0,.672,4.341-1.454,7.529,1.632,11.19Z" transform="translate(562.984 508.818)" fill="#50533c"/>
    <path id="Pfad_3478" data-name="Pfad 3478" d="M5.675,3.495c.1-.73,1.558-1.43,1.864.4.111.659-.8,1.789.544,1.566a1.828,1.828,0,0,0,1.29-2.239A15.453,15.453,0,0,0,8,0,14.4,14.4,0,0,0,0,10.27C1.015,6.742,5.092,7.857,5.675,3.495Z" transform="translate(191.359 568.059)" fill="#50533c"/>
    <path id="Pfad_3479" data-name="Pfad 3479" d="M5.958,0C4.519.305,4.3,1.568,4.826,2.961c1.129,2.973.337,4.659-1.732,6.1A10.1,10.1,0,0,0,.81,12.32C.4,13.05-.559,13.976.44,14.937c.731.7,1.844.028,2.1-.706C3.825,10.474,6.609,7.979,7.423,3.875,7.783,2.058,7.436.625,5.958,0Z" transform="translate(143.102 540.002)" fill="#50533c"/>
    <path id="Pfad_3480" data-name="Pfad 3480" d="M3.819,7.154C6.241,5.973,7.6,3.651,7.858,0,6.666,2.023,5.919,5.069,3.324,2.246A5.378,5.378,0,0,0,.173,4.932,2.227,2.227,0,0,0,.616,7.345C1.71,8.452,2.769,7.667,3.819,7.154Z" transform="translate(576.381 507.648)" fill="#50533c"/>
    <path id="Pfad_3481" data-name="Pfad 3481" d="M.872,7.98c1.049-.009.763-1.026.45-1.914-.261-.737-.236-1.756.507-1.629,2.377.411,4.514-2.229,6.848-.985.888.473,1.491.788,1.843-.5.4-1.483-.637-1.688-1.323-2.03A22.925,22.925,0,0,0,6.588,0,11.945,11.945,0,0,1,1.127,2.819C.3,2.973.13,4.7.022,5.883-.062,6.792.071,7.986.872,7.98Z" transform="translate(582.041 33.575)" fill="#50533c"/>
    <path id="Pfad_3482" data-name="Pfad 3482" d="M2.482,7.535C6.823,9,8.679,6.881,7.735,0,6.123,3.63,3.966,5.148,1.291,5.786.234,6.038-.322,7.754.2,9.561,1.081,9.057,1.209,7.106,2.482,7.535Z" transform="translate(14.731 47.269)" fill="#50533c"/>
    <path id="Pfad_3483" data-name="Pfad 3483" d="M1.558,6.34c2.374-1.677,3.691,1.3,5.877,1.506-.9-3.529-2.669-4.922-4.9-5.756C2.245,1.983,2.246.355,1.99.29,1.213.093-.446-.657.113,1.465.558,3.155.8,6.875,1.558,6.34Z" transform="translate(596.09 36.735)" fill="#50533c"/>
    <path id="Pfad_3484" data-name="Pfad 3484" d="M0,0C2.894,3.615,6.618,3.76,10.493,4.373,7.812-1.692,3.306,1.961,0,0Z" transform="translate(64.081 2.87)" fill="#50533c"/>
    <path id="Pfad_3485" data-name="Pfad 3485" d="M2.7.017C2.511,3.77,1.042,7.028.377,10.6c-.193,1.037-.753,2.07.02,2.8.867.822,1.373-.517,1.948-1.1A5.706,5.706,0,0,0,3.7,7.5C3.421,4.992,3.041,2.506,2.7.01L2.7,0l0,0A.134.134,0,0,1,2.7.017Z" transform="translate(13.177 545.693)" fill="#50533c"/>
    <path id="Pfad_3486" data-name="Pfad 3486" d="M0,6.8C4.8,9.181,5.355,4.612,6.389,0A15.474,15.474,0,0,0,0,6.8Z" transform="translate(237.881 559.969)" fill="#50533c"/>
    <path id="Pfad_3487" data-name="Pfad 3487" d="M2.892.017C1.594.181-.279.842.035,2.771c.215,1.32-.113,4.293,2.057,4.3,1.95.006,2.34-1.841,2.4-4.239C4.467,1.6,4.549-.193,2.892.017Z" transform="translate(578.171 558.047)" fill="#50533c"/>
    <path id="Pfad_3488" data-name="Pfad 3488" d="M0,4.894C2.4,3,5.08,2.807,8.166,1.853,3.963-1.594.3-.034,0,4.894Z" transform="translate(556.782 499.643)" fill="#50533c"/>
    <path id="Pfad_3489" data-name="Pfad 3489" d="M0,11.991C3.654,9.1,5.244,3.688,8.244,0,2.7.573,3.276,8.642,0,11.991Z" transform="translate(541.994 548.707)" fill="#50533c"/>
    <path id="Pfad_3490" data-name="Pfad 3490" d="M2.61,0c-.4,1.618-.807,3-1.062,4.423C1.175,6.512-.936,8.673.487,10.511c1.215,1.57,2.5-1.8,4.077-1.8.014,0,.028-.53.037-.709C-.758,7.147,5.3,2.067,2.61,0Z" transform="translate(381.25 531.041)" fill="#50533c"/>
    <path id="Pfad_3491" data-name="Pfad 3491" d="M8.636,1.179c-2.515-2.324-5-.6-7.467.021C-.3,1.57-.177,2.822.414,4.572,2.693,1.384,5.835,2.268,8.636,1.179Z" transform="translate(349.192 7.075)" fill="#50533c"/>
    <path id="Pfad_3492" data-name="Pfad 3492" d="M6.539,0C5.171,4.6,2.07,4.27,0,6.1,4.348,9.088,6.373,7.471,6.539,0Z" transform="translate(283.838 18.948)" fill="#50533c"/>
    <path id="Pfad_3493" data-name="Pfad 3493" d="M6.659,0C.914.34-.805,2.66.33,8.686A17.609,17.609,0,0,1,6.659,0Z" transform="translate(8.803 488.737)" fill="#50533c"/>
    <path id="Pfad_3494" data-name="Pfad 3494" d="M.288.722c-.2.442-.577,1.344.093,1.414,2.564.266,2.007,3.442,2.906,5.24.351.7.4,1.976,1.248,1.773.887-.212,1.1-1.328,1.071-2.449L6.642,5.326C4.78,3.54,2.924,1.74,1.033.01.941-.074.439.388.288.722Z" transform="translate(471.104 553.203)" fill="#50533c"/>
    <path id="Pfad_3495" data-name="Pfad 3495" d="M2.363.028C1.371.169-.416,1.478.088,2.7,1,4.9,3.115,4.615,5.634,5.021,4.411,2.669,4.84-.323,2.363.028Z" transform="translate(217.12 572.219)" fill="#50533c"/>
    <path id="Pfad_3496" data-name="Pfad 3496" d="M1.338,1.521C.552,1.969-.541,2.543.307,4.107.9,5.2,1.8,5.4,2.7,4.6A8.8,8.8,0,0,0,5.786.079C3.924-.3,2.649.773,1.338,1.521Z" transform="translate(184.495 569.963)" fill="#50533c"/>
    <path id="Pfad_3497" data-name="Pfad 3497" d="M3.628,3.31c.479.83,1.739.158,2.337-.641A1.522,1.522,0,0,0,5.571.459,4.353,4.353,0,0,0,1.29.688C-.02,1.436-.336,2.881.359,6.52.731,1.553,1.427-.508,3.628,3.31Z" transform="translate(556.462 7.443)" fill="#50533c"/>
    <path id="Pfad_3498" data-name="Pfad 3498" d="M.11,1.831c1.047,1.636,1.3,4.463,3.483,4.626.672.05,1.375-.579,1.089-1.07C3.638,3.592,3.709.6,1.466,0,.63.1-.329,1.145.11,1.831Z" transform="translate(74.227 21.239)" fill="#50533c"/>
    <path id="Pfad_3499" data-name="Pfad 3499" d="M.016.129.121,0C.08.006.04.019,0,.026.005.062.011.092.016.129Z" transform="translate(431.782 20.738)" fill="#50533c"/>
    <path id="Pfad_3500" data-name="Pfad 3500" d="M1.244,1.946A1.355,1.355,0,0,0,.207,4.034c.48.956,1.333,1.7,2.254.584A5.289,5.289,0,0,1,5.5,2.593C4.664-2.856,2.658,1.981,1.244,1.946Z" transform="translate(426.284 18.171)" fill="#50533c"/>
    <path id="Pfad_3501" data-name="Pfad 3501" d="M.587,3.344a2.084,2.084,0,0,0-.34,2.371c.565.944,1.225.425,1.758-.106A12.912,12.912,0,0,0,5.356,0,9.227,9.227,0,0,0,.587,3.344Z" transform="translate(179.465 560.103)" fill="#50533c"/>
    <path id="Pfad_3502" data-name="Pfad 3502" d="M1.538,5.257c1.114.153,2.4.2,2.552-1.85A3.889,3.889,0,0,0,2.784,0,5.884,5.884,0,0,0,.1,3.71C-.361,5.4.891,5.167,1.538,5.257Z" transform="translate(153.697 9.389)" fill="#50533c"/>
    <path id="Pfad_3503" data-name="Pfad 3503" d="M5.527,1.12C2.808-1.738,1.69,1.59,0,3.169,2.955,6.7,3.764,2.131,5.527,1.12Z" transform="translate(145.37 8.185)" fill="#50533c"/>
    <path id="Pfad_3504" data-name="Pfad 3504" d="M0,3.17C-.031,3.677.15,4.568.4,4.69c1,.492,1.636-.639,2.3-1.324C3.449,2.591,4.476,2.078,4.714.293A3.14,3.14,0,0,0,1.89.42,2.855,2.855,0,0,0,0,3.17Z" transform="translate(356.905 15.732)" fill="#50533c"/>
    <path id="Pfad_3505" data-name="Pfad 3505" d="M0,3.322C2.359,1.635,5.272,2.355,7.56.363,4.579-.65,2.1.495,0,3.322Z" transform="translate(567.483 37.886)" fill="#50533c"/>
    <path id="Pfad_3506" data-name="Pfad 3506" d="M0,2.29C3.253,4.06,5.476,1.858,7.757,0,5.429,1.588,2.3-1.566,0,2.29Z" transform="translate(602.969 480.948)" fill="#50533c"/>
    <path id="Pfad_3507" data-name="Pfad 3507" d="M1.709,2.959c.765.2,1.528.408,2.152.575,1.008-.24,1.993.131,2.613-1.024a1.185,1.185,0,0,0,.083-.823C5.631.248,5.014,2.05,4.22,2.121c-.616.055-1.642.52-1.617-.585C2.656-.8,1.41.288.735.064.3-.08-.069.467.011,1.2.153,2.5.917,2.753,1.709,2.959Z" transform="translate(47.005 19.714)" fill="#50533c"/>
    <path id="Pfad_3508" data-name="Pfad 3508" d="M5.14,2.972C3.356,2.293,2.535-2.094,0,1.232,1.262,3.279,2,7.161,5.14,2.972Z" transform="translate(326.374 11.961)" fill="#50533c"/>
    <path id="Pfad_3509" data-name="Pfad 3509" d="M1.779,4.783c.693-.131.659,1.683,1.67,1.033a19.791,19.791,0,0,0-.614-4.09C2.355.44,1.478-.8.188.657,1.288,1.641-1.776,5.456,1.779,4.783Z" transform="translate(526.212 498.549)" fill="#50533c"/>
    <path id="Pfad_3510" data-name="Pfad 3510" d="M.409,5.129c.691.953,1.849-.453,2.779-.848C4.295,3.81,4.962,2.767,5.157.361,3.407,4.03,2.707,1.32,1.966,0c-1.2.814.005,1.69-.371,2.424C1.136,3.321-.843,3.4.409,5.129Z" transform="translate(557.851 42.559)" fill="#50533c"/>
    <path id="Pfad_3511" data-name="Pfad 3511" d="M.313,8C1.495,4.675,1.448,1.98,3.194.161-.307-.3-.307-.3.313,8Z" transform="translate(569.645 528.672)" fill="#50533c"/>
    <path id="Pfad_3512" data-name="Pfad 3512" d="M.1,4.2c1.27.5,3.312,1.706,3.5-.04C3.832,1.911,1.814.546,0,0,1.7,2.495,1.7,2.495.1,4.2Z" transform="translate(101.53 4.869)" fill="#50533c"/>
    <path id="Pfad_3513" data-name="Pfad 3513" d="M0,2.735,8.334.153C5.3-.228,2.381-.077,0,2.735Z" transform="translate(300.636 550.316)" fill="#50533c"/>
    <path id="Pfad_3514" data-name="Pfad 3514" d="M0,.971c2.572.3,5.19.16,7.742,1.2C5.458-.885,2.75-.151,0,.971Z" transform="translate(354.033 549.101)" fill="#50533c"/>
    <path id="Pfad_3515" data-name="Pfad 3515" d="M1.412,2.618C1.018,2.438.822,1,.358,2.48A4.776,4.776,0,0,0,.035,4.6c.186.93.942.716,1.438.481A10.114,10.114,0,0,0,6.292,0C4.083.346,3.365,3.513,1.412,2.618Z" transform="translate(446.265 564.877)" fill="#50533c"/>
    <path id="Pfad_3516" data-name="Pfad 3516" d="M2.394,0C1.877.9.076.354,0,2.409A3.859,3.859,0,0,0,1.76,5.492c.284.2.841-.1,1.193-.366.167-.125.141-.7.2-1.069C-.633,3.151,4.2,1.466,2.394,0Z" transform="translate(509.732 542.512)" fill="#50533c"/>
    <path id="Pfad_3517" data-name="Pfad 3517" d="M1.006,5.058C1.855,5,2.728,3.63,2.79,2.179,2.834,1.161,2.573.111,1.624,0,.735.409-.332.554.1,2.293.344,3.288-.126,5.138,1.006,5.058Z" transform="translate(322.618 17.928)" fill="#50533c"/>
    <path id="Pfad_3518" data-name="Pfad 3518" d="M.244,5.148C1.954,4.075,2.875,2.356,3.927,0,1.52.776-.762.905.244,5.148Z" transform="translate(293.976 552.129)" fill="#50533c"/>
    <path id="Pfad_3519" data-name="Pfad 3519" d="M1.817,3.562c1.161.3,1.516-.838,1.882-2.4A1,1,0,0,0,2.512.009C1.537.106.264.009.028,1.546-.2,3,.958,3.342,1.817,3.562Z" transform="translate(10.144 163.196)" fill="#50533c"/>
    <path id="Pfad_3520" data-name="Pfad 3520" d="M5.356,0C3.64,1.581.993-1.005,0,3.211l3.458.3.035-.032C3.889,2.285,5.252,2.109,5.356,0Z" transform="translate(33.885 46.334)" fill="#50533c"/>
    <path id="Pfad_3521" data-name="Pfad 3521" d="M4.857,2.073C-.152-1.07-.333-.981.209,4.722.833.916,3.026,2.369,4.857,2.073Z" transform="translate(97.78 20.528)" fill="#50533c"/>
    <path id="Pfad_3522" data-name="Pfad 3522" d="M2.821,3.719c.545-.1,1.371-.456,1.087-1.23C3.208.581,1.744.247,0,0,.147,2.811.963,4.074,2.821,3.719Z" transform="translate(249.536 12.449)" fill="#50533c"/>
    <path id="Pfad_3523" data-name="Pfad 3523" d="M.852,4.576C.044,5.471-.5,6.658.687,7.247c1,.495,1.26-1.236,1.507-2.265A4.814,4.814,0,0,0,.769,0C-.25,1.757,2.21,3.071.852,4.576Z" transform="translate(88.637 10.116)" fill="#50533c"/>
  </g>
</svg>
