<svg xmlns="http://www.w3.org/2000/svg" viewBox="0 0 113.28 113.25"><defs><style>.cls-1{fill:#fafafa;}</style></defs><g id="Ebene_1" data-name="Ebene 1"><g id="Gruppe_823" data-name="Gruppe 823"><path id="Pfad_3896" data-name="Pfad 3896" class="cls-1" d="M67.94,32.27A5.59,5.59,0,0,0,68,33.56a2,2,0,0,1,0,.84,10.76,10.76,0,0,0-.08,1.88,1.27,1.27,0,0,1-.1.64.29.29,0,0,0,0,.18,12.72,12.72,0,0,1-.12,1.74.69.69,0,0,1,0,.13c0,.13-.28.08-.2.27a.78.78,0,0,1,.09.37c0,.11,0,.24,0,.32-.23.34-.14.75-.27,1.12s-.17.71-.26,1.06a24,24,0,0,1-1.46,4.46c-.12.27-.21.56-.32.84A8.67,8.67,0,0,1,64.41,49a5.72,5.72,0,0,0-.24.57A21.36,21.36,0,0,1,63,51.68a.8.8,0,0,0-.08.69,4.33,4.33,0,0,1-.14,2.47,3.48,3.48,0,0,1-.84,1.29l-1.42,1.43c-.7.71-1.38,1.44-2.14,2.1-.34.3-.59.69-.94,1a7.23,7.23,0,0,0-.87.88,5.18,5.18,0,0,1-1.13,1A2.81,2.81,0,0,1,54,63a4.17,4.17,0,0,1-1.61-.1.86.86,0,0,0-.8.14,21.45,21.45,0,0,1-3.3,1.79c-.67.32-1.37.63-2.07.89a35.26,35.26,0,0,1-3.61,1.16c-.73.19-1.47.35-2.21.47-.26,0-.46.24-.74.19a1.39,1.39,0,0,0-.7.1.77.77,0,0,1-.45,0c-.2,0-.34-.08-.52.09s-.38,0-.57.06a1.42,1.42,0,0,0-.76.09,1,1,0,0,1-.38,0,16.27,16.27,0,0,0-2.21.06,18.29,18.29,0,0,0-2.34-.06c-.08,0-.21,0-.25,0-.18-.25-.4-.16-.63-.11a1.14,1.14,0,0,1-.52,0,20.78,20.78,0,0,1-2.1-.28c-.44-.15-.88-.14-1.31-.28S26,67,25.59,66.89a27.82,27.82,0,0,1-3.49-1.12l-1.69-.64-.12-.06c-.37-.07-.6-.41-1-.47a3.63,3.63,0,0,1-1-.48c-.34-.18-.69-.36-1-.56a8.88,8.88,0,0,0-.85-.56,16.23,16.23,0,0,1-1.65-1,20.55,20.55,0,0,1-2.12-1.59l-1.11-.9a2.52,2.52,0,0,1-.25-.21c-.89-.89-1.83-1.74-2.66-2.68a26.68,26.68,0,0,1-2.21-2.78c-.57-.85-1.18-1.66-1.68-2.54s-1-1.69-1.35-2.58c-.16-.37-.34-.74-.51-1.11-.07-.16-.2-.3-.12-.49a.11.11,0,0,0,0-.11,9.36,9.36,0,0,1-.92-2.1c-.09-.18,0-.36-.09-.54-.15-.38-.3-.76-.43-1.15-.21-.64-.32-1.3-.48-1.94A4.31,4.31,0,0,0,.57,40.2a.51.51,0,0,1,0-.13c-.06-.23.1-.48-.05-.69S.43,39,.41,38.75a1.12,1.12,0,0,0,0-.31,1.81,1.81,0,0,1,0-1c0-.16.16-.31-.13-.35,0,0,0-.11,0-.18A13.48,13.48,0,0,0,0,35.33a11,11,0,0,1,0-1.62,2.25,2.25,0,0,1,.13-1.09c.05-.1,0-.25,0-.38,0-.42,0-.83,0-1.24,0-.1,0-.23.18-.17s.08-.1.06-.15a2.17,2.17,0,0,1,0-1.4c.09-.31,0-.65.15-1,0-.61.27-1.17.3-1.77a.17.17,0,0,1,0-.07c.08-.32.32-.6.26-.95a4.89,4.89,0,0,0,.24-.93c.28-.8.52-1.62.78-2.44,0-.14.12-.27.17-.41A4.64,4.64,0,0,0,2.61,21c0-.24.28-.43.27-.7.37-.62.57-1.31.92-1.93.43-.79.86-1.59,1.35-2.35a25.29,25.29,0,0,1,2.13-3c.24-.55.83-.83,1.08-1.36a.27.27,0,0,1,.08-.1,27.11,27.11,0,0,1,1.88-2,8.21,8.21,0,0,1,1.57-1.32s0-.07.09-.1c.32-.28.56-.66,1-.82a7.25,7.25,0,0,1,1.26-1,2.91,2.91,0,0,1,1-.6.22.22,0,0,0,.11-.05A8.12,8.12,0,0,1,17,4.52c.5-.32,1.06-.57,1.59-.86a3,3,0,0,1,.72-.3,3,3,0,0,0,.41-.18c.26-.14.46-.4.81-.33a3,3,0,0,1,1-.49,5.26,5.26,0,0,1,1.13-.46c.37-.06.7-.33,1.11-.23.1,0,.14-.16.28-.2.62-.15,1.23-.36,1.85-.51s1.21-.27,1.82-.4A4,4,0,0,1,28.92.38,1.23,1.23,0,0,0,29.3.3a2.87,2.87,0,0,1,1,0,1.16,1.16,0,0,0,.31.07c.05,0,.07-.14.14-.17a.42.42,0,0,1,.25,0,3.85,3.85,0,0,1,1.35.11c.12,0,.23,0,.28-.15s.19-.09.3-.09h2.67a6.26,6.26,0,0,0,1.67.14c.2,0,0,.23.13.24A1.57,1.57,0,0,0,37.68.3c.15,0,.3,0,.46,0s.44.16.68.15a1.43,1.43,0,0,1,.71.05.37.37,0,0,0,.18,0c.45-.07.84.22,1.27.19.88.26,1.79.41,2.66.72.61.2,1.24.35,1.84.57a34.29,34.29,0,0,1,4.25,1.88c.78.42,1.56.83,2.32,1.28.56.33,1.08.71,1.6,1.09s1.31.92,1.91,1.44a22.1,22.1,0,0,1,1.83,1.66c.45.49.93,1,1.41,1.43a25,25,0,0,1,1.79,2.05c.68.83,1.29,1.71,1.89,2.61.16.23.3.48.44.72a27.29,27.29,0,0,1,1.38,2.41c.47,1,.93,2,1.33,3.07.3.78.58,1.56.83,2.36.2.64.34,1.29.53,1.92s.25,1.39.5,2.06c.1.28,0,.61.15.88-.06.57.16,1.11.15,1.67a2.35,2.35,0,0,0,.08.7A6.18,6.18,0,0,1,67.94,32.27Zm-6-6.48a.79.79,0,0,1-.3-.4,17.71,17.71,0,0,0-.6-1.78c-.35-.87-.76-1.73-1.15-2.59A7.63,7.63,0,0,1,59.38,20a.14.14,0,0,0-.05-.1c-.23-.13-.29-.36-.41-.57a9.87,9.87,0,0,0-.54-.88c-.33-.48-.66-1-1-1.42a19.44,19.44,0,0,0-1.6-2,3.07,3.07,0,0,1-.27-.36c-.09-.12-.19-.24-.29-.35s-.42-.38-.61-.59a21.44,21.44,0,0,0-2.05-1.88c-.53-.44-1.08-.86-1.64-1.27A28.53,28.53,0,0,0,47.44,8.4a22.62,22.62,0,0,0-3.16-1.46c-.57-.19-1.16-.33-1.72-.54a15.67,15.67,0,0,0-1.93-.52l-1.45-.3a9.6,9.6,0,0,0-1.77-.28.55.55,0,0,1-.25,0,1.65,1.65,0,0,0-.7-.09,2,2,0,0,1-1-.13.7.7,0,0,0-.38,0c-.39,0-.78,0-1.17,0-.91,0-1.81.21-2.72.14a.7.7,0,0,0-.25.05,1.66,1.66,0,0,1-.58.08,1.38,1.38,0,0,0-.45,0,1.53,1.53,0,0,1-.9,0,.13.13,0,0,0-.18.08,0,0,0,0,0,0,0,.2.2,0,0,1-.21.13,1.58,1.58,0,0,0-.38,0c-1.11.32-2.26.5-3.35.9a18,18,0,0,0-2.67,1c-.38.21-.77.39-1.16.57A25.33,25.33,0,0,0,18.81,9.4a28.67,28.67,0,0,0-2.74,1.92A20.37,20.37,0,0,0,14,13.16l-.28.28a23,23,0,0,0-2.64,2.94c-.51.67-1,1.37-1.42,2.07a16.43,16.43,0,0,0-1,1.62c-.5,1-1,2-1.46,3-.36.89-.65,1.81-.93,2.73-.21.7-.36,1.41-.51,2.12,0,.15-.14.2-.2.3s0,.25.06.37,0,.16,0,.19c-.21.17-.13.39-.14.6a1.38,1.38,0,0,1,0,.45,2.07,2.07,0,0,0-.09.7,1.38,1.38,0,0,1,0,.45,3.44,3.44,0,0,0-.09.9A2.09,2.09,0,0,1,5.07,33c-.05.08,0,.21,0,.32v1.43a.82.82,0,0,0,0,.38,2.14,2.14,0,0,1,.11.83,3,3,0,0,0,.1,1,.93.93,0,0,1,0,.33,3.91,3.91,0,0,0,.09.83,8.56,8.56,0,0,1,.19,1,5.83,5.83,0,0,0,.19,1.08,36.39,36.39,0,0,0,1,3.63c.26.77.59,1.52.92,2.26.12.27.32.52.42.79.29.73.79,1.35,1.11,2.06a2.29,2.29,0,0,0,.31.55c.61.73,1.06,1.57,1.68,2.28a14.55,14.55,0,0,0,1.13,1.34,3.31,3.31,0,0,1,.39.44,7.3,7.3,0,0,0,.93,1c.76.7,1.55,1.38,2.33,2.06a6.65,6.65,0,0,0,.59.46,21,21,0,0,0,2.7,1.78c.33.17.62.39.94.57.68.41,1.45.65,2.15,1a10.56,10.56,0,0,0,1.86.73c.48.14,1,.32,1.44.5a6.52,6.52,0,0,0,1.63.42c.9.11,1.77.35,2.66.46a1.66,1.66,0,0,0,1,.11c.33,0,.62.16,1,.15.82,0,1.65,0,2.47,0a13.27,13.27,0,0,0,2.52-.12c.37-.08.77,0,1.15-.12a5.24,5.24,0,0,1,.88-.16,5,5,0,0,0,.94-.18,17.21,17.21,0,0,0,2.73-.74.64.64,0,0,1,.31-.07,1.17,1.17,0,0,0,.63-.17c.5-.18,1-.44,1.48-.61.2-.06.39-.15.59-.22a1.94,1.94,0,0,0,.53-.23c.17-.11.33-.31.58-.19.13-.2.38-.2.54-.31.66-.46,1.38-.8,2.07-1.2a1.64,1.64,0,0,0,.22-.14,22.32,22.32,0,0,1,2.1-1.51,8.78,8.78,0,0,0,1.26-1c.92-1,1.86-1.88,2.81-2.8a5.84,5.84,0,0,0,.68-.81c.43-.62.91-1.2,1.35-1.81.29-.4.54-.82.84-1.22a12.69,12.69,0,0,0,.74-1.36,5,5,0,0,1,.31-.49.61.61,0,0,0,.11-.21c.3-.8.69-1.57,1-2.35a26.88,26.88,0,0,0,1-2.91c.2-.63.35-1.28.5-1.93a10.54,10.54,0,0,0,.28-1.38,5.65,5.65,0,0,0,.16-1.53.35.35,0,0,1,0-.2,2.33,2.33,0,0,0,.11-1.08q0-1.73,0-3.45a3,3,0,0,0-.11-1.22.85.85,0,0,1,0-.32,1.25,1.25,0,0,1,0-.51c.11-.25-.19-.3-.17-.5a4.87,4.87,0,0,0-.2-1.14,17.91,17.91,0,0,0-.58-2.51.34.34,0,0,1,.07-.36l0,0Z"/><path id="Pfad_3897" data-name="Pfad 3897" class="cls-1" d="M111.29,102.39a1.67,1.67,0,0,1-.46.56l-2.22,2.21q-2.81,2.81-5.6,5.62a1.85,1.85,0,0,0-.14.14c-.41.42-.45.36-.83,0-.78-.66-1.51-1.36-2.28-2a5.23,5.23,0,0,1-1.08-1c-.46-.08-.64-.55-1-.74a.86.86,0,0,1-.26-.2l-.78-.87c-.41,0-.57-.43-.86-.65-.57-.42-1.06-.94-1.62-1.37A7,7,0,0,1,93,102.94c-.09-.12-.16-.24-.34-.26s-.22-.13-.31-.23l-.6-.6a7.36,7.36,0,0,0-.74-.62,12,12,0,0,1-1-1c-.18-.19-.39-.34-.58-.51-.43-.37-.82-.77-1.22-1.17a9.19,9.19,0,0,0-1.05-.93,6.38,6.38,0,0,1-.75-.72L85,95.51a1.59,1.59,0,0,1-.28-.36c0-.08-.1-.18-.16-.19-.45-.07-.7-.43-1-.71-1.74-1.73-3.46-3.48-5.19-5.21-.9-.91-1.87-1.75-2.69-2.74s-1.78-1.76-2.61-2.7a1.25,1.25,0,0,1-.23-.23,1.89,1.89,0,0,0-.62-.78,6.38,6.38,0,0,1-.75-.72,10.72,10.72,0,0,1-.8-.85c-.49-.55-1-1.07-1.5-1.63a10.24,10.24,0,0,0-1.11-1.17.66.66,0,0,1-.18-.19,3,3,0,0,0-.75-.88,20.72,20.72,0,0,0-1.48-1.63,3.73,3.73,0,0,0-1-1.12c-.22-.2-.24-.51-.48-.68a2.22,2.22,0,0,1-.56-.54,11.88,11.88,0,0,0-.93-1.07l-.9-1c-.56-.65-1.15-1.28-1.69-2-.22-.29-.48-.55-.71-.83a5.31,5.31,0,0,0-.64-.78,7.18,7.18,0,0,1-.67-.79c-.13-.15-.26-.29-.4-.43a1.79,1.79,0,0,1-.42-.49,2,2,0,0,0-.39-.43c-.24-.19-.27-.52-.51-.7a.16.16,0,0,1,0-.24,3,3,0,0,1,.32-.41l2-1.95c.21-.22.51-.32.69-.58a19.81,19.81,0,0,1,2.18-2.31,3.66,3.66,0,0,1,.63-.55A1.62,1.62,0,0,0,62.8,58l0,0c.48-.48.94-1,1.43-1.42.26-.24.32-.23.62,0a7.29,7.29,0,0,1,1.49,1.22,8.8,8.8,0,0,0,.72.65c.5.44,1,.88,1.52,1.3s.81.65,1.21,1a3.47,3.47,0,0,1,.29.25,2.81,2.81,0,0,0,.78.68.64.64,0,0,1,.15.13,6.12,6.12,0,0,0,.81.8,5.57,5.57,0,0,1,.82.71c.17.17.43.25.6.44a21.44,21.44,0,0,1,1.7,1.6,3.31,3.31,0,0,1,.93.78c.18.18.3.47.62.48.3.3.62.6.91.92.1.11.17.24.34.28a.84.84,0,0,1,.46.35c.24.33.62.54.82.91,0,0,0,.07.09.07.27,0,.42.24.58.4.94,1,2,1.75,2.9,2.79a.38.38,0,0,0,.14.14,3.07,3.07,0,0,1,.94.78A17.78,17.78,0,0,1,85.45,75a.35.35,0,0,0,.19.17,2.07,2.07,0,0,1,.81.62L93,82.33c.52.52,1,1,1.56,1.56a5.16,5.16,0,0,1,.88,1,2.45,2.45,0,0,0,.46.45l1.44,1.41a2.88,2.88,0,0,1,.69.86.55.55,0,0,0,.17.2A14.88,14.88,0,0,1,99.45,89c.29.26.49.61.77.88.61.59,1.16,1.23,1.71,1.86.17.2.37.37.55.56s.22.15.22.22c0,.37.35.45.54.66a5.79,5.79,0,0,1,1,1.11.25.25,0,0,0,.08.1,18.58,18.58,0,0,1,1.52,1.68c.72.74,1.37,1.56,2.06,2.33.11.12,0,.31.18.38a.85.85,0,0,1,.35.27l1.3,1.53a4.4,4.4,0,0,0,.35.39A16.31,16.31,0,0,1,111.29,102.39Zm-4.91-1.23c0,.13.09.18.19.22a.07.07,0,0,0,.05,0,0,0,0,0,0,0,0,.2.2,0,0,0-.25-.13.49.49,0,0,0-.15-.41c-.62-.82-1.22-1.67-1.89-2.45-1-1.19-2-2.43-3-3.58-.27-.3-.51-.63-.81-.91,0,0-.11-.09-.13-.15a1.83,1.83,0,0,0-.57-.69,1.82,1.82,0,0,1-.38-.45,1.39,1.39,0,0,0-.23-.31c-.69-.63-1.23-1.4-1.87-2.07s-1.22-1.35-1.83-2a6.3,6.3,0,0,1-1-1.17.81.81,0,0,0-.18-.19c-1-.94-1.94-2-2.92-3l-.7-.69-2.1-2.12a1.37,1.37,0,0,1-.49-.67c0-.12-.13-.16-.21-.23-.49-.43-1-.84-1.47-1.28S85.28,77.56,84.67,77c-.81-.76-1.52-1.6-2.4-2.29-.37-.29-.67-.68-1-1s-.83-.81-1.29-1.17-1.1-1.05-1.68-1.54-1.14-1.12-1.76-1.62c-.29-.23-.54-.49-.83-.72-.45-.34-.8-.79-1.28-1.09,0,0,0,0,0,0-.42-.52-1-.84-1.48-1.35a.1.1,0,0,0,0,0A16.87,16.87,0,0,1,71.43,65a5.2,5.2,0,0,1-.86-.69,5.72,5.72,0,0,0-.87-.75c-.87-.66-1.72-1.36-2.58-2-.33-.26-.67-.49-1-.73l-.06,0s0,0-.11.07c.28.21.41.53.69.75.62.5,1.18,1.08,1.79,1.6s1.32,1.36,2.07,2c.37.3.66.7,1,1A13.8,13.8,0,0,1,73,67.42a3.24,3.24,0,0,0,.43.4,11.36,11.36,0,0,1,1.52,1.42c.7.74,1.52,1.35,2.23,2.08.47.47,1,.94,1.46,1.38s.91.87,1.36,1.31,1,.95,1.44,1.4.79.68,1.15,1.06c.62.63,1.25,1.26,1.88,1.88s1.34,1.3,2,2,1.56,1.56,2.33,2.35c.36.35.71.7,1.06,1.06.62.66,1.28,1.28,1.86,2s1.2,1.2,1.79,1.8c.41.41.83.83,1.2,1.27l.51.58a12.24,12.24,0,0,1,1.75,1.92.79.79,0,0,0,.19.17c.57.57,1.18,1.1,1.7,1.7S100,94.39,100.53,95l1,1.15c.28.3.6.57.85.89a13.79,13.79,0,0,0,1.33,1.42c.36.36.64.76,1,1.12s.88.89,1.33,1.34c.09.09.17.21.32.22Z"/><path id="Pfad_3898" data-name="Pfad 3898" class="cls-1" d="M113.27,105.9a3,3,0,0,1-.84,1.84l-3,3c-.57.57-1.11,1.16-1.71,1.69a2.66,2.66,0,0,1-2.56.7,4.15,4.15,0,0,1-1-.48c-.21-.12-.21-.23,0-.4.68-.7,1.37-1.39,2.06-2.08l5.26-5.23,1-1c.14-.14.25-.13.37,0A2.93,2.93,0,0,1,113.27,105.9Z"/><path id="Pfad_3899" data-name="Pfad 3899" class="cls-1" d="M9.07,27.16A.35.35,0,0,1,9,26.79c.18-.55.33-1.11.52-1.66a15.84,15.84,0,0,1,.66-1.6,17.93,17.93,0,0,1,1.18-2.31c.21-.31.28-.71.63-.93-.07-.28.24-.37.31-.58a5.59,5.59,0,0,1,.41-.66c.12-.21.32-.35.42-.57a2.21,2.21,0,0,1,.42-.58c.45-.44.76-1,1.24-1.41a2.79,2.79,0,0,0,.6-.68,1.7,1.7,0,0,1,.5-.5,9.63,9.63,0,0,0,.83-.73c.58-.51,1.18-1,1.79-1.48.27-.22.56-.4.83-.61s.49-.17.65-.38.43-.17.54-.4c.44-.21.87-.45,1.3-.71l1.44-.72c.24-.11.49-.18.72-.29a19.75,19.75,0,0,1,3.42-1.18A8.16,8.16,0,0,1,29.5,8.4c.37-.18.81-.06,1.19-.23a.19.19,0,0,1,.13,0c.66,0,1.33-.07,2-.15s1.61,0,2.41,0a2.49,2.49,0,0,1,1.15.12.67.67,0,0,0,.2,0,3.8,3.8,0,0,1,1,.11,8.89,8.89,0,0,0,1,.13,16.82,16.82,0,0,1,2.32.5,4.72,4.72,0,0,1,.92.3,8.11,8.11,0,0,0,.82.31l.95.31a5.78,5.78,0,0,1,.9.35,20.56,20.56,0,0,1,2.24,1.15c.2.13.42.21.62.33.5.3,1,.6,1.47.93s.75.57,1.13.86.82.63,1.21,1a9.88,9.88,0,0,1,.93.9,4,4,0,0,0,.68.69.17.17,0,0,1,.06.23s0,0,0,0h0a4.26,4.26,0,0,1-.77-.76c-.4,0-.61-.38-.93-.55s-.56-.24-.71-.54a2.72,2.72,0,0,1-.66-.33c-.46-.28-1-.49-1.43-.75-1-.56-2.13-1-3.19-1.42a9.37,9.37,0,0,0-1.36-.44,2.3,2.3,0,0,1-.66-.25,2,2,0,0,0-.68-.18c-.8-.22-1.63-.34-2.44-.53a1.7,1.7,0,0,0-.39,0A1,1,0,0,1,39,10.4a.17.17,0,0,0-.12,0c-.52,0-1-.13-1.54-.14-1.37,0-2.74,0-4.1,0a1.09,1.09,0,0,0-.51.07.45.45,0,0,1-.25.05,12.21,12.21,0,0,0-1.6.16,3.91,3.91,0,0,0-.76.14c-.68.1-1.35.25-2,.41a.7.7,0,0,1-.55,0c-.14-.06-.08.1-.11.16s-.14.08-.22.1a18.06,18.06,0,0,0-2.49.91,5.82,5.82,0,0,1-.79.3,3.06,3.06,0,0,0-.77.32l-.45.24-2.5,1.35c-.36.42-.91.55-1.32.92s-.82.63-1.22,1-.92.71-1.36,1.1a10.69,10.69,0,0,0-1,1c-.45.52-1,1-1.41,1.52S13,21,12.52,21.57a8,8,0,0,0-.89,1.26c-.11.23-.31.42-.44.64-.34.6-.68,1.19-1,1.8s-.6,1.15-.88,1.73a.23.23,0,0,1-.25.15Z"/><path id="Pfad_3901" data-name="Pfad 3901" class="cls-1" d="M9.05,27.14c0,.16.16.29,0,.48a2.45,2.45,0,0,0-.24.52l-.05,0q-.09,0-.09-.06a.76.76,0,0,1,0-.26,5.77,5.77,0,0,1,.22-.58c0-.05.1-.07.16-.1Z"/><path id="Pfad_3902" data-name="Pfad 3902" class="cls-1" d="M59.67,33.91a2.42,2.42,0,0,1,0-1.07,1.86,1.86,0,0,1,0,1.07Z"/><path id="Pfad_3903" data-name="Pfad 3903" class="cls-1" d="M52.74,16.25c.1,0,.11.09.15.15h0c0-.1,0-.14-.13-.17Z"/><path id="Pfad_3904" data-name="Pfad 3904" class="cls-1" d="M52.89,16.4h0l0,0Z"/></g></g></svg>