<svg id="Ebene_1" data-name="Ebene 1" xmlns="http://www.w3.org/2000/svg" viewBox="0 0 1799.48 1039"><defs><style>.cls-1{opacity:0.1;}.cls-2{fill:#fbfbfb;}</style></defs><g id="Gruppe_380" data-name="Gruppe 380"><g id="Gruppe_324" data-name="Gruppe 324" class="cls-1"><path id="Pfad_2290" data-name="Pfad 2290" class="cls-2" d="M26.11,311.39A9.71,9.71,0,0,1,35.34,316c1.1,1.69,2.9,3.56,1.57,5.69-1.63,2.62-3.22-2.76-5.15-.34,4.43,7.16,4.3,6.85-3.8,10.11-9,3.64-19,2.41-28,5.86V301C8.59,304.74,15.56,312.33,26.11,311.39Z"/><path id="Pfad_2291" data-name="Pfad 2291" class="cls-2" d="M1050,0h10.88c.13,3.5,3.61,5.48,5.2,10.24C1059.33,6.84,1050.78,9.91,1050,0Z"/><path id="Pfad_2292" data-name="Pfad 2292" class="cls-2" d="M8.82,252c-.46,3.94-5.12,4.12-8.82,3.7V244.81C3.65,246.45,9.44,246.67,8.82,252Z"/><path id="Pfad_2293" data-name="Pfad 2293" class="cls-2" d="M1556.68,326.79c-5-5.75-8.76-4.92-13.8.89s-7.58,4.52-8.87-3.16c-1-5.78-2.83-9.28-10.12-10-7.88-.82-17.54-1.06-23.27-5.13-8.84-6.26-19.45-7.86-28.5-14.17-7.85-5.47-19.41-10.67-30.83-11.2-11.73-.54-19.59-12.34-32-10.86-5.78-9.2-14.56-3.57-23-5.42,4.71,6,9.24,8.85,15.92,8.35a22,22,0,0,1,13,3.53c9.71,6.1,20.92,8.7,31.28,13.16,4.85,2.1,8.64,6,14.39,7.43,7.81,2,16.66,3.66,23.4,8.72,9.94,7.47,21.91,10.36,32.67,15.9,1.39.72,3.09,1.14,3.14,2.75.07,2.28-1.91,3.13-3.75,2.84-4.15-.65-8.54-1-12.3-2.73-6.86-3.09-13.84-3.47-21.19-3.5-15.39-.06-31,1.27-45.31-6.93-4.82-2.75-11.28-2.82-16.14-4.83-13.63-5.65-30.78-5-40.14-20.77-.94,4.47-1.82,8.9-7.73,7.28-4.74-1.3-4.86-4.71-3.9-8.44.73-2.84-.86-4.53-3-4.45-6.09.22-10.74-2.78-15.58-5.71-1.52-.92-4.13-1.49-4.93.25-2.55,5.5-6,2.14-9.1,1.29-6.62-1.8-13.13-4.72-19.84-5.27-7.73-.63-15-1.59-22.29-4.56-5.2-2.12-9.63-9.06-16.86-4.19-1.29.87-2.28-1.26-3.35-2.29-7.5-7.23-21.32-8.63-31.12-3.35.9,2.53,3.23,2.27,5.23,2.76,7.66,1.86,17.15,2.42,22.65,5.61,11.18,6.5,23.67,8.11,35.07,11.64,13.74,4.26,27.91,9.15,42.5,10.88,5.64.67,9.59,3.35,14.17,6.39,12.53,8.32,27.55,11,41.72,15.14,6.52,1.91,10,7.57,9.07,10.17-4.69,12.54,5,9.25,10.35,10.48,12,2.71,25.1,3.13,35.42,9.72,9.47,6,19.66,9.25,29.74,13.31,13.36,5.38,28.54,7.32,38.31,19.84-3.26,3.38-8.14,2.24-12,3.64,1.65,6.6,6.1,7.64,11.72,8.05a13.63,13.63,0,0,1,11,7c.46.81.2,3-.18,3.15-4.46,1.37-8.88,1.36-13-1.26-3.1-2-5.87-2.37-8.82.74-3.88,4.07-14.37,2.62-16.51-2.34-.92-2.14-1.38-3.58-4-3.94-13.44-1.89-25.74-7.44-38.38-12-7-2.52-14.23-4.56-21.17-7.43-2.06-.85-5.1-1.17-6,2.1-.82,3,1.94,3,3.7,4,6.33,3.69,13.61,5.06,20.52,7.48-1.34,3.19-3.28,3-4.94,2.54-9.29-2.62-21-2.81-27.2-8.73-8.32-7.93-18.23-3.67-26.17-8.32a9.13,9.13,0,0,1-1.58-.89c-8.82-7.74-21-6.74-31.15-11.54-7.62-3.59-17.08-5-25.66-7.8-15.17-5-29.43-12.32-45.34-15.66-19.93-4.18-39.56-10-59.22-15.28-15.65-4.19-31.85-7.63-46.25-14.58,5.08-14.94-10.57-3.81-12.8-10,0,.17-.17-.56.13-.91,2.33-2.71,6.08-5.7,2.65-9.14-3.13-3.15-8.45-2.86-11.92-.69-3.81,2.39.38,5.77.9,8.75,1,5.61,4.38,7.17,9.65,6.62,2.72-.29,5.52.21,8.28.35l0,2.46c-5.79-.46-11.57,2.23-17.27-.38-11.12-5.1-23.33-5.78-34.94-8.68-23.94-6-48.69-7.81-72.92-13.17-13.78-3-29-5-43.74-4.45-12,.45-24.58,4-36,1.69-22.95-4.67-46.69-3.08-69.28-11-15.65-5.48-33.11-3.9-49.27-8.46-3-.85-8.42.24-8-3.78s5.54-1.49,8.55-2c2.05-.34,5-.86,6.21.21,8.66,7.54,17.5.37,26,1.33,1-3.66-3-5.6-1.62-9.26,4.6,1.65,9.24-2.45,13.94.58,8.71,5.6,18.93,6.3,28.67,8.29,13.8,2.83,28.07-1.17,42.07,3.14a38.55,38.55,0,0,0,21.48-.28c8.81-3,11.19.92,13.91,6.46,1.23,2.49,3.32,2.7,5,3,11.44,2.23,22.89,5.06,34.46,5.83,15.26,1,30.66,3,45.06,6.73s29.53.47,43.36,6.34c1.47.63,3.8,1.07,4.36-1.48.43-1.9-1.51-2.21-2.67-3.07s-3.78,0-3.92-3c6.71-4.23,13.45.42,20,.55,7.41.14,15-1.39,22.41,1,5.46,1.79,11.42,8.88,16.28-1,.2-.41,1.82-.52,2.54-.22,9.35,4.05,19.58,1.22,29.35,4.32,9.43,3,20.16,4.24,29.16-3.1-10.11-1.7-20.38-.38-29.89-5.4-4.54-2.39-9.23-9.45-15.49-2.2-.18.21-1.83-.31-2.16-.87-2.38-4-7.15-2.83-10.09-4.61-7.6-4.58-16.36-2.39-24.12-5.91-13.83-6.26-28.26-11.66-43.68-11.3-6.23.15-6.65-2.49-7.4-6.76,8.87-.63,17,1.33,25.29,2.69,4.69.77,11.74,8.28,14-3.14.06-.29,1.68-.35,2.57-.37,6.9-.12,14-1.12,20.1,3.3,10.87,7.91,23.88,9.75,36.4,12.84,5.1,1.26,10.51,1.78,15.83,0-.35-1.06-.38-1.94-.71-2.08-12-4.9-23.94-11-35.76-14.85-17.32-5.61-36.32-7.69-54.83-10.14-8.38-1.1-21,1-23.86-12.5-.72-3.43-3.27-2-5-2-26.91-.59-52.66-8-78.78-13.23-3.51-.7-7.2-.46-10.78-.91-6-.77-12.67-.36-17.61-8.26,27-.91,52.17-3.42,77.5,6.85,14.37,5.84,31,7.29,46.93,5.07,6-.83,10.83-.1,15.24,3.17a19.13,19.13,0,0,0,8,3.4c15.11,3.14,30,7.4,45,10.75,5.53,1.24,8.12,10.33,15.66,4.81l-9.37-9.34a44.44,44.44,0,0,1,24.64,4.09c13.57,6.9,28.12,10.19,42.29,14.8,4.64,1.51,7.8,2.09,6.33,7.65-.92,3.5,0,4.93,4,4.76,7.52-.31,15.2-1.54,22.21,3.63.55-7.56-6.16-8-9.31-13.25a92.15,92.15,0,0,0,25.64,3.32c11-.21,21.65-.12,32.6,6.34,8.73,5.14,20.53,11,32.55,5a3.17,3.17,0,0,1,4.32,1.19,3.29,3.29,0,0,1,.42,1.44c.65,7.37,4.11,6.71,7.93,2.64,5-5.28,11.26-3,15.46-1.22,6.64,2.84,12.32,7.78,20,8.45,2.59.23,5.19,1.53,7.58,2.75,7.93,4,15.5,9.23,25.2,6.58,1.74-.47,3.57.92,3.13,2.2-2,5.84,2.61,4.66,5.4,5.65,8.34,3,18.83,3.91,24.48,9.61,10,10.13,23.85,10.91,34.69,18.2,6.05,4.06,15,2.71,19.39,10.11.63,1.06,1.45,1.88.48,3.13S1557.5,327.73,1556.68,326.79Z"/><path id="Pfad_2294" data-name="Pfad 2294" class="cls-2" d="M1175.59,844.73c7.35,3.6,14.87,7.91,21.92-.74a2.91,2.91,0,0,1,2.43-1c10.23,3.44,21.06-.7,31.57,3.39,8,3.14,16.65,9.5,28.31,2.16-8.22-3.2-15.57-5.37-21.2-10.46-.56-.51-2.34,0-3.42.45-3.35,1.24-6.47,0-9.75-.4-8.34-1-14.69-5.65-21.07-10.43-1.49-1.12-5-.27-4.25-3.46.67-2.93,3.95-3.59,5.94-2.69,8,3.63,17,2.75,25,5.83,10.55,4.05,19.47,13.47,32.45,9.55,1.37-.41,4.79-.08,4.46,1.72-1.53,8.36,5.35,5.38,8.45,6.1,17.54,4,36.25,3.17,52.64,12,6,3.23,12.48,1.79,18.92,4,33,11.45,65,25.88,98.9,35.16,5.31,1.46,12.55,3.1,13.2,11.53.3,3.87,4.1,3.72,7.16,3.91,5.4.35,11.49-1.81,16.08,1.08,16.93,10.64,37.57,11,54.87,21.31,11.62,6.91,25.91,9.26,38.87,14,24.71,9.09,48,21.71,73.22,29.52,1.68.52,4.07.57,3.55,3.06-.65,3.08-3.18,1.4-5.1,1.66-7.71,1.07-12.06-5.61-18.19-7.45-8.76-2.61-16.9-6.33-25.17-10-12.75-5.68-24.93-12.79-38.93-15.43-5.75-1.09-11.35-2.94-17-4.44l-1.39,3c8.8,1.31,14.38,8.67,22.56,10.34,15.12,3.08,28.71,10.18,41.74,17.32,15.9,8.71,31.09,18.25,49.2,21.56,5.19,1,9.42,3.84,14,6.08,1.74.86,3.42,1.49,2.75,3.81-.62,2.16-1.91,3.73-4.39,4-2.29.2-4.34-2.42-9.08.92,13.43,3.6,23.76,9.8,34.59,15,2.14,1,5.93,2.34,4.43,5.46-1.16,2.41-4.45,1.13-6.46-.26-9.65-6.65-20.94-9.91-31.15-15.31-11.7-6.18-24.93-8.76-36-16.4-4.84-3.33-11.23-4.31-16.61-7-10.35-5.14-20.64-10.24-32.42-11.26-1.94-.17-4.22-.15-5.47-2.48-3-5.58-9.37-6.59-14.16-7.2-11.2-1.41-21.46-5.12-31.93-8.77-6.92-2.42-14.68-5.17-21.54-4.18-6.18.9-10-1-14.71-3.42-11.72-6.15-22.77-13.12-37-13.8-13-.63-26.31-1.42-38.63-7.54-4.21-2.1-6.84-7.56-13.25-6-10.28,2.53-20.93-1.86-29.09-5.5-17.8-8-38.86-7.4-54.31-21a5.6,5.6,0,0,0-3.44-.95c-6.51-.06-11.73-1.48-13.07-9.22-.51-2.91-3.72-3.88-6.48-3.92-4.35-.05-8.2-2.34-12.32-2.68-10.31-.84-18.76-9.15-29.42-7.5-8.08,1.26-15-2.24-22.35-4-20.67-5-38.27-17.78-58.74-23.43a21.64,21.64,0,0,1-11.32-6.86C1168.36,842.93,1171.91,842.93,1175.59,844.73Z"/><path id="Pfad_2295" data-name="Pfad 2295" class="cls-2" d="M1422.39,204c-2.38-6.78-7.63-4.36-11.91-5.38-10.89-2.59-21.92-4.79-31.82-10.43-2.05-1.17-4.83-1-5.61,1-2.09,5.37-6,3.15-9.09,2.4-8.75-2.1-17.32-4.94-26.06-7.08-21-5.15-38.79-21-62.1-18.48-1.6.17-5-3-5-3.14,4.63-8.5-3.61-6.07-6.58-7.54-4.16-2.06-8.35-4.42-10.43-8.35-4-7.58-5.66-1.44-7.62,1-1.73,2.17,0,4.49.62,6.81,1.19,4.18,0,6.52-5,4.92-5.46-1.75-11.16-5.07-16.46-4.57-16.29,1.51-29.38-10.67-45.44-9.44-4.18.33-7.81-3.1-8.89-6.7-1.68-5.55-5.53-4.75-8.33-3.13-4.82,2.77-8.59,4.9-13.27-.3-1.74-1.94-5.26-.64-7.82.24-3.21,1.12-6.44,1.91-9.75,1.09-2-.5-5.7,1-5.59-2.75.12-4.16,4.18-3.47,6.28-2.88,6,1.67,10.42-.09,15.27-4.83-4.85-1.12-8.61-2.77-12.32-2.67-8,.22-15.49-5.8-22.84-3.72-13.47,3.81-25.37-4.9-38.32-3-.78.12-2-1.28-2.69-2.22-6.67-9-18.83-3.68-26.52-10.07-.21-.18-1.25.26-1.59.67-4.91,6.06-10.17,2.93-15.51.76-6.58-2.66-13.54-2.74-20.52-2.68-2.67,0-5.64.26-8-.75-12.43-5.39-24.28-12.36-38.37-12.91a5.6,5.6,0,0,1-5.33-4c5.74-1.78,11.35-.88,17-.27,6.42.69,11.7,6.11,17.44,6.22,11.94.25,23.25,3.64,34.94,4.76,1.2.12,2.59.83,3.55.43,13.81-5.78,28.64-3.08,42.1-1.52,16.77,2,34.72-.11,50.48,8.33,7.41,4,17.53,2.62,23,8.19,5.74,5.83,11.7,5.19,18.05,6.08,2.09.3,4.16.94,6.25,1,5.66.28,10.7.57,11.12,8.4.2,3.71,3.67,2.3,6.48,2,8.13-1,17.3-.92,23.26,4.13,8.47,7.16,18.09,7.73,27.79,9.36,2.93.5,6,.47,8.15-2.53,1.72-2.44,4.11-2.22,6.44-.9a14.64,14.64,0,0,0,11.46,1.4c12.52-4.23,18.69,8.41,29,10.87,6.5,1.55,13.42,7.05,21.13,8.23,6,.93,12.23,1,18.51,1.49-1.29,5.87-7.39,3.15-10.6,7.22,13.75-1.68,25.45,4.58,38.26,4.06,5.29-.22,13.13-.23,15.29,8.2.46,1.81,3.52,4.12,4.71,1.37,3.4-7.81,5.9-3.08,8.66.1,2.1,2.43,4.85,3.36,7.84,4.15,9.26,2.43,17.59,7.51,27.16,9.28,4.13.77,7.19,4.1,8.48,8.65C1428.36,205.45,1423.24,206.36,1422.39,204Z"/><path id="Pfad_2296" data-name="Pfad 2296" class="cls-2" d="M847,360.69c13.28-4.43,26.08-1.46,38.83,1.88,14.77,3.87,30.54,2.49,44.82,9,6.22,2.85,13.6,1.4,19.72,2.83,15.46,3.64,31.11,5.44,46.67,8.06,16.32,2.76,32.88,3.05,49.15,7.18,11.5,2.92,23.61,2.92,33,12.49-7.5-1.22-14.64,2.59-22.1,1.08a216.66,216.66,0,0,0-26.75-3.43c-7.88-.6-16.42,4-24.06-2.33-1.79-1.49-7.11-2.42-8.67,1.31C995.05,404.7,990.86,403,987,402c-14.71-3.52-29.55-5.58-44.71-5-8.69.33-16-4.23-24-6.25-4.91-1.25-11.58-8.66-16.61,1.13-1.11,2.16-5.52,2.35-7.17-.11-7.78-11.61-20.95-12.67-32.41-16.84-9.38-3.4-19.67-.68-29.49-6.28-7-4-21.07-5.84-25.76-1.66-8.9,7.93-12.59,4.59-19-1.12-5.65-5-12.8-3.23-19.51-1.86-7.86,1.61-14.82-4.79-22-3.5-11.9,2.12-24.53-2.8-36,4.27-2.41,1.49-8-3.12-9.41,1.64-1.76,6-5.7,4.75-9.74,5.17-5.62.59-10.32-1.48-15.21-3.76-2.38-1.11-7.08.48-6.11-4,.71-3.28,3.6-5.91,8-6,9.36-.11,18.64,4.05,28.3-1.11,2.44-1.3,8.53,2.53,13,.36,2.35-1.15,6.82-.12,6.19-4.89-.52-4-3.75-4-6.86-4.27-2.35-.18-6.3,1.39-5.8-3.2.38-3.56,3.86-1.93,5.93-2.14,17.63-1.82,34.27,5.54,51.7,5.76,1.12,0,2.74.5,3.25,1.31,3.93,6.19,10.38,4.94,16.11,5.63,9.56,1.15,19.18,1.41,28.66,3.72C827.73,361.32,837.38,363.87,847,360.69Z"/><path id="Pfad_2297" data-name="Pfad 2297" class="cls-2" d="M203.08,554.83l0,0,.27,0,.06.26h0l-.46,0c0-.12.08-.24.13-.36Z"/><path id="Pfad_2298" data-name="Pfad 2298" class="cls-2" d="M173.33,537.38c-6.18,4.55-12.71,2.34-19.13,2.43-2.3,0-6.3-1.51-6.58,2.37-.19,2.66,2.82,4.6,5.55,5.25a116.32,116.32,0,0,0,12.44,2.15c3.25.39,6.45.07,9.72,1.41a55.87,55.87,0,0,0,27.6,4.17c-1.72,5,3,7.33,6.84,12.23-13.94-2.06-25.72,2.88-37.73-3.66-5.8-3.16-13.23-6.35-20.83-4.21-3,.85-6.12,2.56-5.61,6s3.73,4.41,7.09,3.68c4.33-1,8.31-.49,11.85,2.4-1,2-4.19,1.54-4.21,2.49,17.24,17.67,40.17,6.57,59.3,14.55-14.69-2.45-28.68,3.58-42.81,3.37-11.42-.17-22.73-9.31-34.21.3-.12.1-.62-.1-.82-.28-7.71-7.26-16.56-11.7-28.06-10.56,5.39-3.7,4.32-10.53,9.6-13.75-3.94,0-6.45-2.67-9.14-3.55-6.06-2-5.67-10.56-12.23-10.82-5.14-.21-8.22-3.31-11.42-6.52-1.42-1.42-3.82-2.51-2.69-5.1s3.66-1.67,5.62-1.68c14.48-.09,29,0,43.45-.09,2.62,0,5.39.72,7.77-1.31C154.16,530.57,163.78,537.76,173.33,537.38Z"/><path id="Pfad_2299" data-name="Pfad 2299" class="cls-2" d="M223.59,767.65a38.67,38.67,0,0,0-22,2c-6.76,2.52-12.48,9.17-20.65,6.52-10-3.27-20-6.79-29.76-10.89-3.34-1.41-2.6-6-2.41-9.08.18-2.86,3.45-2.78,5.77-3.15,3.28-.54,7,.82,10-1.5-1.21-3.78-7.43-1.74-6.43-6.82a11.71,11.71,0,0,1,8-8.8c4.16-1.33,5.29-3.1,4.53-6.78,14,.57,28,.5,41.88,2,6.78.75,15.8,0,18.11,10.34-4.4,0-8.93-.23-13.41.09-2.45.18-5,1.64-4.95,4.42.12,3.33,3.17,3,5.53,2.94,17.58-.58,34.8,3.32,52.27,4.15,2,.1,4.29-.16,5.89,3.35-17.9.83-35.15-3.32-52.65-2.07,9.72,2.36,20.07,1.86,28.29,8.72,1.2,1,4,.68,3.49,3-.39,1.7-2.5,2.4-4.44,2.36C241.59,768.32,232.33,769.34,223.59,767.65Z"/><path id="Pfad_2300" data-name="Pfad 2300" class="cls-2" d="M331.84,500.49c-12.43.5-24.55,3.55-37.38.91-18.64-3.84-37.79-3.07-56.82-2.69-11.53.24-23.83,2.36-32.74-8.41-.8-1-3.47-1.87-4-1.39-5.24,4.74-8.56.13-13-1.67-5.12-2.07-11.25-1.56-16.84-5.78,3.41-3.77,7.27-1.81,10.66-2.25,16.48-2.13,32.76,2.65,49.53.45,18.73-2.44,37.92-1.41,55.76,6.8a6.94,6.94,0,0,0,6,.34c19.88-7.79,39.39-2.66,58.89,1.86-13.49,3-26.28-6.1-40.83-2.4,5.68,4.15,12.1,3.54,17.21,5.8,16.3,7.22,34.37,7.78,50.32,5.9,24.17-2.84,46.84,4.8,70.37,3.79-9.48,3.51-19,6.56-28.9,1.95-1.92-.9-3.68-2.14-5.91-1.9C386.67,504.72,359.32,499.37,331.84,500.49Z"/><path id="Pfad_2301" data-name="Pfad 2301" class="cls-2" d="M1022.89,213.33c13.12,5.36,27,5.79,40.33,7.25,15.61,1.7,28.57,7.38,41.81,15.29-2.55,2.7-4.8,2.54-7.28,2.5a278.83,278.83,0,0,1-46.54-5.27c-22.54-4.29-45.87-3.4-67.86-11.14-8.3-2.92-17.42-.25-26.13-1-1.72-.15-3.76,1.3-5.22-1.69-4.19-8.54-13.39-10.9-21.25-5.67a7.09,7.09,0,0,1-5,1.56c-13.25-1.65-26.93,1.51-39.84-2.47-6.71-2.08-13.12-3.81-20.18-3.62-9.87.27-19.76.07-29.64.07,25.91-5.75,51.91-3.36,77.71-1.69,13.16.85,25.57-3.82,38.59-2,15.88,2.22,32,3.11,47.75,5.81C1007.86,212.55,1016.24,210.62,1022.89,213.33Z"/><path id="Pfad_2302" data-name="Pfad 2302" class="cls-2" d="M210.58,837.88c-11.17-2.42-22.62-.74-34-2.74-7.12-1.25-15.47,1.86-23.69.15-4.24-.88-6.7-5.33-11.35-4.42-9.14,1.79-16.1-2.92-23.17-7.59-1.35-.89-2.65-1.45-2.53-3.15.19-2.58,2.3-2.39,4-2.39,8.42,0,17-1.09,25,2.61,4.78,2.21,8.71,1,13.61-.79,8.86-3.19,19-4.66,28-2.88,9.92,2,19.2-.55,28.67-.76a93.36,93.36,0,0,1,29.85,3.91c-9.73,2.3-19.83,0-29.78,4.07,10,10.15,21.53,12.08,34.7,8.12-11.07,7.09-22.69,8.27-34.78,6.42C213.58,838.21,212.05,838.2,210.58,837.88Z"/><path id="Pfad_2303" data-name="Pfad 2303" class="cls-2" d="M1336.79,383c-2.8.16-6,1.07-9.16-2.24,11.8-4.44,20.76-2.06,29.33,7.26,2.63,2.87,6.15,3.64,9.91,3.41,3-.19,6-.39,8.8,1.27,13.94,8.31,30,9.47,45.33,11.81,21.91,3.34,43.16,8.17,63.53,16.85,4.16,1.77,7.21,5.56,11.85,6.44A232,232,0,0,1,1545,442.19c8.92,3.82,17.66,8,27,10.81,4.55,1.35,5.41,6,6.18,9.59.34,1.62-3.34,4.27-6.2,3.8-9.15-1.49-16.79-6.86-26.11-9.7,9.9-4.15,17.07,4.57,28.26,3.14a88,88,0,0,0-26-9.9c-2.65-.56-5.33-.64-7.42-2.83-7.39-7.75-14.76-7.45-20.85,1.4,1.6-4.65,2.9-8.86-4.12-7-1.4.38-3.31-1.67-5-1.7-7.4-.11-12.16-7.08-18.93-7.61-8.67-.68-16.39-3.42-24.23-6.72-8.65-3.64-18.08-5.55-26.42-9.72-8.15-4.09-15.53-8.94-24.86-3.8-.4.22-1.19-.13-1.74-.36-14.65-6.32-30.9-7-45.67-13-6-2.46-11.86-4-16.56-9.58C1349,385.07,1343,382.68,1336.79,383Z"/><path id="Pfad_2304" data-name="Pfad 2304" class="cls-2" d="M516.9,61.34c64.05-2.74,128.17-4,192.24,1C645.06,68.63,581,63.33,516.9,61.34Z"/><path id="Pfad_2305" data-name="Pfad 2305" class="cls-2" d="M1522.32,764c.48.72,2.27.48,3.38.87,17.79,6.24,36.07,11.43,51.06,23.71,2.59,2.13,5.52,3.8,9,3.68s7.25,0,6.43,4.87c-.77,4.47-4.75,2.45-7.42,2.39a8.18,8.18,0,0,1-5-1.71c-10.73-10-26.28-6.59-38.67-14.67-8.7-5.67-21.15-6.9-29.94-14.79-2.34-2.11-5.73-2.92-9.13-3.47-9.33-1.51-15.94-8.28-23.64-13.76,1.7,0,3.69-.59,5,.09C1495.7,757.46,1512.69,749.49,1522.32,764Z"/><path id="Pfad_2306" data-name="Pfad 2306" class="cls-2" d="M842.21,413.26c15.66-6.69,29.07,4.45,42.26-1.76-7.41-4.27-15.3-5.28-24.77-5.3,6.61-6.23,39.67-1.12,65.43,8.83-4.75,2.06-8.75,2.5-12.48,0-2.5-1.66-4.54-2.84-7.19-.54-.89.78-1.81,1.21-1.28,2.78,1.18,3.45,3.88,2.92,6.62,3.13,14.28,1.1,28.93,0,42.77,6.59-3.19,2.62-6.29,3.85-9.68,2.57-5.18-1.94-10.71-1.37-15.82-2.4-7.56-1.51-15.9.66-22.76-4.38-4.5-3.3-8.74-2.6-13.32.43a20.21,20.21,0,0,1-19.9,1.9C863.06,421.22,854.42,416.42,842.21,413.26Z"/><path id="Pfad_2307" data-name="Pfad 2307" class="cls-2" d="M137.82,653.61c-2.22-.47-5.38-.5-5.8-3.48-.53-3.78,3.7-2,5.13-3.71s5.25.22,5.25-3.11c.71-4.83-9.35.48-5.19-4.95,4-5.22-2.13-4.4-2.42-7.33,25.69,3.17,51.2,4.59,78.26,11.59-16.33,3.06-30.24,6.3-44.33,8.1C158.48,652,148.37,655.85,137.82,653.61Z"/><path id="Pfad_2308" data-name="Pfad 2308" class="cls-2" d="M1406.2,245.17c-8.42,2.55-16.84.84-24.19-1.55-18.12-5.89-36.7-7.81-55.37-8.77-9.08-.47-14.71-7.44-22.89-9.19-2.28-.48-3.31-4-2-7.16,17.36,3.55,35.31.5,52.43,8.55C1370.66,234.8,1389.57,236.78,1406.2,245.17Z"/><path id="Pfad_2309" data-name="Pfad 2309" class="cls-2" d="M93.74,930.7c-.82-4.21,2.41-5.56,6.2-5.72,18.86-.84,37.88,2.3,56-2.32,9.23.18,16.6,4.9,24.8,6.69,2.6.56,3,3.8,2.28,6.08-.73,2.48-3.42,2.46-5.38,2.05-4.4-.92-8.78-2.73-13.25-1-10.06,3.93-19.63,1.67-29.8-.38-10.85-2.18-22.16-6.31-33.48-1.33C96.72,936.72,94.38,934,93.74,930.7Z"/><path id="Pfad_2310" data-name="Pfad 2310" class="cls-2" d="M1512.33,357c-20.69-3.52-38.51-14.07-57.83-20.84-5.21-1.83-9-4.21-11.62-9,2.2-1.54,4.4-.77,6.1,0,14.17,6.8,30.85,4.12,44.91,12.49,4.27,2.55,9.93,2.35,12.61,8.07,1.32,2.82,4.83,3.37,7.85,3.9,4.75.84,9.64,1.19,14.21,2.59,5.86,1.79,12.9,3.3,9.44,13.57C1529.45,362.41,1520.9,358.46,1512.33,357Z"/><path id="Pfad_2311" data-name="Pfad 2311" class="cls-2" d="M40.16,878.15c5.13,5,4.35,9.14,2.32,13.49-1.33,2.87-1.52,5.54,2.57,5.82,3,.22,6.18-.52,6.36,4.11.17,4.29.6,8.75-3.81,11.17C45.42,913.94,45,915,44,917.41c-3,7.78-2.32,16.63-7.21,23.76-1.12,1.65-.87,4.87-3.4,4.75-2.71-.12-3.59-2.88-4.06-5.34-3-15.74-2.92-31.19,4.92-45.74C36.94,889.9,40.47,885.38,40.16,878.15Z"/><path id="Pfad_2312" data-name="Pfad 2312" class="cls-2" d="M131.33,682.86c10.46-1.66,20.37-2.76,30-4.94,6.42-1.45,12.14-1,18.67-.18,8.9,1.06,10.49,5.49,12.06,12,.19.76,1.78,1.19,4,2.57-13.37.18-24.82,1.08-36.17,1.34C150,693.88,137.64,695.46,131.33,682.86Z"/><path id="Pfad_2313" data-name="Pfad 2313" class="cls-2" d="M840.44,405.15a9.66,9.66,0,0,1-1.7.12c-9.12-1.25-17.67-6.48-27.52-2.87-3.66,1.34-6.28,5.84-11.36,3.64-15.59-6.74-31.68-12.13-50.54-17.51C789.32,384.17,835.85,393.05,840.44,405.15Z"/><path id="Pfad_2314" data-name="Pfad 2314" class="cls-2" d="M989.3,867.35c2.23,1.85,5.16.69,7.88.47,6.89-.56,13.58-.17,19.87,3.6,5.4,3.24,11.13,4.9,16.21-1.22a7.41,7.41,0,0,1,7.48-2.29c9.64,2.32,19.22,4.9,28.82,7.37-.15,1-.29,2-.43,3.05-33.89,2.11-67.62.88-101.21-8C975.59,872.21,980.6,860.17,989.3,867.35Z"/><path id="Pfad_2315" data-name="Pfad 2315" class="cls-2" d="M1286.8,724.16c-11.57-2.81-23.25-5.25-34.68-8.54-8-2.29-18.75,4.87-23.95-7-.28-.63-2.37-1-3.33-.71-9.12,3.12-13.86-6.64-22-6.45,7.1-4.73,14.09-4.24,21.08-1.46,4.49,1.79,8.93,3.92,13.85,3.75,7.52-.26,14.7-.29,18.77,7.81.56,1.12,2.52,2.4,3.62,2.24,13.24-2,23.52,7.28,36.91,9.32C1293,726.49,1289.87,724.91,1286.8,724.16Z"/><path id="Pfad_2316" data-name="Pfad 2316" class="cls-2" d="M926.51,304.91a14.43,14.43,0,0,1-5.4.21c-21.4-1.82-41.72-8.68-62.5-13.45a27.53,27.53,0,0,1-4.76-2.07c17.31.69,34.38.73,51.11,5,10.7,2.74,22.07,8.4,32.83,4.25,8.9-3.43,16.21-1.41,24.21.51,3.47.83,7.34,1,10.42,5-2.75.15-4.7.79-6.25.26C952.89,300.09,939.73,300.68,926.51,304.91Z"/><path id="Pfad_2317" data-name="Pfad 2317" class="cls-2" d="M1060.89,806c4.91-1.07,9.87-.85,12.89,1.48,7.59,5.83,16.57,4.6,24.88,6.6,6.45,1.55,15.2.72,19,4.7,7.3,7.7,15.33,6.43,23.74,6.52,2.92,0,4.63.89,4.24,4.15-.27,2.29,1.11,5.56-1.54,6.58a13.64,13.64,0,0,1-13.7-2c-6.46-5.16-14.18-7.24-21.77-9.75C1092.66,819,1075.24,817.59,1060.89,806Z"/><path id="Pfad_2318" data-name="Pfad 2318" class="cls-2" d="M1289,130.17c-5.38,1.06-10.46,1.16-15.62-2-7.29-4.5-15.94-9.32-23.88-8-10.92,1.77-19.5-1.44-28.43-5.89-4.33-2.16-8.57-4.5-14.48-4.31,3.59-3.53,6.61-3.06,9.26-1.45,5.77,3.52,12,3.5,18.38,3.18,3.27-.16,6.84-.24,9.84.84,14.4,5.21,29.43,7.7,44.31,10.86,1.66.36,3.88-.18,4.19,2.36S1291.12,129.74,1289,130.17Z"/><path id="Pfad_2319" data-name="Pfad 2319" class="cls-2" d="M1081.15,269.72a77.31,77.31,0,0,0-12.36-3.86c-8.72-1.88-18-.46-26.15-5.58,30.14,4.43,61.24,3.8,90,16.18C1114.71,279.5,1097.59,276.21,1081.15,269.72Z"/><path id="Pfad_2320" data-name="Pfad 2320" class="cls-2" d="M1075.52,333.49c-15.22-.61-29.91-6.11-45.33-5.16a14.57,14.57,0,0,1-3.61-.18c-1.9-.37-3.62-1.44-3.28-3.55.4-2.51,2.85-2.11,4.31-1.59,9.44,3.41,19.15,1.1,28.72,1.66,17.76,1.05,35.61,1.5,54.73,6.22C1098.22,335.6,1086.8,334,1075.52,333.49Z"/><path id="Pfad_2321" data-name="Pfad 2321" class="cls-2" d="M1202.36,194.53c8.41,2.86,17.8-1.61,25.63,4.14s16.47,7.63,25.82,7.2c3.21-.14,6.87-.18,7.43,3.15.51,3.07-3.43,3.73-5.88,4.47-10,3-19.82-2.78-29.83-.58-.12,0-.46-.92-.73-1.45.7-2.43,4.93-1.07,4.77-5C1219.76,204.71,1209.93,202.46,1202.36,194.53Z"/><path id="Pfad_2322" data-name="Pfad 2322" class="cls-2" d="M140.75,622.59a44.84,44.84,0,0,1-7-1.65c-4-1.33-6.25-4.65-5.33-8.38,1.15-4.67,5.32-2.65,8.3-1.88a61,61,0,0,0,16.16,1.57,21.78,21.78,0,0,1,11.72,2.9c4.78,2.69,9.87,6.56,16.26,6.89C167.38,623.33,154.09,624.79,140.75,622.59Z"/><path id="Pfad_2323" data-name="Pfad 2323" class="cls-2" d="M915,854.22c-3.27,0-3.86-3-4.4-4.8s2.14-3.11,3.86-2.46c11.32,4.24,24.14-1.19,35.18,6.07,4.79,3.15,11.28,2.48,16.71.65,3.94-1.32,7.19-1.28,10,1.26,2.13,1.88-.06,4-1.17,5.5-2.25,3.08-4.92,3.3-9.13,3.11-13.27-.58-23.3-13.6-35.59-9.35C924,854.2,919.52,854.16,915,854.22Z"/><path id="Pfad_2324" data-name="Pfad 2324" class="cls-2" d="M1743.57,629.94c1.2-1.69,2.6-1,3.81.1,2,1.78,4.82,5,6.86,3.26,7.8-6.54,10.87-.48,13.71,4.8,3.52,6.54,10.9,5.81,16,9.42,3.69,2.62,3.63-3.36,5.76-4.9,2.85-2,5.1.65,7.65,1,1.45.21,2.33,2,1.3,2.45-7.26,3.46.66,5,.83,8.86-9.25-1.53-18.93-1.06-26.4-4.89-9.39-4.82-18.46-10.76-27.57-16.39C1743.94,632.69,1741.85,632.34,1743.57,629.94Z"/><path id="Pfad_2325" data-name="Pfad 2325" class="cls-2" d="M1329.56,156.2c-2.66,0-5.32-.81-8-1-14.88-.94-24.63-14.33-39.41-15.9,4.66-3.3,9-1.74,13.38-.7,12,2.86,24.26,4.41,35.58,9.53,2.4,1.09,7.24-1.19,6.93,3.51S1333.06,156.14,1329.56,156.2Z"/><path id="Pfad_2326" data-name="Pfad 2326" class="cls-2" d="M659.74,749.65c4.31-9.48,10.36-6.39,15.22-6.31a183.41,183.41,0,0,1,67.84,14.08C715.32,755.2,689.08,743.49,659.74,749.65Z"/><path id="Pfad_2327" data-name="Pfad 2327" class="cls-2" d="M196.32,551.36c-5.33-.67-10.6-1.74-18-3,16.6-5.6,62,3,66.16,11.11-13.91.9-27.45-2.55-41.15-4.63C202.43,551,199.21,551.72,196.32,551.36Z"/><path id="Pfad_2328" data-name="Pfad 2328" class="cls-2" d="M1127.56,889.36c-5.12,8.33-11.6.82-17.3.58-6.14-.27-13.28,2.43-18.38-1.82s-13.42.43-17.9-7.36C1092.9,879.16,1110.52,880,1127.56,889.36Z"/><path id="Pfad_2329" data-name="Pfad 2329" class="cls-2" d="M1382.22,613.77c-3.18.05-2.08-2.35-1.47-3.63,1.09-2.26,3.64-2.39,5.58-1.88,8.32,2.17,17.39,1.92,24.64,7.68,3,2.37,6.72,3.34,10.26,1.83,6.78-2.92,12.2.26,18.72,3.39-4.79,3.61-26.29,3.4-32,.52C1399.87,617.56,1391.68,613.62,1382.22,613.77Z"/><path id="Pfad_2330" data-name="Pfad 2330" class="cls-2" d="M581.14,48.73c-35,2.2-70,2.15-106.47,1.86C511.05,45.58,546.06,43.76,581.14,48.73Z"/><path id="Pfad_2331" data-name="Pfad 2331" class="cls-2" d="M997,786.35c1.08,1.4,4,1.2,5.74,2.31,6.66,4.31,14.64-.74,20.86,2.5,9.95,5.18,20,9.15,31.33,9.29-.13,3.95-3.12,3.26-4.64,3.07-22.29-2.8-43.24-11-65.93-15.08C988.93,782.68,992.44,780.44,997,786.35Z"/><path id="Pfad_2332" data-name="Pfad 2332" class="cls-2" d="M627.92,373.77c-10.85-3.72-21.47-8.49-32.45-13.21,19.29,4.25,39,4.93,58.33,8.82C645.39,374.07,635.55,376.38,627.92,373.77Z"/><path id="Pfad_2333" data-name="Pfad 2333" class="cls-2" d="M531,253.46c11.55,2.4,23.12,3.74,34.87,1.93,3.79-.59,7.59-2.57,11.15.51.91.8,1.7,2,.46,3a14.63,14.63,0,0,1-11.83,3.21c-17.86-2.61-36.1-2.48-55.76-8.31C518.32,251.36,524.71,252.15,531,253.46Z"/><path id="Pfad_2334" data-name="Pfad 2334" class="cls-2" d="M720.29,770.79a14.89,14.89,0,0,1,6.15,1c9.75,3.54,19.79,4.42,30.11,4.61,9.06.17,18.09,1.7,27.12,2.64,0,1-.08,2-.13,3-2.95,0-5.9-.15-8.84,0-18.68,1.1-36.65-4.37-55.06-5.84-2.51-.2-7.23,1.76-6.84-3C713.14,769,717.62,771,720.29,770.79Z"/><path id="Pfad_2335" data-name="Pfad 2335" class="cls-2" d="M863.05,759c.48-3.67,5.63-2.1,8.71-2a27.43,27.43,0,0,1,9.74,1.76c11.63,5,23.43,9.15,35.69,11.62-3.61,0-7.23-.14-10.83,0-12.54.58-24.12-3.12-35.61-7.52C867.9,761.76,862.48,763.32,863.05,759Z"/><path id="Pfad_2336" data-name="Pfad 2336" class="cls-2" d="M643.36,781.25c-5.91.52-12.36-.29-17.65,1.81-14.21,5.62-27.21,4.18-39.94-3.69C605,780.92,624.35,776.15,643.36,781.25Z"/><path id="Pfad_2337" data-name="Pfad 2337" class="cls-2" d="M429.08,1025c8.24,3.69,16.37,7.62,24.54,11.44l-1.05,2.52c-17-6-35.61-6.62-51.11-17.33C410.59,1024.54,420.34,1021.13,429.08,1025Z"/><path id="Pfad_2338" data-name="Pfad 2338" class="cls-2" d="M170.31,728.84h.23l.06.27-.31,0C170.29,729,170.31,728.92,170.31,728.84Z"/><path id="Pfad_2339" data-name="Pfad 2339" class="cls-2" d="M161.62,729.58c-5.85,2.56-7.64-1-10.52-5.54,5-.53,10.32.54,10-6.36-.07-1.44,2.31-1.55,3.81-1.62,8.57-.4,17.1-.38,25.9,2.65-4.92,4-10.46,2.83-15.3,4.31-3.46,1.07-4.95,2.62-5.2,5.82C167.37,729,164.14,728.47,161.62,729.58Z"/><path id="Pfad_2340" data-name="Pfad 2340" class="cls-2" d="M874.42,847.8a57.71,57.71,0,0,1,16.49,2c-5,3.89-12.39,5.73-5.37,12.08-11.38,3.74-18.07-3.15-25.39-10.88C865.8,851.55,870.25,847.85,874.42,847.8Z"/><path id="Pfad_2341" data-name="Pfad 2341" class="cls-2" d="M732.16,279.77c24.37.71,48.85-.5,73.25,1.58C780.94,285.11,756.6,281.09,732.16,279.77Z"/><path id="Pfad_2342" data-name="Pfad 2342" class="cls-2" d="M732.16,279.77c-2.86-.08-5.71-.19-8.57-.34C726.45,279.5,729.31,279.62,732.16,279.77Z"/><path id="Pfad_2343" data-name="Pfad 2343" class="cls-2" d="M1050,830.37c13.25.74,24.62,7.41,38.6,11.69-8.84,3.56-37.21-2.74-41.18-8.19a4,4,0,0,1-.48-3.21C1047.52,829,1048.89,830.31,1050,830.37Z"/><path id="Pfad_2344" data-name="Pfad 2344" class="cls-2" d="M770.45,202.24c-2-.62-4.3-1.2-4.5-3.78-.12-1.5.83-3.7,2.23-3.38,11.21,2.6,24.16-1.56,35.24,9.81C791,205.56,780.63,205.45,770.45,202.24Z"/><path id="Pfad_2345" data-name="Pfad 2345" class="cls-2" d="M1156.31,487.6c-17.55.28-34-5.45-50.76-9C1123.31,476.77,1140.2,480,1156.31,487.6Z"/><path id="Pfad_2346" data-name="Pfad 2346" class="cls-2" d="M164.85,804.59c2.49.49,6,.74,5.64,4.52-.31,3.48-3.56,2.38-5.73,2.73-9.07,1.47-17.75,1.2-25.92-7.61C148.39,803.56,156.63,803,164.85,804.59Z"/><path id="Pfad_2347" data-name="Pfad 2347" class="cls-2" d="M1168.6,88.51c.05-.88.11-1.75.16-2.63l51.1,6.94C1211.87,98.12,1198,96.87,1168.6,88.51Z"/><path id="Pfad_2348" data-name="Pfad 2348" class="cls-2" d="M1355.16,142.44a49.89,49.89,0,0,1-8.84-2.72A36.06,36.06,0,0,1,1355.16,142.44Z"/><path id="Pfad_2349" data-name="Pfad 2349" class="cls-2" d="M1355.16,142.44c12.29,2.7,25.8,2.42,38.27,10.9C1377.34,156.83,1366.73,147.51,1355.16,142.44Z"/><path id="Pfad_2350" data-name="Pfad 2350" class="cls-2" d="M612.78,264.24c5.63,3.45,15.1-1.23,18.45,8.94-7.26,0-13.93,2.67-19.25-4.3-4-5.2-12.11-.38-17.91-5.63,5.43-1.29,9.84-.73,13.19-4.07,1-1.05,4.64-.23,3.18,1.74C606.41,266.33,611.23,263.3,612.78,264.24Z"/><path id="Pfad_2351" data-name="Pfad 2351" class="cls-2" d="M1238.69,23.64c-2.76-.65-6.14-.52-5.88-3.85s4.13-3,6.54-2.88c9.61.38,18.64,5.16,28.64,4A46.11,46.11,0,0,1,1238.69,23.64Z"/><path id="Pfad_2352" data-name="Pfad 2352" class="cls-2" d="M769,758.87c10.09,10.93,25.69,4.52,36.47,12.61a326.82,326.82,0,0,1-34.06-3.43C765.32,767.12,766.91,763.27,769,758.87Z"/><path id="Pfad_2353" data-name="Pfad 2353" class="cls-2" d="M874.81,11.5c12.77-6.75,24-1.22,36.48,4.63C897.68,19.07,886.86,10.41,874.81,11.5Z"/><path id="Pfad_2354" data-name="Pfad 2354" class="cls-2" d="M562.48,666.15c0,1,0,2.07,0,3.11H520.67v-3.87C534.6,665.19,548.53,664.31,562.48,666.15Z"/><path id="Pfad_2355" data-name="Pfad 2355" class="cls-2" d="M319.79,574.94c13.86-3.56,27.34,1,41,1.5C349.9,579.6,325.33,578.8,319.79,574.94Z"/><path id="Pfad_2356" data-name="Pfad 2356" class="cls-2" d="M481.32,924.29c-14.94,4.41-28.73,1.47-42.42,1.35C452.36,922.14,466,920.35,481.32,924.29Z"/><path id="Pfad_2357" data-name="Pfad 2357" class="cls-2" d="M648,822.28c4.94,1.88,7.72-4.74,12.48-3,8.9,3.15,18.3,1.68,27.44,2.61l.2,2.45c-13.26.56-26.52,1.14-39.78,1.59-.52,0-1.31-1.13-1.58-1.87C646.36,823.08,647.07,821.94,648,822.28Z"/><path id="Pfad_2358" data-name="Pfad 2358" class="cls-2" d="M165.56,601.68c-10.06-2.92-21.5,1.27-30.7-6.09C144.22,602.18,157.87,586.53,165.56,601.68Z"/><path id="Pfad_2359" data-name="Pfad 2359" class="cls-2" d="M997.61,319.59a2.8,2.8,0,0,1-.91,2.3c-2.2,1.28-5.11,1.51-6.76,0-5.19-4.72-11.62-4-17.67-4.69a54.61,54.61,0,0,1-17.12-4.51c3.47-1.88,6.26-2,8.59-1.05,9.09,3.64,19,2.69,28.2,5.27C994,317.49,997.16,315.85,997.61,319.59Z"/><path id="Pfad_2360" data-name="Pfad 2360" class="cls-2" d="M580.9,879.53c-1.42-1.78,1.28-3.3,1.6-2.89,2.49,3.07,7.92.89,9.13,4.34a16.82,16.82,0,0,1-.14,10.61c-1.08,3-5.92,2.73-6-.08-.29-6.49-4.7-4.43-8.13-4.75C577.93,883.16,584.86,884.52,580.9,879.53Z"/><path id="Pfad_2361" data-name="Pfad 2361" class="cls-2" d="M697.83,848c-12.44.2-25,4.32-37.71.32C672.56,846.23,685,844.93,697.83,848Z"/><path id="Pfad_2362" data-name="Pfad 2362" class="cls-2" d="M308.74,513.7c3.7.71,10.84-.78,10.5,3.68-.4,5.25-7.13,1-11.26,3-3.15-2.67-10.72,2.5-10.72-3.52C297.25,509.68,304.69,512.91,308.74,513.7Z"/><path id="Pfad_2363" data-name="Pfad 2363" class="cls-2" d="M1104.07,791.69c11.89-1.55,20.32,6.95,30.51,10.33C1121.78,806.24,1114.32,794.92,1104.07,791.69Z"/><path id="Pfad_2364" data-name="Pfad 2364" class="cls-2" d="M1345.21,659.3c6.87,1.13,11.81,6.17,17.93,9.19-7.07-.79-14.9,2.68-20.8-3.46-1.19-1.23-3-2.61-2-4.58S1343.47,659,1345.21,659.3Z"/><path id="Pfad_2365" data-name="Pfad 2365" class="cls-2" d="M125.19,811.44c-2.4.13-6,.9-5.53-3.58.34-3.48,3.17-4,5.92-4.25,5.47-.43,8.6,4.3,14.45,5.66C134.53,813.2,129.69,811.21,125.19,811.44Z"/><path id="Pfad_2366" data-name="Pfad 2366" class="cls-2" d="M1152.39,262.43c4.51,8.11,14.77,3.53,20.14,11.23h-13c-4.76,0-7.6-3-10-6.55-.75-1.11-.93-2.36,0-3.24A8.44,8.44,0,0,1,1152.39,262.43Z"/><path id="Pfad_2367" data-name="Pfad 2367" class="cls-2" d="M1107,137.48c-9.87.75-19.35-2.53-29.17-2.28C1087.87,131.07,1097.68,130.69,1107,137.48Z"/><path id="Pfad_2368" data-name="Pfad 2368" class="cls-2" d="M706.82,678c-2.05,0-4.73,0-4.55-3,.19-3.32,3.15-1.69,4.92-2.1,8.87-2.06,16.19,4.68,24.68,5.16C723.52,678,715.17,678.06,706.82,678Z"/><path id="Pfad_2369" data-name="Pfad 2369" class="cls-2" d="M731.87,678h1.94C733.17,678.05,732.52,678.05,731.87,678Z"/><path id="Pfad_2370" data-name="Pfad 2370" class="cls-2" d="M1012.28,77c-12.47-2.9-23.38-2.85-34.42-3.6C984.84,68.2,1004.1,69.94,1012.28,77Z"/><path id="Pfad_2371" data-name="Pfad 2371" class="cls-2" d="M744.58,398.68c.62-1.76,2.41-1.3,3.83-1.48,8.08-1,15,4.09,22.62,5.1-8.31,3.88-16.34-.34-24.41-.26a2.49,2.49,0,0,1-2.18-2.79A2.37,2.37,0,0,1,744.58,398.68Z"/><path id="Pfad_2372" data-name="Pfad 2372" class="cls-2" d="M229.43,597.33c-28.78,2.38-32.19,2.15-41.43-2.4C202.21,593.38,215.77,597.59,229.43,597.33Z"/><path id="Pfad_2373" data-name="Pfad 2373" class="cls-2" d="M1473.41,740.31c-5.94,4.31-10.65-5.18-16.62-.9-.6.43-2.48-2.17-2.6-4.13-.17-2.8,1.87-2.12,3.53-2.5C1465.15,731.07,1470.2,733.76,1473.41,740.31Z"/><path id="Pfad_2374" data-name="Pfad 2374" class="cls-2" d="M1368.28,164.55c-8.5.27-16,.14-22.66-4-1.42-.88-3-2.3-2.32-4.42.4-1.26,2.1-2.17,2.81-1.33C1351.78,161.57,1361.52,158.31,1368.28,164.55Z"/><path id="Pfad_2375" data-name="Pfad 2375" class="cls-2" d="M760.73,766.09c-7.69,1-7.31-6.46-11.92-11.62,6.55,1,12.53-1.22,14.34,5.81C763.67,762.31,764.27,765.6,760.73,766.09Z"/><path id="Pfad_2376" data-name="Pfad 2376" class="cls-2" d="M1221.32,96.46c9.33-1.08,16.57.86,23.11,5.6C1236.52,103.2,1228.34,105.75,1221.32,96.46Z"/><path id="Pfad_2377" data-name="Pfad 2377" class="cls-2" d="M1396.53,720.21c9.66.68,16.94,8,26.36,9.53-4.36,2.5-7.79,0-11.51-.91-5.2-1.2-9.61-5.8-15.19-4.46-3.11.75-4.36-.55-4.34-2.52C1391.87,718.32,1394.82,720.09,1396.53,720.21Z"/><path id="Pfad_2378" data-name="Pfad 2378" class="cls-2" d="M140.05,966.86c2.76-.46,5,1,4.76,3.87-.33,4.62-3.75,6.53-8,6.78-2.17.14-5,.67-5.36-2.93C132.17,969.57,135.68,967.59,140.05,966.86Z"/><path id="Pfad_2379" data-name="Pfad 2379" class="cls-2" d="M858.19,550.07c-9,1.93-17.43-1.22-26.06-2.8C841.08,545.64,849.92,544.83,858.19,550.07Z"/><path id="Pfad_2380" data-name="Pfad 2380" class="cls-2" d="M214.06,976.73c.67.11,1.42,1.83,1.51,2.86.15,1.7-1.49,1.46-2.58,1.71-7.47,1.76-13.17-2.55-21.2-5.63C200.71,972,207.34,975.62,214.06,976.73Z"/><path id="Pfad_2381" data-name="Pfad 2381" class="cls-2" d="M1195.49,331.64c-9.27-4.65-20.44.41-31.08-6.49C1176.54,324.43,1186.78,324.16,1195.49,331.64Z"/><path id="Pfad_2382" data-name="Pfad 2382" class="cls-2" d="M878.05,69.63c8.79-1.06,16.2-2.17,23.15,2.06C893.77,73,886,77.91,878.05,69.63Z"/><path id="Pfad_2383" data-name="Pfad 2383" class="cls-2" d="M914.11,71.45l19.65,1.7-.19,2.76C927.26,74.31,920.07,85.76,914.11,71.45Z"/><path id="Pfad_2384" data-name="Pfad 2384" class="cls-2" d="M832.68,838.37h-24.4l.09-2.75C816.75,833.2,824.57,838.06,832.68,838.37Z"/><path id="Pfad_2385" data-name="Pfad 2385" class="cls-2" d="M933.46,813.18C923.4,816.87,915,815,907.09,805,917.07,808.18,924.34,813.89,933.46,813.18Z"/><path id="Pfad_2386" data-name="Pfad 2386" class="cls-2" d="M1001,320c-.2-1.35.48-2.55,1.8-2.53,5.9.08,12.31-1.8,18.94,4.93-7.18,0-12.37,0-17.55,0C1002.6,322.37,1001.28,321.79,1001,320Z"/><path id="Pfad_2387" data-name="Pfad 2387" class="cls-2" d="M322.15,839.6l-.18,2.3H289.83C301.31,834,311.81,841.1,322.15,839.6Z"/><path id="Pfad_2388" data-name="Pfad 2388" class="cls-2" d="M1007,765.72c-6.35-4.31-12.92-8.13-20.9-9.63,8.57-1.77,15.73,1.87,22.78,5.86,1.3.73,2.82,1.52,1.35,3.34a2.26,2.26,0,0,1-3.17.47Z"/><path id="Pfad_2389" data-name="Pfad 2389" class="cls-2" d="M1043.38,380.82c9.31-.65,18.66-3.18,30.43,1.52C1061.87,383.72,1052.58,383.17,1043.38,380.82Z"/><path id="Pfad_2390" data-name="Pfad 2390" class="cls-2" d="M1550.74,370.58c-.84-.2-1.78-1.68-1.93-2.68-.3-2,1.75-2.08,3-2.5,6.82-2.28,10.2,2.1,14.16,7.18C1560,374.58,1555.43,371.71,1550.74,370.58Z"/><path id="Pfad_2391" data-name="Pfad 2391" class="cls-2" d="M932.89,996.17c1.22,0,1.41,1.73,1.24,3a1.85,1.85,0,0,1-1.84,1.87,1.65,1.65,0,0,1-.62-.1c-6.38-1.68-13.55-.49-21.61-6.28C919.41,992.88,926.12,996,932.89,996.17Z"/><path id="Pfad_2392" data-name="Pfad 2392" class="cls-2" d="M572.41,709.89c5-1.27,7,3.08,10.68,6.5l-12.58,4.18C575.22,717.54,565.06,711.75,572.41,709.89Z"/><path id="Pfad_2393" data-name="Pfad 2393" class="cls-2" d="M1761.3,650.4c-7.69-2.57-15.14-5.58-20.47-12.39C1747.45,642.5,1756.34,642.93,1761.3,650.4Z"/><path id="Pfad_2394" data-name="Pfad 2394" class="cls-2" d="M1159,38.85c7.28-1.47,13.44,1.06,21.53,5.73C1171,45.39,1164.36,44.4,1159,38.85Z"/><path id="Pfad_2395" data-name="Pfad 2395" class="cls-2" d="M903.9,237.09l24.69,3.26C919.75,243.69,911.46,243.09,903.9,237.09Z"/><path id="Pfad_2396" data-name="Pfad 2396" class="cls-2" d="M1204.83,538.31c1.83.35,3.93.94,3.8,3-.17,2.47-2.58,2.8-4.68,3.14-6.2,1-9.08-4.93-15.64-6.91C1195.39,534.77,1200,537.4,1204.83,538.31Z"/><path id="Pfad_2397" data-name="Pfad 2397" class="cls-2" d="M764.12,904.61c-4.78,7.77-11.53,3.37-18.93,3.93C751.08,900.44,758,904.57,764.12,904.61Z"/><path id="Pfad_2398" data-name="Pfad 2398" class="cls-2" d="M694.38,186.12c7.41-5,15.12-6,24.66-2.39C710.06,189.93,702,182.92,694.38,186.12Z"/><path id="Pfad_2399" data-name="Pfad 2399" class="cls-2" d="M358.33,725.87c3.39.17,6.72,1.48,11.87,2.69-12.47,1.26-22.86.88-35.59-2.8C344,725.76,351.17,725.52,358.33,725.87Z"/><path id="Pfad_2400" data-name="Pfad 2400" class="cls-2" d="M962.75,407.68h-27L936,405C944.52,405.48,953.23,403.15,962.75,407.68Z"/><path id="Pfad_2401" data-name="Pfad 2401" class="cls-2" d="M101.1,941.6c3,2.17,8.88,2.2,8.8,5.88s-5.65,3.37-8.83,4.31c-4.14,1.22-3.12-3.19-4.45-5.44C96.73,943.48,99.48,940.42,101.1,941.6Z"/><path id="Pfad_2402" data-name="Pfad 2402" class="cls-2" d="M1570.13,377.92c-1.51-2.27,2.52-4.34,5-5.17,6-2,5.63,3.5,8.21,7.29C1577.79,381.77,1572.8,381.9,1570.13,377.92Z"/><path id="Pfad_2403" data-name="Pfad 2403" class="cls-2" d="M999.52,824.73c-8.3-1.13-15.34-3.07-21-8.62C984.81,820,994.92,813.8,999.52,824.73Z"/><path id="Pfad_2404" data-name="Pfad 2404" class="cls-2" d="M533.28,381.47c-7.56,8.85-13.6,1.48-19.5,2.06C519.36,380.43,525.19,381.7,533.28,381.47Z"/><path id="Pfad_2405" data-name="Pfad 2405" class="cls-2" d="M598.85,480.41c-7.75,3.65-13.15,1.73-18.11-2.44C586.4,478.32,592.71,475.1,598.85,480.41Z"/><path id="Pfad_2406" data-name="Pfad 2406" class="cls-2" d="M1584.81,472.58c-1.65-1.6-2.3-3.92-.72-5.67,2.08-2.31,2.63,1.25,4,1.51,5.06,1,5.7,6.95,10.13,8.6C1592.83,477.37,1588.36,476,1584.81,472.58Z"/><path id="Pfad_2407" data-name="Pfad 2407" class="cls-2" d="M531.93,136.25c-.07.82-.13,1.64-.2,2.47L505.26,136C514.52,131,523.12,135.05,531.93,136.25Z"/><path id="Pfad_2408" data-name="Pfad 2408" class="cls-2" d="M564.26,675.15c5.16-1.21,10,.3,15.7,2.21-4.74,4.35-10.4.81-14.91,2.84-1.37.62-3.92.28-4.31-1.93S562.68,675.52,564.26,675.15Z"/><path id="Pfad_2409" data-name="Pfad 2409" class="cls-2" d="M1141.76,679.94c-8.72-3.67-18-3.51-27.14-5.24C1124.36,672.39,1133.32,674.73,1141.76,679.94Z"/><path id="Pfad_2410" data-name="Pfad 2410" class="cls-2" d="M550.38,890.58c-5.46,2.33-10.9,4.91-18.27.91C539,887.34,544.56,887.36,550.38,890.58Z"/><path id="Pfad_2411" data-name="Pfad 2411" class="cls-2" d="M1311.45,130c-5,1.3-10,2.1-15-3.74,6.1-.88,11-2.26,15.56.66C1312.66,127.32,1312.83,129.62,1311.45,130Z"/><path id="Pfad_2412" data-name="Pfad 2412" class="cls-2" d="M1621.93,609.72c-2.13-.85-4.68-1.51-5.13-4.52,2.75-1.62,5.24.08,7.7.62s5.48-.62,7.5,1.54c.39.42-.22,2.44-.94,3.1C1627.88,613.38,1624.85,610.89,1621.93,609.72Z"/><path id="Pfad_2413" data-name="Pfad 2413" class="cls-2" d="M572.56,589.4c.2,3.78-4.1,3.45-7,3.13s-7.87,1.84-7.85-2.87c0-3.39,4.91-1.73,7.68-2.56C567.72,588.22,572.33,585.15,572.56,589.4Z"/><path id="Pfad_2414" data-name="Pfad 2414" class="cls-2" d="M1768.16,1033.51c-9.4-1.59-14.78-7.38-20.83-11.77C1755.43,1022.86,1762.29,1025.9,1768.16,1033.51Z"/><path id="Pfad_2415" data-name="Pfad 2415" class="cls-2" d="M797.19,803H773.31C782.52,798.64,789.84,799.24,797.19,803Z"/><path id="Pfad_2416" data-name="Pfad 2416" class="cls-2" d="M1696.28,1020.21c-4.08-3.27-10.21-3.81-13.43-9.61,6.19-.08,10.66,2,14.8,5.06.93.67,2.07,1.66,1.26,2.89C1698.36,1019.38,1696.56,1020.44,1696.28,1020.21Z"/><path id="Pfad_2417" data-name="Pfad 2417" class="cls-2" d="M877.62,552.65c-.53-.12-1-.26-1.57-.42C876.57,552.36,877.1,552.5,877.62,552.65Z"/><path id="Pfad_2418" data-name="Pfad 2418" class="cls-2" d="M877.61,552.64c7.48,1.7,15.68-.22,25.08,3.17C892.28,558.74,885,554.75,877.61,552.64Z"/><path id="Pfad_2419" data-name="Pfad 2419" class="cls-2" d="M644.8,853.8c1.53.56,2.78,1.36,2.12,3.14-.46,1.27-2.07,3.57-2.72,2.61-3.3-4.88-9.8-1.62-14.38-6.59C635.52,852.48,640.2,852.1,644.8,853.8Z"/><path id="Pfad_2420" data-name="Pfad 2420" class="cls-2" d="M542.76,163.79c-6.06,3.36-12.39,3.88-18.84,2.9C530,163.47,536.13,161.83,542.76,163.79Z"/><path id="Pfad_2421" data-name="Pfad 2421" class="cls-2" d="M489.13,510.74c-6.52,3.83-10.49,0-16.79-4.59C479.62,506.53,485.07,505.49,489.13,510.74Z"/><path id="Pfad_2422" data-name="Pfad 2422" class="cls-2" d="M1630.41,813c-4.28.28-7.28-1.74-8.52-7.2,4,.09,7.88-1.52,10.19,3.06C1632.94,810.62,1632.72,812.89,1630.41,813Z"/><path id="Pfad_2423" data-name="Pfad 2423" class="cls-2" d="M1039.24,314.92c9.73-3.36,16.77.52,24,1.45C1055.92,316.73,1048.49,318,1039.24,314.92Z"/><path id="Pfad_2424" data-name="Pfad 2424" class="cls-2" d="M582.24,778.6c-8.62,2-13.84-.11-18.9-2.94C569.4,774,574.9,774.87,582.24,778.6Z"/><path id="Pfad_2425" data-name="Pfad 2425" class="cls-2" d="M1284.75,633.93c-9.21,2-11.54,1.28-16-4.38C1274.11,630.23,1279.84,628.32,1284.75,633.93Z"/><path id="Pfad_2426" data-name="Pfad 2426" class="cls-2" d="M720.08,459.77c-7.67,5.63-12-1.67-17.38-2.12C708.59,454.2,713.38,458.5,720.08,459.77Z"/><path id="Pfad_2427" data-name="Pfad 2427" class="cls-2" d="M46,378.5c-3.27-.26-1.5-3.92-2.08-6,.57-2.12-1.11-5.76,2.41-5.78,2.66,0,3.45,3.18,3.18,5.68S49.76,378.79,46,378.5Z"/><path id="Pfad_2428" data-name="Pfad 2428" class="cls-2" d="M1633.28,755.53c10-3.3,14.51,5.79,22.83,9.37C1645.49,766.45,1642.26,754.6,1633.28,755.53Z"/><path id="Pfad_2429" data-name="Pfad 2429" class="cls-2" d="M260.16,562.64c4.93-1.54,9.78-2,14.49,0Z"/><path id="Pfad_2430" data-name="Pfad 2430" class="cls-2" d="M931,865.81c.62.17,1,1.26,1.45,1.93-4.16,2.77-8.25,5.75-16.12,3.1C922.73,868.88,925.66,864.3,931,865.81Z"/><path id="Pfad_2431" data-name="Pfad 2431" class="cls-2" d="M94.67,964.57c2.17,1.2,3.21,2.6,1.61,4.92-3.36,4.84-6.83.62-11.79,0C88.08,966,89.61,961.76,94.67,964.57Z"/><path id="Pfad_2432" data-name="Pfad 2432" class="cls-2" d="M1284.56,345.89c-.78,2.06-3.35,3.14-4.08,1.69-2.37-4.74-7.77-2-10.68-6.66,4.32.57,8.65,1.11,13,1.75C1284.63,342.94,1285.21,344.16,1284.56,345.89Z"/><path id="Pfad_2433" data-name="Pfad 2433" class="cls-2" d="M1279.06,211c2.73.15,4.87,1.8,4.29,4.51-.66,3.1-3.32,1.54-5.07.88-3-1.13-5.88-2.59-8.8-3.92l.2-1.5C1272.8,211,1275.94,210.84,1279.06,211Z"/><path id="Pfad_2434" data-name="Pfad 2434" class="cls-2" d="M529.39,284.06c-7.11-2.79-12.5.23-20.62-1.42C520.82,278.54,523.31,278.67,529.39,284.06Z"/><path id="Pfad_2435" data-name="Pfad 2435" class="cls-2" d="M482.26,98.47c6.24-.89,11.78-3.58,17.93-1.29C494.47,98.38,489.34,104.3,482.26,98.47Z"/><path id="Pfad_2436" data-name="Pfad 2436" class="cls-2" d="M1213.06,624.73c-6.32.88-12.16-.1-18.7-3.94A26,26,0,0,1,1213.06,624.73Z"/></g></g></svg>