<?xml version="1.0" encoding="utf-8"?>
<!-- Generator: Adobe Illustrator 25.4.1, SVG Export Plug-In . SVG Version: 6.00 Build 0)  -->
<svg version="1.1" id="Layer_1" xmlns="http://www.w3.org/2000/svg" xmlns:xlink="http://www.w3.org/1999/xlink" x="0px" y="0px"
	 viewBox="0 0 1483.2 1914.4" style="enable-background:new 0 0 1483.2 1914.4;" xml:space="preserve">
<style type="text/css">
	.st0{fill-rule:evenodd;clip-rule:evenodd;fill:none;}
	.st1{fill-rule:evenodd;clip-rule:evenodd;fill:#000;}
	.st2{fill:#000;}
	.st3{opacity:0.5;fill:#000;}
	.st4{fill:#000;}
	.st5{fill-rule:evenodd;clip-rule:evenodd;fill:#000;}
</style>
<polygon class="st0" points="607.3,79.2 84.4,705.8 177.9,817.1 607.3,301.9 "/>
<polygon class="st1" points="866.3,79.2 866.3,301.9 1299.4,817.1 1392.9,705.8 "/>
<polygon class="st1" points="607.3,79.2 84.4,705.8 177.9,817.1 607.3,301.9 "/>
<polygon class="st2" points="891.4,445.8 891.4,712.4 1074.8,928.8 962.4,1063.2 738.6,796 514.9,1062.6 402.5,928.2 581.4,712.4 
	581.4,445.8 179.3,929.3 514.8,1329.1 641.4,1178.4 641.4,1258.5 835,1258.5 835,1177.4 962.4,1329.1 1298,929.3 "/>
<rect x="645.2" y="1278.4" transform="matrix(1.520429e-10 -1 1 1.520429e-10 -637.0668 2113.4441)" class="st3" width="186" height="193.7"/>
<rect x="631.5" y="1501.9" transform="matrix(1.325642e-10 -1 1 1.325642e-10 -860.5385 2336.9158)" class="st4" width="213.4" height="193.7"/>
<g>
	<polygon class="st5" points="740,1848.9 740,1694.2 439.2,1336.4 374.3,1413.7 	"/>
	<polygon class="st5" points="739.8,1848.9 1103,1413.7 1038,1336.4 739.8,1694.2 	"/>
</g>
</svg>
