<svg xmlns="http://www.w3.org/2000/svg" viewBox="0 0 2351.36 1885.9"><polygon points="1041.8 0 518.93 626.6 612.4 737.94 1041.8 222.73 1041.8 0" style="fill:#fff"/><polygon points="1015.92 366.69 613.8 850.16 949.35 1249.97 1173.13 983.45 1396.92 1249.97 1732.52 850.16 1325.92 366.69 1325.92 633.27 1509.28 849.69 1396.92 984.05 1173.13 716.87 949.42 983.45 837.05 849.08 1015.92 633.27 1015.92 366.69" style="fill:#fff"/><polygon points="1300.77 0 1300.77 222.73 1733.93 737.94 1827.4 626.6 1300.77 0" style="fill:#fff;fill-rule:evenodd"/><polygon points="1041.8 0 518.93 626.6 612.4 737.94 1041.8 222.73 1041.8 0" style="fill:#fff;fill-rule:evenodd"/><path d="M205,1885.84l-31.83-377-31.83,377h-82L0,1438.18H61.19l34.89,387,41-387h73.45l41,387,34.89-387H344l-59.34,447.66Z" style="fill:#fff"/><path d="M390.08,1438.21h58.81v447.63H390.08Z" style="fill:#fff"/><path d="M499.21,1885.84V1438.21H558v399.36h77.74v48.27Z" style="fill:#fff"/><path d="M848.79,1473.55v377l-36.72,35.29H674.34V1438.21H812.07ZM790,1825.84v-327.5l-12.24-11.78H733.1v351.06h44.69Z" style="fill:#fff"/><path d="M901.69,1473.55l36.73-35.34h96.11l36.72,35.34v94.84h-58.76v-70.1l-12.24-11.78H972.7l-12.24,11.78v327.55l12.24,11.78h27.55l12.24-11.78V1703.27H983.11v-50.65h88.14v197.91l-36.72,35.31H938.42l-36.73-35.34Z" style="fill:#fff"/><path d="M1128.67,1438.21h145.07v48.3h-86.31V1635h75.29v48.3h-75.29v154.32H1275v48.27h-146.3Z" style="fill:#fff"/><path d="M1324.89,1438.21h135.89l36.73,35.34v186.14l-32.44,31.21,36.73,195h-56.91l-36.12-190.84h-25.1v190.78h-58.78Zm113.85,199.09V1497.11l-12.24-11.78h-42.85v163.75h42.85Z" style="fill:#fff"/><path d="M1545.48,1438.21h145.08v48.3h-86.32V1635h75.3v48.3h-75.3v154.32h87.54v48.27h-146.3Z" style="fill:#fff"/><path d="M1736.28,1473.55l36.73-35.34h90.6l36.73,35.34v100.73h-58.77v-77.17l-12.24-11.78h-22l-12.24,11.78v328.73l12.24,11.78h22l12.24-11.78v-76.57h58.77v101.31l-36.73,35.26H1773l-36.73-35.34Z" style="fill:#fff"/><path d="M2011.39,1636.71h61.82v-198.5H2132v447.63h-58.77V1686.19h-61.82v199.65h-58.77V1438.21h58.77Z" style="fill:#fff"/><path d="M2295.67,1485.33v400.51h-58.78V1485.33h-55.71v-47.12h170.18v47.12Z" style="fill:#fff"/></svg>