<svg xmlns="http://www.w3.org/2000/svg" width="240.696" height="45.831" viewBox="0 0 240.696 45.831">
  <g id="Gruppe_823" data-name="Gruppe 823" transform="translate(-181.11 -1667.34)">
    <path id="Pfad_3872" data-name="Pfad 3872" d="M202.1,1713.165l-3.258-38.592-3.258,38.592h-8.394l-6.078-45.825h6.264l3.572,39.615,4.2-39.615h7.519l4.2,39.615,3.572-39.615h5.89l-6.074,45.825Z" transform="translate(0 0)" fill="#fafafa"/>
    <path id="Pfad_3873" data-name="Pfad 3873" d="M571.19,1667.37h6.02v45.822h-6.02Z" transform="translate(-350.149 -0.027)" fill="#fafafa"/>
    <path id="Pfad_3874" data-name="Pfad 3874" d="M680.32,1713.192V1667.37h6.015v40.881h7.958v4.941Z" transform="translate(-448.108 -0.027)" fill="#fafafa"/>
    <path id="Pfad_3875" data-name="Pfad 3875" d="M873.308,1670.988v38.592l-3.759,3.612h-14.1V1667.37h14.1Zm-6.015,36.062v-33.525l-1.253-1.206h-4.575v35.936h4.575Z" transform="translate(-605.311 -0.027)" fill="#fafafa"/>
    <path id="Pfad_3876" data-name="Pfad 3876" d="M1082.8,1670.988l3.76-3.618h9.838l3.759,3.618v9.708h-6.015v-7.176l-1.253-1.206h-2.82l-1.253,1.206v33.53l1.253,1.206h2.82l1.253-1.206V1694.5h-3.008v-5.185h9.022v20.259l-3.759,3.615h-9.838l-3.76-3.617Z" transform="translate(-809.388 -0.027)" fill="#fafafa"/>
    <path id="Pfad_3877" data-name="Pfad 3877" d="M1309.78,1667.37h14.85v4.944h-8.835v15.2h7.707v4.944h-7.707v15.8h8.961v4.941H1309.78Z" transform="translate(-1013.134 -0.027)" fill="#fafafa"/>
    <path id="Pfad_3878" data-name="Pfad 3878" d="M1506,1667.37h13.91l3.76,3.618v19.054l-3.321,3.195,3.76,19.961h-5.826l-3.7-19.535h-2.569v19.529H1506Zm11.654,20.38V1673.4l-1.253-1.206h-4.386v16.762h4.386Z" transform="translate(-1189.267 -0.027)" fill="#fafafa"/>
    <path id="Pfad_3879" data-name="Pfad 3879" d="M1726.59,1667.37h14.851v4.944H1732.6v15.2h7.708v4.944H1732.6v15.8h8.961v4.941H1726.59Z" transform="translate(-1387.277 -0.027)" fill="#fafafa"/>
    <path id="Pfad_3880" data-name="Pfad 3880" d="M1917.39,1670.988l3.76-3.618h9.274l3.76,3.618V1681.3h-6.016v-7.9l-1.253-1.206h-2.252l-1.253,1.206v33.651l1.253,1.206h2.252l1.253-1.206v-7.838h6.016v10.371l-3.76,3.609h-9.274l-3.76-3.617Z" transform="translate(-1558.545 -0.027)" fill="#fafafa"/>
    <path id="Pfad_3881" data-name="Pfad 3881" d="M2139.746,1687.689h6.328v-20.32h6.016v45.822h-6.016v-20.437h-6.328v20.437h-6.016V1667.37h6.016Z" transform="translate(-1752.74 -0.027)" fill="#fafafa"/>
    <path id="Pfad_3882" data-name="Pfad 3882" d="M2374.01,1672.193v41h-6.017v-41h-5.7v-4.823h17.42v4.823Z" transform="translate(-1957.903 -0.027)" fill="#fafafa"/>
  </g>
</svg>
