<svg xmlns="http://www.w3.org/2000/svg" width="84.791" height="81" viewBox="0 0 84.791 81">
  <g id="Gruppe_824" data-name="Gruppe 824" transform="translate(-340.156 -1835)">
    <path id="Pfad_52" data-name="Pfad 52" d="M733.922,229.157l-33.883,40.6,6.057,7.215,27.826-33.386Z" transform="translate(-359.883 1605.843)" fill="#fafafa" fill-rule="evenodd"/>
    <path id="Pfad_53" data-name="Pfad 53" d="M820.973,595.85l-26.058,31.33,21.744,25.908,14.5-17.271,14.5,17.271L867.41,627.18l-26.349-31.33v17.275l11.882,14.024-7.281,8.707-14.5-17.314-14.5,17.275-7.281-8.707,11.591-13.985Z" transform="translate(-448.611 1262.912)" fill="#fafafa"/>
    <path id="Pfad_54" data-name="Pfad 54" d="M1481.883,229.157v14.434l28.069,33.386,6.057-7.215Z" transform="translate(-1091.062 1605.843)" fill="#fafafa" fill-rule="evenodd"/>
    <path id="Pfad_55" data-name="Pfad 55" d="M733.922,229.157l-33.883,40.6,6.057,7.215,27.826-33.386Z" transform="translate(-359.883 1605.843)" fill="#fafafa" fill-rule="evenodd"/>
  </g>
</svg>
