<svg id="Layer_1" data-name="Layer 1" xmlns="http://www.w3.org/2000/svg" viewBox="0 0 2708.19 2708.19"><defs><style>.cls-1{fill:none;}.cls-1,.cls-3{fill-rule:evenodd;}.cls-2{fill:#50533c;}.cls-3,.cls-4{fill:#442f29;}</style></defs><polygon class="cls-1" points="1222.91 229.16 700.04 855.76 793.51 967.1 1222.91 451.89 1222.91 229.16"/><polygon class="cls-2" points="1197.03 595.85 794.91 1079.32 1130.46 1479.13 1354.24 1212.61 1578.03 1479.13 1913.63 1079.32 1507.03 595.85 1507.03 862.43 1690.39 1078.85 1578.03 1213.21 1354.24 946.03 1130.53 1212.61 1018.16 1078.24 1197.03 862.43 1197.03 595.85"/><polygon class="cls-3" points="1481.88 229.16 1481.88 451.89 1915.04 967.1 2008.51 855.76 1481.88 229.16"/><polygon class="cls-3" points="1222.91 229.16 700.04 855.76 793.51 967.1 1222.91 451.89 1222.91 229.16"/><path class="cls-4" d="M386.15,2115l-31.83-377-31.83,377h-82l-59.38-447.66H242.3l34.89,387,41-387h73.45l41,387,34.89-387h57.54L465.73,2115Z"/><path class="cls-4" d="M571.19,1667.37H630V2115H571.19Z"/><path class="cls-4" d="M680.32,2115V1667.37h58.76v399.36h77.74V2115Z"/><path class="cls-4" d="M1029.9,1702.71v377L993.18,2115H855.45V1667.37H993.18ZM971.14,2055v-327.5l-12.24-11.78H914.21v351.06H958.9Z"/><path class="cls-4" d="M1082.8,1702.71l36.73-35.34h96.11l36.72,35.34v94.84H1193.6v-70.1l-12.24-11.78h-27.55l-12.24,11.78V2055l12.24,11.78h27.55L1193.6,2055V1932.43h-29.38v-50.65h88.14v197.91L1215.64,2115h-96.11l-36.73-35.34Z"/><path class="cls-4" d="M1309.78,1667.37h145.07v48.3h-86.31v148.44h75.29v48.3h-75.29v154.32h87.54V2115h-146.3Z"/><path class="cls-4" d="M1506,1667.37h135.89l36.73,35.34v186.14l-32.44,31.21,36.73,195H1626l-36.12-190.84h-25.1V2115H1506Zm113.85,199.09V1726.27l-12.24-11.78h-42.85v163.75h42.85Z"/><path class="cls-4" d="M1726.59,1667.37h145.08v48.3h-86.32v148.44h75.3v48.3h-75.3v154.32h87.54V2115h-146.3Z"/><path class="cls-4" d="M1917.39,1702.71l36.73-35.34h90.6l36.73,35.34v100.73h-58.77v-77.17l-12.24-11.78h-22l-12.24,11.78V2055l12.24,11.78h22l12.24-11.78v-76.57h58.77v101.31L2044.72,2115h-90.6l-36.73-35.34Z"/><path class="cls-4" d="M2192.5,1865.87h61.82v-198.5h58.77V2115h-58.77V1915.35H2192.5V2115h-58.77V1667.37h58.77Z"/><path class="cls-4" d="M2476.78,1714.49V2115H2418V1714.49h-55.71v-47.12h170.18v47.12Z"/></svg>